G04 #@! TF.GenerationSoftware,KiCad,Pcbnew,6.0.2+dfsg-1*
G04 #@! TF.CreationDate,2024-02-25T21:37:04-08:00*
G04 #@! TF.ProjectId,cchat,63636861-742e-46b6-9963-61645f706362,rev?*
G04 #@! TF.SameCoordinates,Original*
G04 #@! TF.FileFunction,Legend,Bot*
G04 #@! TF.FilePolarity,Positive*
%FSLAX46Y46*%
G04 Gerber Fmt 4.6, Leading zero omitted, Abs format (unit mm)*
G04 Created by KiCad (PCBNEW 6.0.2+dfsg-1) date 2024-02-25 21:37:04*
%MOMM*%
%LPD*%
G01*
G04 APERTURE LIST*
G04 Aperture macros list*
%AMRoundRect*
0 Rectangle with rounded corners*
0 $1 Rounding radius*
0 $2 $3 $4 $5 $6 $7 $8 $9 X,Y pos of 4 corners*
0 Add a 4 corners polygon primitive as box body*
4,1,4,$2,$3,$4,$5,$6,$7,$8,$9,$2,$3,0*
0 Add four circle primitives for the rounded corners*
1,1,$1+$1,$2,$3*
1,1,$1+$1,$4,$5*
1,1,$1+$1,$6,$7*
1,1,$1+$1,$8,$9*
0 Add four rect primitives between the rounded corners*
20,1,$1+$1,$2,$3,$4,$5,0*
20,1,$1+$1,$4,$5,$6,$7,0*
20,1,$1+$1,$6,$7,$8,$9,0*
20,1,$1+$1,$8,$9,$2,$3,0*%
G04 Aperture macros list end*
%ADD10C,0.150000*%
%ADD11C,1.448000*%
%ADD12C,3.000000*%
%ADD13RoundRect,0.102000X-1.000000X-1.000000X1.000000X-1.000000X1.000000X1.000000X-1.000000X1.000000X0*%
%ADD14C,2.204000*%
%ADD15RoundRect,0.102000X-0.750000X1.750000X-0.750000X-1.750000X0.750000X-1.750000X0.750000X1.750000X0*%
G04 APERTURE END LIST*
D10*
X130338095Y-114176190D02*
X130385714Y-114128571D01*
X130480952Y-114080952D01*
X130576190Y-114080952D01*
X130671428Y-114128571D01*
X130719047Y-114176190D01*
X130766666Y-114271428D01*
X130766666Y-114366666D01*
X130719047Y-114461904D01*
X130671428Y-114509523D01*
X130576190Y-114557142D01*
X130480952Y-114557142D01*
X130385714Y-114509523D01*
X130338095Y-114461904D01*
X130338095Y-114080952D02*
X130338095Y-114461904D01*
X130290476Y-114509523D01*
X130242857Y-114509523D01*
X130147619Y-114461904D01*
X130100000Y-114366666D01*
X130100000Y-114128571D01*
X130195238Y-113985714D01*
X130338095Y-113890476D01*
X130528571Y-113842857D01*
X130719047Y-113890476D01*
X130861904Y-113985714D01*
X130957142Y-114128571D01*
X131004761Y-114319047D01*
X130957142Y-114509523D01*
X130861904Y-114652380D01*
X130719047Y-114747619D01*
X130528571Y-114795238D01*
X130338095Y-114747619D01*
X130195238Y-114652380D01*
X129242857Y-114604761D02*
X129338095Y-114652380D01*
X129528571Y-114652380D01*
X129623809Y-114604761D01*
X129671428Y-114557142D01*
X129719047Y-114461904D01*
X129719047Y-114176190D01*
X129671428Y-114080952D01*
X129623809Y-114033333D01*
X129528571Y-113985714D01*
X129338095Y-113985714D01*
X129242857Y-114033333D01*
X128814285Y-114652380D02*
X128814285Y-113985714D01*
X128814285Y-113652380D02*
X128861904Y-113700000D01*
X128814285Y-113747619D01*
X128766666Y-113700000D01*
X128814285Y-113652380D01*
X128814285Y-113747619D01*
X128338095Y-114652380D02*
X128338095Y-113652380D01*
X128338095Y-114033333D02*
X128242857Y-113985714D01*
X128052380Y-113985714D01*
X127957142Y-114033333D01*
X127909523Y-114080952D01*
X127861904Y-114176190D01*
X127861904Y-114461904D01*
X127909523Y-114557142D01*
X127957142Y-114604761D01*
X128052380Y-114652380D01*
X128242857Y-114652380D01*
X128338095Y-114604761D01*
X127528571Y-113985714D02*
X127290476Y-114652380D01*
X127052380Y-113985714D02*
X127290476Y-114652380D01*
X127385714Y-114890476D01*
X127433333Y-114938095D01*
X127528571Y-114985714D01*
X126671428Y-114652380D02*
X126671428Y-113985714D01*
X126671428Y-114176190D02*
X126623809Y-114080952D01*
X126576190Y-114033333D01*
X126480952Y-113985714D01*
X126385714Y-113985714D01*
X125433333Y-114176190D02*
X125480952Y-114128571D01*
X125576190Y-114080952D01*
X125671428Y-114080952D01*
X125766666Y-114128571D01*
X125814285Y-114176190D01*
X125861904Y-114271428D01*
X125861904Y-114366666D01*
X125814285Y-114461904D01*
X125766666Y-114509523D01*
X125671428Y-114557142D01*
X125576190Y-114557142D01*
X125480952Y-114509523D01*
X125433333Y-114461904D01*
X125433333Y-114080952D02*
X125433333Y-114461904D01*
X125385714Y-114509523D01*
X125338095Y-114509523D01*
X125242857Y-114461904D01*
X125195238Y-114366666D01*
X125195238Y-114128571D01*
X125290476Y-113985714D01*
X125433333Y-113890476D01*
X125623809Y-113842857D01*
X125814285Y-113890476D01*
X125957142Y-113985714D01*
X126052380Y-114128571D01*
X126100000Y-114319047D01*
X126052380Y-114509523D01*
X125957142Y-114652380D01*
X125814285Y-114747619D01*
X125623809Y-114795238D01*
X125433333Y-114747619D01*
X125290476Y-114652380D01*
X124623809Y-114652380D02*
X124719047Y-114604761D01*
X124766666Y-114557142D01*
X124814285Y-114461904D01*
X124814285Y-114176190D01*
X124766666Y-114080952D01*
X124719047Y-114033333D01*
X124623809Y-113985714D01*
X124480952Y-113985714D01*
X124385714Y-114033333D01*
X124338095Y-114080952D01*
X124290476Y-114176190D01*
X124290476Y-114461904D01*
X124338095Y-114557142D01*
X124385714Y-114604761D01*
X124480952Y-114652380D01*
X124623809Y-114652380D01*
X123861904Y-114652380D02*
X123861904Y-113985714D01*
X123861904Y-114080952D02*
X123814285Y-114033333D01*
X123719047Y-113985714D01*
X123576190Y-113985714D01*
X123480952Y-114033333D01*
X123433333Y-114128571D01*
X123433333Y-114652380D01*
X123433333Y-114128571D02*
X123385714Y-114033333D01*
X123290476Y-113985714D01*
X123147619Y-113985714D01*
X123052380Y-114033333D01*
X123004761Y-114128571D01*
X123004761Y-114652380D01*
X122100000Y-113985714D02*
X122100000Y-114795238D01*
X122147619Y-114890476D01*
X122195238Y-114938095D01*
X122290476Y-114985714D01*
X122433333Y-114985714D01*
X122528571Y-114938095D01*
X122100000Y-114604761D02*
X122195238Y-114652380D01*
X122385714Y-114652380D01*
X122480952Y-114604761D01*
X122528571Y-114557142D01*
X122576190Y-114461904D01*
X122576190Y-114176190D01*
X122528571Y-114080952D01*
X122480952Y-114033333D01*
X122385714Y-113985714D01*
X122195238Y-113985714D01*
X122100000Y-114033333D01*
X121623809Y-114557142D02*
X121576190Y-114604761D01*
X121623809Y-114652380D01*
X121671428Y-114604761D01*
X121623809Y-114557142D01*
X121623809Y-114652380D01*
X121242857Y-113985714D02*
X121052380Y-114652380D01*
X120861904Y-114176190D01*
X120671428Y-114652380D01*
X120480952Y-113985714D01*
X120242857Y-113985714D02*
X119861904Y-113985714D01*
X120100000Y-113652380D02*
X120100000Y-114509523D01*
X120052380Y-114604761D01*
X119957142Y-114652380D01*
X119861904Y-114652380D01*
X119671428Y-113985714D02*
X119290476Y-113985714D01*
X119528571Y-114652380D02*
X119528571Y-113795238D01*
X119480952Y-113700000D01*
X119385714Y-113652380D01*
X119290476Y-113652380D01*
X118957142Y-114557142D02*
X118909523Y-114604761D01*
X118957142Y-114652380D01*
X119004761Y-114604761D01*
X118957142Y-114557142D01*
X118957142Y-114652380D01*
X118528571Y-114604761D02*
X118433333Y-114652380D01*
X118242857Y-114652380D01*
X118147619Y-114604761D01*
X118100000Y-114509523D01*
X118100000Y-114461904D01*
X118147619Y-114366666D01*
X118242857Y-114319047D01*
X118385714Y-114319047D01*
X118480952Y-114271428D01*
X118528571Y-114176190D01*
X118528571Y-114128571D01*
X118480952Y-114033333D01*
X118385714Y-113985714D01*
X118242857Y-113985714D01*
X118147619Y-114033333D01*
X117671428Y-114652380D02*
X117671428Y-113652380D01*
X117242857Y-114652380D02*
X117242857Y-114128571D01*
X117290476Y-114033333D01*
X117385714Y-113985714D01*
X117528571Y-113985714D01*
X117623809Y-114033333D01*
X117671428Y-114080952D01*
X135692857Y-85391919D02*
X135764285Y-85597276D01*
X135835714Y-85659776D01*
X135978571Y-85713348D01*
X136192857Y-85686562D01*
X136335714Y-85597276D01*
X136407142Y-85516919D01*
X136478571Y-85365133D01*
X136478571Y-84793705D01*
X134978571Y-84981205D01*
X134978571Y-85481205D01*
X135050000Y-85615133D01*
X135121428Y-85677633D01*
X135264285Y-85731205D01*
X135407142Y-85713348D01*
X135550000Y-85624062D01*
X135621428Y-85543705D01*
X135692857Y-85391919D01*
X135692857Y-84891919D01*
X136407142Y-86874062D02*
X136478571Y-86722276D01*
X136478571Y-86436562D01*
X136407142Y-86302633D01*
X136264285Y-86249062D01*
X135692857Y-86320491D01*
X135550000Y-86409776D01*
X135478571Y-86561562D01*
X135478571Y-86847276D01*
X135550000Y-86981205D01*
X135692857Y-87034776D01*
X135835714Y-87016919D01*
X135978571Y-86284776D01*
X136407142Y-89302633D02*
X136478571Y-89150848D01*
X136478571Y-88865133D01*
X136407142Y-88731205D01*
X136264285Y-88677633D01*
X135692857Y-88749062D01*
X135550000Y-88838348D01*
X135478571Y-88990133D01*
X135478571Y-89275848D01*
X135550000Y-89409776D01*
X135692857Y-89463348D01*
X135835714Y-89445491D01*
X135978571Y-88713348D01*
X136478571Y-89865133D02*
X135478571Y-90775848D01*
X135478571Y-89990133D02*
X136478571Y-90650848D01*
X136407142Y-91874062D02*
X136478571Y-91722276D01*
X136478571Y-91436562D01*
X136407142Y-91302633D01*
X136335714Y-91240133D01*
X136192857Y-91186562D01*
X135764285Y-91240133D01*
X135621428Y-91329419D01*
X135550000Y-91409776D01*
X135478571Y-91561562D01*
X135478571Y-91847276D01*
X135550000Y-91981205D01*
X136407142Y-93088348D02*
X136478571Y-92936562D01*
X136478571Y-92650848D01*
X136407142Y-92516919D01*
X136264285Y-92463348D01*
X135692857Y-92534776D01*
X135550000Y-92624062D01*
X135478571Y-92775848D01*
X135478571Y-93061562D01*
X135550000Y-93195491D01*
X135692857Y-93249062D01*
X135835714Y-93231205D01*
X135978571Y-92499062D01*
X136478571Y-94007991D02*
X136407142Y-93874062D01*
X136264285Y-93820491D01*
X134978571Y-93981205D01*
X136478571Y-94793705D02*
X136407142Y-94659776D01*
X136264285Y-94606205D01*
X134978571Y-94766919D01*
X136407142Y-95945491D02*
X136478571Y-95793705D01*
X136478571Y-95507991D01*
X136407142Y-95374062D01*
X136264285Y-95320491D01*
X135692857Y-95391919D01*
X135550000Y-95481205D01*
X135478571Y-95632991D01*
X135478571Y-95918705D01*
X135550000Y-96052633D01*
X135692857Y-96106205D01*
X135835714Y-96088348D01*
X135978571Y-95356205D01*
X135478571Y-96775848D02*
X136478571Y-96650848D01*
X135621428Y-96757991D02*
X135550000Y-96838348D01*
X135478571Y-96990133D01*
X135478571Y-97204419D01*
X135550000Y-97338348D01*
X135692857Y-97391919D01*
X136478571Y-97293705D01*
X135478571Y-97918705D02*
X135478571Y-98490133D01*
X134978571Y-98195491D02*
X136264285Y-98034776D01*
X136407142Y-98088348D01*
X136478571Y-98222276D01*
X136478571Y-98365133D01*
X135478571Y-99918705D02*
X135478571Y-100490133D01*
X134978571Y-100195491D02*
X136264285Y-100034776D01*
X136407142Y-100088348D01*
X136478571Y-100222276D01*
X136478571Y-100365133D01*
X136478571Y-101079419D02*
X136407142Y-100945491D01*
X136335714Y-100882991D01*
X136192857Y-100829419D01*
X135764285Y-100882991D01*
X135621428Y-100972276D01*
X135550000Y-101052633D01*
X135478571Y-101204419D01*
X135478571Y-101418705D01*
X135550000Y-101552633D01*
X135621428Y-101615133D01*
X135764285Y-101668705D01*
X136192857Y-101615133D01*
X136335714Y-101525848D01*
X136407142Y-101445491D01*
X136478571Y-101293705D01*
X136478571Y-101079419D01*
X136407142Y-103945491D02*
X136478571Y-103793705D01*
X136478571Y-103507991D01*
X136407142Y-103374062D01*
X136264285Y-103320491D01*
X135692857Y-103391919D01*
X135550000Y-103481205D01*
X135478571Y-103632991D01*
X135478571Y-103918705D01*
X135550000Y-104052633D01*
X135692857Y-104106205D01*
X135835714Y-104088348D01*
X135978571Y-103356205D01*
X136478571Y-105293705D02*
X135692857Y-105391919D01*
X135550000Y-105338348D01*
X135478571Y-105204419D01*
X135478571Y-104918705D01*
X135550000Y-104766919D01*
X136407142Y-105302633D02*
X136478571Y-105150848D01*
X136478571Y-104793705D01*
X136407142Y-104659776D01*
X136264285Y-104606205D01*
X136121428Y-104624062D01*
X135978571Y-104713348D01*
X135907142Y-104865133D01*
X135907142Y-105222276D01*
X135835714Y-105374062D01*
X136407142Y-106659776D02*
X136478571Y-106507991D01*
X136478571Y-106222276D01*
X136407142Y-106088348D01*
X136335714Y-106025848D01*
X136192857Y-105972276D01*
X135764285Y-106025848D01*
X135621428Y-106115133D01*
X135550000Y-106195491D01*
X135478571Y-106347276D01*
X135478571Y-106632991D01*
X135550000Y-106766919D01*
X136478571Y-107293705D02*
X134978571Y-107481205D01*
X136478571Y-107936562D02*
X135692857Y-108034776D01*
X135550000Y-107981205D01*
X135478571Y-107847276D01*
X135478571Y-107632991D01*
X135550000Y-107481205D01*
X135621428Y-107400848D01*
X136478571Y-108865133D02*
X136407142Y-108731205D01*
X136335714Y-108668705D01*
X136192857Y-108615133D01*
X135764285Y-108668705D01*
X135621428Y-108757991D01*
X135550000Y-108838348D01*
X135478571Y-108990133D01*
X135478571Y-109204419D01*
X135550000Y-109338348D01*
X135621428Y-109400848D01*
X135764285Y-109454419D01*
X136192857Y-109400848D01*
X136335714Y-109311562D01*
X136407142Y-109231205D01*
X136478571Y-109079419D01*
X136478571Y-108865133D01*
X135478571Y-109918705D02*
X135478571Y-110490133D01*
X134978571Y-110195491D02*
X136264285Y-110034776D01*
X136407142Y-110088348D01*
X136478571Y-110222276D01*
X136478571Y-110365133D01*
X136478571Y-110865133D02*
X134978571Y-111052633D01*
X136478571Y-111507991D02*
X135692857Y-111606205D01*
X135550000Y-111552633D01*
X135478571Y-111418705D01*
X135478571Y-111204419D01*
X135550000Y-111052633D01*
X135621428Y-110972276D01*
X136407142Y-112802633D02*
X136478571Y-112650848D01*
X136478571Y-112365133D01*
X136407142Y-112231205D01*
X136264285Y-112177633D01*
X135692857Y-112249062D01*
X135550000Y-112338348D01*
X135478571Y-112490133D01*
X135478571Y-112775848D01*
X135550000Y-112909776D01*
X135692857Y-112963348D01*
X135835714Y-112945491D01*
X135978571Y-112213348D01*
X136478571Y-113507991D02*
X135478571Y-113632991D01*
X135764285Y-113597276D02*
X135621428Y-113686562D01*
X135550000Y-113766919D01*
X135478571Y-113918705D01*
X135478571Y-114061562D01*
X130995238Y-82247142D02*
X131042857Y-82294761D01*
X131185714Y-82342380D01*
X131280952Y-82342380D01*
X131423809Y-82294761D01*
X131519047Y-82199523D01*
X131566666Y-82104285D01*
X131614285Y-81913809D01*
X131614285Y-81770952D01*
X131566666Y-81580476D01*
X131519047Y-81485238D01*
X131423809Y-81390000D01*
X131280952Y-81342380D01*
X131185714Y-81342380D01*
X131042857Y-81390000D01*
X130995238Y-81437619D01*
X129995238Y-82247142D02*
X130042857Y-82294761D01*
X130185714Y-82342380D01*
X130280952Y-82342380D01*
X130423809Y-82294761D01*
X130519047Y-82199523D01*
X130566666Y-82104285D01*
X130614285Y-81913809D01*
X130614285Y-81770952D01*
X130566666Y-81580476D01*
X130519047Y-81485238D01*
X130423809Y-81390000D01*
X130280952Y-81342380D01*
X130185714Y-81342380D01*
X130042857Y-81390000D01*
X129995238Y-81437619D01*
X129042857Y-82342380D02*
X129614285Y-82342380D01*
X129328571Y-82342380D02*
X129328571Y-81342380D01*
X129423809Y-81485238D01*
X129519047Y-81580476D01*
X129614285Y-81628095D01*
X128090476Y-82342380D02*
X128661904Y-82342380D01*
X128376190Y-82342380D02*
X128376190Y-81342380D01*
X128471428Y-81485238D01*
X128566666Y-81580476D01*
X128661904Y-81628095D01*
X127471428Y-81342380D02*
X127376190Y-81342380D01*
X127280952Y-81390000D01*
X127233333Y-81437619D01*
X127185714Y-81532857D01*
X127138095Y-81723333D01*
X127138095Y-81961428D01*
X127185714Y-82151904D01*
X127233333Y-82247142D01*
X127280952Y-82294761D01*
X127376190Y-82342380D01*
X127471428Y-82342380D01*
X127566666Y-82294761D01*
X127614285Y-82247142D01*
X127661904Y-82151904D01*
X127709523Y-81961428D01*
X127709523Y-81723333D01*
X127661904Y-81532857D01*
X127614285Y-81437619D01*
X127566666Y-81390000D01*
X127471428Y-81342380D01*
X126185714Y-82342380D02*
X126757142Y-82342380D01*
X126471428Y-82342380D02*
X126471428Y-81342380D01*
X126566666Y-81485238D01*
X126661904Y-81580476D01*
X126757142Y-81628095D01*
X125757142Y-81961428D02*
X124995238Y-81961428D01*
X124519047Y-81818571D02*
X124185714Y-81818571D01*
X124042857Y-82342380D02*
X124519047Y-82342380D01*
X124519047Y-81342380D01*
X124042857Y-81342380D01*
X123661904Y-82294761D02*
X123519047Y-82342380D01*
X123280952Y-82342380D01*
X123185714Y-82294761D01*
X123138095Y-82247142D01*
X123090476Y-82151904D01*
X123090476Y-82056666D01*
X123138095Y-81961428D01*
X123185714Y-81913809D01*
X123280952Y-81866190D01*
X123471428Y-81818571D01*
X123566666Y-81770952D01*
X123614285Y-81723333D01*
X123661904Y-81628095D01*
X123661904Y-81532857D01*
X123614285Y-81437619D01*
X123566666Y-81390000D01*
X123471428Y-81342380D01*
X123233333Y-81342380D01*
X123090476Y-81390000D01*
X122661904Y-82342380D02*
X122661904Y-81342380D01*
X122280952Y-81342380D01*
X122185714Y-81390000D01*
X122138095Y-81437619D01*
X122090476Y-81532857D01*
X122090476Y-81675714D01*
X122138095Y-81770952D01*
X122185714Y-81818571D01*
X122280952Y-81866190D01*
X122661904Y-81866190D01*
X121661904Y-81961428D02*
X120900000Y-81961428D01*
X120423809Y-82342380D02*
X120423809Y-81342380D01*
X120423809Y-81818571D02*
X119852380Y-81818571D01*
X119852380Y-82342380D02*
X119852380Y-81342380D01*
X119423809Y-82056666D02*
X118947619Y-82056666D01*
X119519047Y-82342380D02*
X119185714Y-81342380D01*
X118852380Y-82342380D01*
X118661904Y-81342380D02*
X118090476Y-81342380D01*
X118376190Y-82342380D02*
X118376190Y-81342380D01*
X126328571Y-83285714D02*
X126090476Y-83952380D01*
X125852380Y-83285714D01*
X125280952Y-82952380D02*
X125185714Y-82952380D01*
X125090476Y-83000000D01*
X125042857Y-83047619D01*
X124995238Y-83142857D01*
X124947619Y-83333333D01*
X124947619Y-83571428D01*
X124995238Y-83761904D01*
X125042857Y-83857142D01*
X125090476Y-83904761D01*
X125185714Y-83952380D01*
X125280952Y-83952380D01*
X125376190Y-83904761D01*
X125423809Y-83857142D01*
X125471428Y-83761904D01*
X125519047Y-83571428D01*
X125519047Y-83333333D01*
X125471428Y-83142857D01*
X125423809Y-83047619D01*
X125376190Y-83000000D01*
X125280952Y-82952380D01*
X124519047Y-83857142D02*
X124471428Y-83904761D01*
X124519047Y-83952380D01*
X124566666Y-83904761D01*
X124519047Y-83857142D01*
X124519047Y-83952380D01*
X123519047Y-83952380D02*
X124090476Y-83952380D01*
X123804761Y-83952380D02*
X123804761Y-82952380D01*
X123900000Y-83095238D01*
X123995238Y-83190476D01*
X124090476Y-83238095D01*
X129757142Y-84657619D02*
X129709523Y-84610000D01*
X129614285Y-84562380D01*
X129376190Y-84562380D01*
X129280952Y-84610000D01*
X129233333Y-84657619D01*
X129185714Y-84752857D01*
X129185714Y-84848095D01*
X129233333Y-84990952D01*
X129804761Y-85562380D01*
X129185714Y-85562380D01*
X128566666Y-84562380D02*
X128471428Y-84562380D01*
X128376190Y-84610000D01*
X128328571Y-84657619D01*
X128280952Y-84752857D01*
X128233333Y-84943333D01*
X128233333Y-85181428D01*
X128280952Y-85371904D01*
X128328571Y-85467142D01*
X128376190Y-85514761D01*
X128471428Y-85562380D01*
X128566666Y-85562380D01*
X128661904Y-85514761D01*
X128709523Y-85467142D01*
X128757142Y-85371904D01*
X128804761Y-85181428D01*
X128804761Y-84943333D01*
X128757142Y-84752857D01*
X128709523Y-84657619D01*
X128661904Y-84610000D01*
X128566666Y-84562380D01*
X127852380Y-84657619D02*
X127804761Y-84610000D01*
X127709523Y-84562380D01*
X127471428Y-84562380D01*
X127376190Y-84610000D01*
X127328571Y-84657619D01*
X127280952Y-84752857D01*
X127280952Y-84848095D01*
X127328571Y-84990952D01*
X127900000Y-85562380D01*
X127280952Y-85562380D01*
X126423809Y-84895714D02*
X126423809Y-85562380D01*
X126661904Y-84514761D02*
X126900000Y-85229047D01*
X126280952Y-85229047D01*
X125900000Y-85181428D02*
X125138095Y-85181428D01*
X124471428Y-84562380D02*
X124376190Y-84562380D01*
X124280952Y-84610000D01*
X124233333Y-84657619D01*
X124185714Y-84752857D01*
X124138095Y-84943333D01*
X124138095Y-85181428D01*
X124185714Y-85371904D01*
X124233333Y-85467142D01*
X124280952Y-85514761D01*
X124376190Y-85562380D01*
X124471428Y-85562380D01*
X124566666Y-85514761D01*
X124614285Y-85467142D01*
X124661904Y-85371904D01*
X124709523Y-85181428D01*
X124709523Y-84943333D01*
X124661904Y-84752857D01*
X124614285Y-84657619D01*
X124566666Y-84610000D01*
X124471428Y-84562380D01*
X123757142Y-84657619D02*
X123709523Y-84610000D01*
X123614285Y-84562380D01*
X123376190Y-84562380D01*
X123280952Y-84610000D01*
X123233333Y-84657619D01*
X123185714Y-84752857D01*
X123185714Y-84848095D01*
X123233333Y-84990952D01*
X123804761Y-85562380D01*
X123185714Y-85562380D01*
X122757142Y-85181428D02*
X121995238Y-85181428D01*
X121566666Y-84657619D02*
X121519047Y-84610000D01*
X121423809Y-84562380D01*
X121185714Y-84562380D01*
X121090476Y-84610000D01*
X121042857Y-84657619D01*
X120995238Y-84752857D01*
X120995238Y-84848095D01*
X121042857Y-84990952D01*
X121614285Y-85562380D01*
X120995238Y-85562380D01*
X120090476Y-84562380D02*
X120566666Y-84562380D01*
X120614285Y-85038571D01*
X120566666Y-84990952D01*
X120471428Y-84943333D01*
X120233333Y-84943333D01*
X120138095Y-84990952D01*
X120090476Y-85038571D01*
X120042857Y-85133809D01*
X120042857Y-85371904D01*
X120090476Y-85467142D01*
X120138095Y-85514761D01*
X120233333Y-85562380D01*
X120471428Y-85562380D01*
X120566666Y-85514761D01*
X120614285Y-85467142D01*
%LPC*%
D11*
X136000000Y-117300000D03*
X119700000Y-117900000D03*
D12*
X114635000Y-77990000D03*
X139145000Y-124940000D03*
X114635000Y-124940000D03*
X139145000Y-77990000D03*
D13*
X114215000Y-85950000D03*
D14*
X114215000Y-88490000D03*
X114215000Y-91030000D03*
X114215000Y-93570000D03*
X114215000Y-96110000D03*
X114215000Y-98650000D03*
X114215000Y-101190000D03*
X114215000Y-103730000D03*
X114215000Y-106270000D03*
X114215000Y-108810000D03*
X114215000Y-111350000D03*
X114215000Y-113890000D03*
X114215000Y-116430000D03*
X114215000Y-118970000D03*
X114215000Y-121510000D03*
X139615000Y-121510000D03*
X139615000Y-118970000D03*
X139615000Y-116430000D03*
X139615000Y-113890000D03*
X139615000Y-111350000D03*
X139615000Y-108810000D03*
X139615000Y-106270000D03*
X139615000Y-103730000D03*
X139615000Y-101190000D03*
X139615000Y-98650000D03*
X139615000Y-96110000D03*
X139615000Y-93570000D03*
X139615000Y-91030000D03*
X139615000Y-88490000D03*
X139615000Y-85950000D03*
D15*
X122600000Y-77972500D03*
X117200000Y-77972500D03*
D11*
X131000000Y-78900000D03*
M02*
