M48
; DRILL file {KiCad 6.0.2+dfsg-1} date Sun 25 Feb 2024 09:37:29 PM PST
; FORMAT={-:-/ absolute / metric / decimal}
; #@! TF.CreationDate,2024-02-25T21:37:29-08:00
; #@! TF.GenerationSoftware,Kicad,Pcbnew,6.0.2+dfsg-1
; #@! TF.FileFunction,Plated,1,4,PTH
FMAT,2
METRIC
; #@! TA.AperFunction,Plated,PTH,ViaDrill
T1C0.300
; #@! TA.AperFunction,Plated,PTH,ComponentDrill
T2C1.020
%
G90
G05
T1
X113.5Y-80.1
X113.5Y-84.0
X115.1Y-92.4
X115.2Y-97.3
X115.7Y-80.1
X116.1Y-91.5
X116.1Y-98.0
X116.1Y-100.3
X116.1Y-108.4
X116.1Y-117.5
X116.3Y-102.6
X116.8Y-92.8
X117.2Y-80.4
X117.3Y-89.4
X117.3Y-94.3
X117.5Y-101.8
X118.5Y-80.4
X118.7Y-86.4
X118.7Y-89.4
X118.79Y-92.388
X119.474Y-99.7
X119.7Y-100.8
X119.974Y-98.9
X120.6Y-92.3
X120.6Y-100.8
X121.0Y-82.7
X121.0Y-84.9
X121.0Y-85.8
X121.0Y-88.3
X121.0Y-89.4
X121.1Y-80.6
X121.5Y-93.8
X121.6Y-100.8
X122.0Y-87.0
X122.1Y-83.8
X122.541Y-97.555
X122.6Y-80.4
X122.6Y-94.9
X123.1Y-89.8
X123.1Y-91.1
X123.2Y-92.4
X124.0Y-92.9
X124.2Y-78.0
X124.2Y-79.4
X124.7Y-95.6
X127.1Y-92.9
X129.3Y-95.6
X129.3Y-97.2
X136.8Y-76.9
X137.4Y-120.3
X137.5Y-87.0
X137.5Y-89.9
X137.9Y-97.3
X140.0Y-83.9
X140.1Y-80.4
T2
X114.215Y-85.95
X114.215Y-88.49
X114.215Y-91.03
X114.215Y-93.57
X114.215Y-96.11
X114.215Y-98.65
X114.215Y-101.19
X114.215Y-103.73
X114.215Y-106.27
X114.215Y-108.81
X114.215Y-111.35
X114.215Y-113.89
X114.215Y-116.43
X114.215Y-118.97
X114.215Y-121.51
X139.615Y-85.95
X139.615Y-88.49
X139.615Y-91.03
X139.615Y-93.57
X139.615Y-96.11
X139.615Y-98.65
X139.615Y-101.19
X139.615Y-103.73
X139.615Y-106.27
X139.615Y-108.81
X139.615Y-111.35
X139.615Y-113.89
X139.615Y-116.43
X139.615Y-118.97
X139.615Y-121.51
T0
M30
