G04 #@! TF.GenerationSoftware,KiCad,Pcbnew,6.0.2+dfsg-1*
G04 #@! TF.CreationDate,2024-02-25T21:37:03-08:00*
G04 #@! TF.ProjectId,cchat,63636861-742e-46b6-9963-61645f706362,rev?*
G04 #@! TF.SameCoordinates,Original*
G04 #@! TF.FileFunction,Copper,L1,Top*
G04 #@! TF.FilePolarity,Positive*
%FSLAX46Y46*%
G04 Gerber Fmt 4.6, Leading zero omitted, Abs format (unit mm)*
G04 Created by KiCad (PCBNEW 6.0.2+dfsg-1) date 2024-02-25 21:37:03*
%MOMM*%
%LPD*%
G01*
G04 APERTURE LIST*
G04 Aperture macros list*
%AMRoundRect*
0 Rectangle with rounded corners*
0 $1 Rounding radius*
0 $2 $3 $4 $5 $6 $7 $8 $9 X,Y pos of 4 corners*
0 Add a 4 corners polygon primitive as box body*
4,1,4,$2,$3,$4,$5,$6,$7,$8,$9,$2,$3,0*
0 Add four circle primitives for the rounded corners*
1,1,$1+$1,$2,$3*
1,1,$1+$1,$4,$5*
1,1,$1+$1,$6,$7*
1,1,$1+$1,$8,$9*
0 Add four rect primitives between the rounded corners*
20,1,$1+$1,$2,$3,$4,$5,0*
20,1,$1+$1,$4,$5,$6,$7,0*
20,1,$1+$1,$6,$7,$8,$9,0*
20,1,$1+$1,$8,$9,$2,$3,0*%
G04 Aperture macros list end*
G04 #@! TA.AperFunction,SMDPad,CuDef*
%ADD10RoundRect,0.140000X-0.140000X-0.170000X0.140000X-0.170000X0.140000X0.170000X-0.140000X0.170000X0*%
G04 #@! TD*
G04 #@! TA.AperFunction,SMDPad,CuDef*
%ADD11RoundRect,0.147500X0.172500X-0.147500X0.172500X0.147500X-0.172500X0.147500X-0.172500X-0.147500X0*%
G04 #@! TD*
G04 #@! TA.AperFunction,SMDPad,CuDef*
%ADD12RoundRect,0.140000X-0.170000X0.140000X-0.170000X-0.140000X0.170000X-0.140000X0.170000X0.140000X0*%
G04 #@! TD*
G04 #@! TA.AperFunction,ComponentPad*
%ADD13R,2.000000X2.000000*%
G04 #@! TD*
G04 #@! TA.AperFunction,ComponentPad*
%ADD14C,2.000000*%
G04 #@! TD*
G04 #@! TA.AperFunction,SMDPad,CuDef*
%ADD15RoundRect,0.135000X-0.185000X0.135000X-0.185000X-0.135000X0.185000X-0.135000X0.185000X0.135000X0*%
G04 #@! TD*
G04 #@! TA.AperFunction,SMDPad,CuDef*
%ADD16RoundRect,0.140000X0.170000X-0.140000X0.170000X0.140000X-0.170000X0.140000X-0.170000X-0.140000X0*%
G04 #@! TD*
G04 #@! TA.AperFunction,SMDPad,CuDef*
%ADD17R,1.110000X1.210000*%
G04 #@! TD*
G04 #@! TA.AperFunction,SMDPad,CuDef*
%ADD18RoundRect,0.147500X-0.147500X-0.172500X0.147500X-0.172500X0.147500X0.172500X-0.147500X0.172500X0*%
G04 #@! TD*
G04 #@! TA.AperFunction,SMDPad,CuDef*
%ADD19RoundRect,0.007800X0.122200X-0.512200X0.122200X0.512200X-0.122200X0.512200X-0.122200X-0.512200X0*%
G04 #@! TD*
G04 #@! TA.AperFunction,SMDPad,CuDef*
%ADD20RoundRect,0.007800X0.512200X0.122200X-0.512200X0.122200X-0.512200X-0.122200X0.512200X-0.122200X0*%
G04 #@! TD*
G04 #@! TA.AperFunction,SMDPad,CuDef*
%ADD21R,2.400000X2.400000*%
G04 #@! TD*
G04 #@! TA.AperFunction,SMDPad,CuDef*
%ADD22R,1.500000X3.500000*%
G04 #@! TD*
G04 #@! TA.AperFunction,SMDPad,CuDef*
%ADD23RoundRect,0.140000X0.140000X0.170000X-0.140000X0.170000X-0.140000X-0.170000X0.140000X-0.170000X0*%
G04 #@! TD*
G04 #@! TA.AperFunction,ViaPad*
%ADD24C,0.500000*%
G04 #@! TD*
G04 #@! TA.AperFunction,Conductor*
%ADD25C,0.250000*%
G04 #@! TD*
G04 #@! TA.AperFunction,Conductor*
%ADD26C,0.349300*%
G04 #@! TD*
G04 APERTURE END LIST*
D10*
X122620000Y-95600000D03*
X123580000Y-95600000D03*
D11*
X119900000Y-89385000D03*
X119900000Y-88415000D03*
D10*
X119900000Y-83800000D03*
X120860000Y-83800000D03*
D12*
X117500000Y-90520000D03*
X117500000Y-91480000D03*
D13*
X114215000Y-85950000D03*
D14*
X114215000Y-88490000D03*
X114215000Y-91030000D03*
X114215000Y-93570000D03*
X114215000Y-96110000D03*
X114215000Y-98650000D03*
X114215000Y-101190000D03*
X114215000Y-103730000D03*
X114215000Y-106270000D03*
X114215000Y-108810000D03*
X114215000Y-111350000D03*
X114215000Y-113890000D03*
X114215000Y-116430000D03*
X114215000Y-118970000D03*
X114215000Y-121510000D03*
X139615000Y-121510000D03*
X139615000Y-118970000D03*
X139615000Y-116430000D03*
X139615000Y-113890000D03*
X139615000Y-111350000D03*
X139615000Y-108810000D03*
X139615000Y-106270000D03*
X139615000Y-103730000D03*
X139615000Y-101190000D03*
X139615000Y-98650000D03*
X139615000Y-96110000D03*
X139615000Y-93570000D03*
X139615000Y-91030000D03*
X139615000Y-88490000D03*
X139615000Y-85950000D03*
D15*
X116200000Y-94490000D03*
X116200000Y-95510000D03*
D16*
X121900000Y-90380000D03*
X121900000Y-89420000D03*
D10*
X121120000Y-92900000D03*
X122080000Y-92900000D03*
D17*
X127950000Y-96750000D03*
X127950000Y-94450000D03*
X126250000Y-94450000D03*
X126250000Y-96750000D03*
D16*
X116200000Y-93480000D03*
X116200000Y-92520000D03*
X121600000Y-100200000D03*
X121600000Y-99240000D03*
D18*
X120915000Y-91400000D03*
X121885000Y-91400000D03*
D16*
X124700000Y-97180000D03*
X124700000Y-96220000D03*
X119900000Y-82680000D03*
X119900000Y-81720000D03*
D11*
X119900000Y-86000000D03*
X119900000Y-85030000D03*
D19*
X118400000Y-97970000D03*
X118900000Y-97970000D03*
X119400000Y-97970000D03*
X119900000Y-97970000D03*
X120400000Y-97970000D03*
D20*
X121270000Y-97100000D03*
X121270000Y-96600000D03*
X121270000Y-96100000D03*
X121270000Y-95600000D03*
X121270000Y-95100000D03*
D19*
X120400000Y-94230000D03*
X119900000Y-94230000D03*
X119400000Y-94230000D03*
X118900000Y-94230000D03*
X118400000Y-94230000D03*
D20*
X117530000Y-95100000D03*
X117530000Y-95600000D03*
X117530000Y-96100000D03*
X117530000Y-96600000D03*
X117530000Y-97100000D03*
D21*
X119400000Y-96100000D03*
D12*
X116100000Y-96420000D03*
X116100000Y-97380000D03*
D16*
X119900000Y-91480000D03*
X119900000Y-90520000D03*
D11*
X118700000Y-91485000D03*
X118700000Y-90515000D03*
D12*
X120600000Y-99220000D03*
X120600000Y-100180000D03*
D22*
X119900000Y-77972500D03*
X122600000Y-77972500D03*
X117200000Y-77972500D03*
D10*
X119920000Y-87200000D03*
X120880000Y-87200000D03*
D23*
X118380000Y-92800000D03*
X117420000Y-92800000D03*
D16*
X124700000Y-94980000D03*
X124700000Y-94020000D03*
D24*
X120600000Y-92300000D03*
X118790124Y-92387590D03*
X122600000Y-94900000D03*
X119974500Y-98900000D03*
X115100000Y-92400000D03*
X115200000Y-97300000D03*
X116300000Y-102600000D03*
X118700000Y-86400000D03*
X121000000Y-88300000D03*
X123200000Y-92400000D03*
X122000000Y-87000000D03*
X116100000Y-98000000D03*
X117300000Y-94300000D03*
X121000000Y-82700000D03*
X124200000Y-79400000D03*
X121100000Y-80600000D03*
X140100000Y-80400000D03*
X124200000Y-78000000D03*
X137400000Y-120300000D03*
X116100000Y-100300000D03*
X121000000Y-85800000D03*
X129300000Y-95600000D03*
X123100000Y-89800000D03*
X117200000Y-80400000D03*
X137500000Y-87000000D03*
X140000000Y-83900000D03*
X119700000Y-100800000D03*
X121000000Y-84900000D03*
X116800000Y-92800000D03*
X113500000Y-80100000D03*
X116100000Y-117500000D03*
X124700000Y-95600000D03*
X118700000Y-89400000D03*
X136800000Y-76900000D03*
X123100000Y-91100000D03*
X116100000Y-108400000D03*
X121000000Y-89400000D03*
X122600000Y-80400000D03*
X115700000Y-80100000D03*
X118500000Y-80400000D03*
X122100000Y-83800000D03*
X116100000Y-91500000D03*
X121600000Y-100800000D03*
X117300000Y-89400000D03*
X129300000Y-97200000D03*
X121500000Y-93800000D03*
X120600000Y-100800000D03*
X113500000Y-84000000D03*
X137900000Y-97300000D03*
X137500000Y-89900000D03*
X124000000Y-92900000D03*
X127100000Y-92900000D03*
X122541233Y-97554531D03*
X117500000Y-101800000D03*
X119474500Y-99700000D03*
D25*
X121270000Y-95600000D02*
X122620000Y-95600000D01*
X116180000Y-93480000D02*
X115100000Y-92400000D01*
X118900000Y-93320000D02*
X118380000Y-92800000D01*
X116259859Y-96420000D02*
X116579859Y-96100000D01*
X118400000Y-94230000D02*
X117650000Y-93480000D01*
X116080000Y-96420000D02*
X115200000Y-97300000D01*
X121020000Y-92720000D02*
X120600000Y-92300000D01*
X120400000Y-94230000D02*
X120400000Y-93620000D01*
X120294500Y-99220000D02*
X119974500Y-98900000D01*
X120400000Y-93620000D02*
X121120000Y-92900000D01*
X117530000Y-96100000D02*
X116579859Y-96100000D01*
X120454669Y-99220000D02*
X119900000Y-98665331D01*
X122620000Y-95600000D02*
X122620000Y-94920000D01*
X117650000Y-93480000D02*
X116200000Y-93480000D01*
X118380000Y-92797714D02*
X118790124Y-92387590D01*
X120294500Y-99220000D02*
X120600000Y-99220000D01*
X119900000Y-98665331D02*
X119900000Y-97970000D01*
X122620000Y-94920000D02*
X122600000Y-94900000D01*
X118900000Y-94230000D02*
X118900000Y-93320000D01*
X116390000Y-94300000D02*
X116200000Y-94490000D01*
X124700000Y-94980000D02*
X124700000Y-95600000D01*
X117530000Y-96600000D02*
X116886930Y-96600000D01*
X116480000Y-92800000D02*
X116200000Y-92520000D01*
X117530000Y-95100000D02*
X118400000Y-95100000D01*
X117530000Y-94530000D02*
X117300000Y-94300000D01*
X123580000Y-95600000D02*
X124700000Y-95600000D01*
X124700000Y-95600000D02*
X124700000Y-96220000D01*
X121600000Y-100200000D02*
X120620000Y-100200000D01*
X116800000Y-92800000D02*
X116480000Y-92800000D01*
X117300000Y-94300000D02*
X116390000Y-94300000D01*
X117530000Y-95100000D02*
X117530000Y-94530000D01*
X117420000Y-92800000D02*
X116800000Y-92800000D01*
X117530000Y-96600000D02*
X118900000Y-96600000D01*
X116886930Y-96600000D02*
X116106930Y-97380000D01*
X120400000Y-98040000D02*
X121600000Y-99240000D01*
X122350000Y-94020000D02*
X124700000Y-94020000D01*
X121270000Y-95100000D02*
X122350000Y-94020000D01*
X124700000Y-94020000D02*
X125820000Y-94020000D01*
X119900000Y-91480000D02*
X119900000Y-94230000D01*
X119900000Y-91480000D02*
X120835000Y-91480000D01*
D26*
X118700000Y-90515000D02*
X119895000Y-90515000D01*
X119900000Y-89385000D02*
X119900000Y-90520000D01*
X119920000Y-87200000D02*
X119920000Y-88395000D01*
X119900000Y-86000000D02*
X119900000Y-87180000D01*
X119900000Y-83800000D02*
X119900000Y-85030000D01*
X119900000Y-82680000D02*
X119900000Y-83800000D01*
X121885000Y-91400000D02*
X121885000Y-90395000D01*
X119900000Y-77972500D02*
X119900000Y-81720000D01*
D25*
X119400000Y-92185000D02*
X118700000Y-91485000D01*
X119400000Y-94230000D02*
X119400000Y-92185000D01*
X118700000Y-91485000D02*
X117505000Y-91485000D01*
X117530000Y-95600000D02*
X116290000Y-95600000D01*
X132515969Y-98129031D02*
X122299031Y-98129031D01*
X122299031Y-98129031D02*
X121270000Y-97100000D01*
X139615000Y-91030000D02*
X132515969Y-98129031D01*
X122491233Y-97216862D02*
X122491233Y-97504531D01*
X121874371Y-96600000D02*
X122491233Y-97216862D01*
X121270000Y-96600000D02*
X121874371Y-96600000D01*
X122491233Y-97504531D02*
X122541233Y-97554531D01*
X117530000Y-97100000D02*
X117530000Y-101770000D01*
X117530000Y-101770000D02*
X117500000Y-101800000D01*
X118400000Y-97970000D02*
X118400000Y-102085000D01*
X118400000Y-102085000D02*
X114215000Y-106270000D01*
X118900000Y-97970000D02*
X118900000Y-104125000D01*
X118900000Y-104125000D02*
X114215000Y-108810000D01*
X119400000Y-99625500D02*
X119474500Y-99700000D01*
X119400000Y-97970000D02*
X119400000Y-99625500D01*
X127950000Y-96750000D02*
X127020489Y-97679511D01*
X123090089Y-97180000D02*
X124700000Y-97180000D01*
X125199511Y-97679511D02*
X124700000Y-97180000D01*
X122100000Y-96100000D02*
X121270000Y-96100000D01*
X122100000Y-96100000D02*
X123180000Y-97180000D01*
X127020489Y-97679511D02*
X125199511Y-97679511D01*
X126250000Y-96750000D02*
X127950000Y-95050000D01*
X127950000Y-95050000D02*
X127950000Y-94450000D01*
G04 #@! TA.AperFunction,Conductor*
G36*
X138032147Y-93612924D02*
G01*
X138088983Y-93655471D01*
X138113727Y-93721093D01*
X138120465Y-93806711D01*
X138121619Y-93811518D01*
X138121620Y-93811524D01*
X138134201Y-93863927D01*
X138175895Y-94037594D01*
X138177788Y-94042165D01*
X138177789Y-94042167D01*
X138251406Y-94219894D01*
X138266760Y-94256963D01*
X138269346Y-94261183D01*
X138388241Y-94455202D01*
X138388245Y-94455208D01*
X138390824Y-94459416D01*
X138545031Y-94639969D01*
X138548787Y-94643177D01*
X138548792Y-94643182D01*
X138667056Y-94744189D01*
X138705866Y-94803639D01*
X138706372Y-94874634D01*
X138667056Y-94935811D01*
X138548792Y-95036818D01*
X138548787Y-95036823D01*
X138545031Y-95040031D01*
X138390824Y-95220584D01*
X138388245Y-95224792D01*
X138388241Y-95224798D01*
X138302622Y-95364516D01*
X138266760Y-95423037D01*
X138264867Y-95427607D01*
X138264865Y-95427611D01*
X138204582Y-95573148D01*
X138175895Y-95642406D01*
X138174740Y-95647218D01*
X138124283Y-95857387D01*
X138120465Y-95873289D01*
X138101835Y-96110000D01*
X138120465Y-96346711D01*
X138121619Y-96351518D01*
X138121620Y-96351524D01*
X138142306Y-96437687D01*
X138175895Y-96577594D01*
X138177788Y-96582165D01*
X138177789Y-96582167D01*
X138235695Y-96721964D01*
X138266760Y-96796963D01*
X138269346Y-96801183D01*
X138388241Y-96995202D01*
X138388245Y-96995208D01*
X138390824Y-96999416D01*
X138545031Y-97179969D01*
X138548787Y-97183177D01*
X138548792Y-97183182D01*
X138667056Y-97284189D01*
X138705866Y-97343639D01*
X138706372Y-97414634D01*
X138667056Y-97475811D01*
X138548792Y-97576818D01*
X138548787Y-97576823D01*
X138545031Y-97580031D01*
X138390824Y-97760584D01*
X138388245Y-97764792D01*
X138388241Y-97764798D01*
X138377336Y-97782594D01*
X138266760Y-97963037D01*
X138264867Y-97967607D01*
X138264865Y-97967611D01*
X138177789Y-98177833D01*
X138175895Y-98182406D01*
X138120465Y-98413289D01*
X138101835Y-98650000D01*
X138120465Y-98886711D01*
X138175895Y-99117594D01*
X138266760Y-99336963D01*
X138269346Y-99341183D01*
X138388241Y-99535202D01*
X138388245Y-99535208D01*
X138390824Y-99539416D01*
X138545031Y-99719969D01*
X138548787Y-99723177D01*
X138548792Y-99723182D01*
X138667056Y-99824189D01*
X138705866Y-99883639D01*
X138706372Y-99954634D01*
X138667056Y-100015811D01*
X138548792Y-100116818D01*
X138548787Y-100116823D01*
X138545031Y-100120031D01*
X138390824Y-100300584D01*
X138388245Y-100304792D01*
X138388241Y-100304798D01*
X138294791Y-100457295D01*
X138266760Y-100503037D01*
X138264867Y-100507607D01*
X138264865Y-100507611D01*
X138230000Y-100591784D01*
X138175895Y-100722406D01*
X138156640Y-100802609D01*
X138121633Y-100948424D01*
X138120465Y-100953289D01*
X138101835Y-101190000D01*
X138120465Y-101426711D01*
X138175895Y-101657594D01*
X138266760Y-101876963D01*
X138269346Y-101881183D01*
X138388241Y-102075202D01*
X138388245Y-102075208D01*
X138390824Y-102079416D01*
X138545031Y-102259969D01*
X138548787Y-102263177D01*
X138548792Y-102263182D01*
X138667056Y-102364189D01*
X138705866Y-102423639D01*
X138706372Y-102494634D01*
X138667056Y-102555811D01*
X138548792Y-102656818D01*
X138548787Y-102656823D01*
X138545031Y-102660031D01*
X138390824Y-102840584D01*
X138388245Y-102844792D01*
X138388241Y-102844798D01*
X138269346Y-103038817D01*
X138266760Y-103043037D01*
X138264867Y-103047607D01*
X138264865Y-103047611D01*
X138177789Y-103257833D01*
X138175895Y-103262406D01*
X138120465Y-103493289D01*
X138101835Y-103730000D01*
X138120465Y-103966711D01*
X138175895Y-104197594D01*
X138177788Y-104202165D01*
X138177789Y-104202167D01*
X138259242Y-104398812D01*
X138266760Y-104416963D01*
X138269346Y-104421183D01*
X138388241Y-104615202D01*
X138388245Y-104615208D01*
X138390824Y-104619416D01*
X138545031Y-104799969D01*
X138548787Y-104803177D01*
X138548792Y-104803182D01*
X138667056Y-104904189D01*
X138705866Y-104963639D01*
X138706372Y-105034634D01*
X138667056Y-105095811D01*
X138548792Y-105196818D01*
X138548787Y-105196823D01*
X138545031Y-105200031D01*
X138390824Y-105380584D01*
X138388245Y-105384792D01*
X138388241Y-105384798D01*
X138269346Y-105578817D01*
X138266760Y-105583037D01*
X138264867Y-105587607D01*
X138264865Y-105587611D01*
X138177789Y-105797833D01*
X138175895Y-105802406D01*
X138120465Y-106033289D01*
X138101835Y-106270000D01*
X138120465Y-106506711D01*
X138175895Y-106737594D01*
X138266760Y-106956963D01*
X138269346Y-106961183D01*
X138388241Y-107155202D01*
X138388245Y-107155208D01*
X138390824Y-107159416D01*
X138545031Y-107339969D01*
X138548787Y-107343177D01*
X138548792Y-107343182D01*
X138667056Y-107444189D01*
X138705866Y-107503639D01*
X138706372Y-107574634D01*
X138667056Y-107635811D01*
X138548792Y-107736818D01*
X138548787Y-107736823D01*
X138545031Y-107740031D01*
X138390824Y-107920584D01*
X138388245Y-107924792D01*
X138388241Y-107924798D01*
X138269346Y-108118817D01*
X138266760Y-108123037D01*
X138264867Y-108127607D01*
X138264865Y-108127611D01*
X138177789Y-108337833D01*
X138175895Y-108342406D01*
X138120465Y-108573289D01*
X138101835Y-108810000D01*
X138120465Y-109046711D01*
X138175895Y-109277594D01*
X138266760Y-109496963D01*
X138269346Y-109501183D01*
X138388241Y-109695202D01*
X138388245Y-109695208D01*
X138390824Y-109699416D01*
X138545031Y-109879969D01*
X138548787Y-109883177D01*
X138548792Y-109883182D01*
X138667056Y-109984189D01*
X138705866Y-110043639D01*
X138706372Y-110114634D01*
X138667056Y-110175811D01*
X138548792Y-110276818D01*
X138548787Y-110276823D01*
X138545031Y-110280031D01*
X138390824Y-110460584D01*
X138388245Y-110464792D01*
X138388241Y-110464798D01*
X138269346Y-110658817D01*
X138266760Y-110663037D01*
X138175895Y-110882406D01*
X138120465Y-111113289D01*
X138101835Y-111350000D01*
X138120465Y-111586711D01*
X138175895Y-111817594D01*
X138266760Y-112036963D01*
X138269346Y-112041183D01*
X138388241Y-112235202D01*
X138388245Y-112235208D01*
X138390824Y-112239416D01*
X138545031Y-112419969D01*
X138548787Y-112423177D01*
X138548792Y-112423182D01*
X138667056Y-112524189D01*
X138705866Y-112583639D01*
X138706372Y-112654634D01*
X138667056Y-112715811D01*
X138548792Y-112816818D01*
X138548787Y-112816823D01*
X138545031Y-112820031D01*
X138390824Y-113000584D01*
X138388245Y-113004792D01*
X138388241Y-113004798D01*
X138269346Y-113198817D01*
X138266760Y-113203037D01*
X138175895Y-113422406D01*
X138120465Y-113653289D01*
X138101835Y-113890000D01*
X138120465Y-114126711D01*
X138175895Y-114357594D01*
X138266760Y-114576963D01*
X138269346Y-114581183D01*
X138388241Y-114775202D01*
X138388245Y-114775208D01*
X138390824Y-114779416D01*
X138545031Y-114959969D01*
X138548787Y-114963177D01*
X138548792Y-114963182D01*
X138667056Y-115064189D01*
X138705866Y-115123639D01*
X138706372Y-115194634D01*
X138667056Y-115255811D01*
X138548792Y-115356818D01*
X138548787Y-115356823D01*
X138545031Y-115360031D01*
X138390824Y-115540584D01*
X138388245Y-115544792D01*
X138388241Y-115544798D01*
X138269346Y-115738817D01*
X138266760Y-115743037D01*
X138175895Y-115962406D01*
X138120465Y-116193289D01*
X138101835Y-116430000D01*
X138120465Y-116666711D01*
X138121619Y-116671518D01*
X138121620Y-116671524D01*
X138142125Y-116756931D01*
X138175895Y-116897594D01*
X138177788Y-116902165D01*
X138177789Y-116902167D01*
X138235702Y-117041981D01*
X138266760Y-117116963D01*
X138269346Y-117121183D01*
X138388241Y-117315202D01*
X138388245Y-117315208D01*
X138390824Y-117319416D01*
X138545031Y-117499969D01*
X138548787Y-117503177D01*
X138548792Y-117503182D01*
X138667056Y-117604189D01*
X138705866Y-117663639D01*
X138706372Y-117734634D01*
X138667056Y-117795811D01*
X138548792Y-117896818D01*
X138548787Y-117896823D01*
X138545031Y-117900031D01*
X138390824Y-118080584D01*
X138388245Y-118084792D01*
X138388241Y-118084798D01*
X138305686Y-118219516D01*
X138266760Y-118283037D01*
X138264867Y-118287607D01*
X138264865Y-118287611D01*
X138200473Y-118443069D01*
X138175895Y-118502406D01*
X138156640Y-118582609D01*
X138132201Y-118684406D01*
X138120465Y-118733289D01*
X138101835Y-118970000D01*
X138120465Y-119206711D01*
X138175895Y-119437594D01*
X138177788Y-119442165D01*
X138177789Y-119442167D01*
X138263368Y-119648773D01*
X138266760Y-119656963D01*
X138269346Y-119661183D01*
X138388241Y-119855202D01*
X138388245Y-119855208D01*
X138390824Y-119859416D01*
X138545031Y-120039969D01*
X138548787Y-120043177D01*
X138548792Y-120043182D01*
X138667056Y-120144189D01*
X138705866Y-120203639D01*
X138706372Y-120274634D01*
X138667056Y-120335811D01*
X138548792Y-120436818D01*
X138548787Y-120436823D01*
X138545031Y-120440031D01*
X138390824Y-120620584D01*
X138388245Y-120624792D01*
X138388241Y-120624798D01*
X138269346Y-120818817D01*
X138266760Y-120823037D01*
X138175895Y-121042406D01*
X138120465Y-121273289D01*
X138101835Y-121510000D01*
X138120465Y-121746711D01*
X138175895Y-121977594D01*
X138266760Y-122196963D01*
X138269346Y-122201183D01*
X138388241Y-122395202D01*
X138388245Y-122395208D01*
X138390824Y-122399416D01*
X138545031Y-122579969D01*
X138725584Y-122734176D01*
X138729799Y-122736759D01*
X138729802Y-122736761D01*
X138749026Y-122748542D01*
X138796657Y-122801190D01*
X138808263Y-122871232D01*
X138780159Y-122936429D01*
X138721268Y-122976082D01*
X138709392Y-122979220D01*
X138590030Y-123004591D01*
X138585901Y-123006094D01*
X138585897Y-123006095D01*
X138330219Y-123099154D01*
X138330215Y-123099156D01*
X138326074Y-123100663D01*
X138078058Y-123232536D01*
X138074499Y-123235122D01*
X138074497Y-123235123D01*
X137949933Y-123325624D01*
X137850808Y-123397642D01*
X137847644Y-123400698D01*
X137847641Y-123400700D01*
X137803949Y-123442893D01*
X137648748Y-123592769D01*
X137554070Y-123713952D01*
X137541979Y-123729428D01*
X137484278Y-123770794D01*
X137413372Y-123774397D01*
X137351775Y-123739094D01*
X137319565Y-123678621D01*
X136511332Y-119960747D01*
X136510020Y-119948170D01*
X136509640Y-119948222D01*
X136508421Y-119939324D01*
X136508476Y-119930348D01*
X136493915Y-119879398D01*
X136491942Y-119871551D01*
X136489608Y-119860815D01*
X136489608Y-119860814D01*
X136488657Y-119856441D01*
X136484746Y-119845934D01*
X136481696Y-119836650D01*
X136468488Y-119790435D01*
X136463697Y-119782842D01*
X136461591Y-119778134D01*
X136456338Y-119767520D01*
X136453883Y-119763010D01*
X136450753Y-119754601D01*
X136422031Y-119716087D01*
X136416476Y-119707999D01*
X136395630Y-119674961D01*
X136390840Y-119667369D01*
X136384113Y-119661428D01*
X136380794Y-119657528D01*
X136372734Y-119648773D01*
X136369126Y-119645148D01*
X136363760Y-119637953D01*
X136325363Y-119609034D01*
X136317780Y-119602845D01*
X136315045Y-119600429D01*
X136281772Y-119571044D01*
X136273648Y-119567229D01*
X136269360Y-119564413D01*
X136259180Y-119558280D01*
X136254696Y-119555811D01*
X136247524Y-119550410D01*
X136202586Y-119533443D01*
X136193547Y-119529621D01*
X136158180Y-119513016D01*
X136158173Y-119513014D01*
X136150052Y-119509201D01*
X136141182Y-119507820D01*
X136136265Y-119506317D01*
X136124797Y-119503294D01*
X136119784Y-119502179D01*
X136111390Y-119499010D01*
X136063484Y-119495336D01*
X136053739Y-119494205D01*
X136044384Y-119492748D01*
X136044379Y-119492748D01*
X136039577Y-119492000D01*
X136024807Y-119492000D01*
X136015172Y-119491631D01*
X136013543Y-119491506D01*
X136009674Y-119491209D01*
X135975249Y-119488569D01*
X135975247Y-119488569D01*
X135966301Y-119487883D01*
X135957523Y-119489735D01*
X135951613Y-119490124D01*
X135933639Y-119492000D01*
X117872772Y-119492000D01*
X117861626Y-119491506D01*
X117854134Y-119490841D01*
X117845400Y-119488788D01*
X117836442Y-119489269D01*
X117836440Y-119489269D01*
X117788979Y-119491819D01*
X117782220Y-119492000D01*
X117763523Y-119492000D01*
X117759083Y-119492636D01*
X117759082Y-119492636D01*
X117755798Y-119493106D01*
X117744695Y-119494198D01*
X117709058Y-119496112D01*
X117709055Y-119496113D01*
X117700094Y-119496594D01*
X117691627Y-119499571D01*
X117691624Y-119499572D01*
X117690232Y-119500062D01*
X117666302Y-119505923D01*
X117655955Y-119507405D01*
X117647789Y-119511118D01*
X117647785Y-119511119D01*
X117615297Y-119525891D01*
X117604964Y-119530048D01*
X117562821Y-119544868D01*
X117554720Y-119550683D01*
X117554335Y-119550960D01*
X117533002Y-119563308D01*
X117523490Y-119567633D01*
X117516696Y-119573487D01*
X117516693Y-119573489D01*
X117489653Y-119596788D01*
X117480891Y-119603686D01*
X117444614Y-119629730D01*
X117439080Y-119636807D01*
X117438176Y-119637962D01*
X117421174Y-119655794D01*
X117413253Y-119662619D01*
X117408373Y-119670147D01*
X117408372Y-119670149D01*
X117388959Y-119700101D01*
X117382495Y-119709168D01*
X117354976Y-119744359D01*
X117351109Y-119754064D01*
X117339790Y-119775959D01*
X117334107Y-119784727D01*
X117321305Y-119827534D01*
X117317643Y-119838053D01*
X117313591Y-119848223D01*
X117312507Y-119852964D01*
X117312506Y-119852968D01*
X117309561Y-119865849D01*
X117307450Y-119873860D01*
X117292413Y-119924141D01*
X117292358Y-119933118D01*
X117291031Y-119941998D01*
X117290719Y-119941951D01*
X117289226Y-119954818D01*
X116444156Y-123652001D01*
X116409478Y-123713952D01*
X116346812Y-123747320D01*
X116276053Y-123741511D01*
X116222582Y-123701903D01*
X116221585Y-123700424D01*
X116201954Y-123678621D01*
X116036566Y-123494940D01*
X116033629Y-123491678D01*
X115818450Y-123311121D01*
X115580236Y-123162269D01*
X115323625Y-123048018D01*
X115194977Y-123011129D01*
X115100667Y-122984086D01*
X115040698Y-122946082D01*
X115010796Y-122881690D01*
X115020453Y-122811353D01*
X115069563Y-122755534D01*
X115100197Y-122736762D01*
X115100202Y-122736758D01*
X115104416Y-122734176D01*
X115284969Y-122579969D01*
X115439176Y-122399416D01*
X115441755Y-122395208D01*
X115441759Y-122395202D01*
X115560654Y-122201183D01*
X115563240Y-122196963D01*
X115654105Y-121977594D01*
X115709535Y-121746711D01*
X115728165Y-121510000D01*
X115709535Y-121273289D01*
X115654105Y-121042406D01*
X115563240Y-120823037D01*
X115560654Y-120818817D01*
X115441759Y-120624798D01*
X115441755Y-120624792D01*
X115439176Y-120620584D01*
X115284969Y-120440031D01*
X115281213Y-120436823D01*
X115281208Y-120436818D01*
X115162944Y-120335811D01*
X115124134Y-120276361D01*
X115123628Y-120205366D01*
X115162944Y-120144189D01*
X115281208Y-120043182D01*
X115281213Y-120043177D01*
X115284969Y-120039969D01*
X115439176Y-119859416D01*
X115441755Y-119855208D01*
X115441759Y-119855202D01*
X115560654Y-119661183D01*
X115563240Y-119656963D01*
X115566633Y-119648773D01*
X115652211Y-119442167D01*
X115652212Y-119442165D01*
X115654105Y-119437594D01*
X115709535Y-119206711D01*
X115728165Y-118970000D01*
X115709535Y-118733289D01*
X115697800Y-118684406D01*
X115673360Y-118582609D01*
X115654105Y-118502406D01*
X115629527Y-118443069D01*
X115565135Y-118287611D01*
X115565133Y-118287607D01*
X115563240Y-118283037D01*
X115524314Y-118219516D01*
X115441759Y-118084798D01*
X115441755Y-118084792D01*
X115439176Y-118080584D01*
X115284969Y-117900031D01*
X115281213Y-117896823D01*
X115281208Y-117896818D01*
X115222622Y-117846781D01*
X118611868Y-117846781D01*
X118621436Y-118053502D01*
X118622840Y-118059327D01*
X118622840Y-118059328D01*
X118660784Y-118216770D01*
X118669921Y-118254685D01*
X118672403Y-118260143D01*
X118672404Y-118260147D01*
X118696531Y-118313211D01*
X118755574Y-118443069D01*
X118875305Y-118611858D01*
X118879628Y-118615996D01*
X118879632Y-118616001D01*
X118959694Y-118692643D01*
X119024792Y-118754961D01*
X119029827Y-118758212D01*
X119193606Y-118863963D01*
X119193609Y-118863964D01*
X119198643Y-118867215D01*
X119390584Y-118944570D01*
X119396465Y-118945718D01*
X119396470Y-118945720D01*
X119589244Y-118983366D01*
X119589247Y-118983366D01*
X119593690Y-118984234D01*
X119599129Y-118984500D01*
X119751704Y-118984500D01*
X119906007Y-118969778D01*
X119922055Y-118965070D01*
X120098827Y-118913211D01*
X120098829Y-118913210D01*
X120104580Y-118911523D01*
X120186257Y-118869457D01*
X120283225Y-118819516D01*
X120283228Y-118819514D01*
X120288556Y-118816770D01*
X120451294Y-118688937D01*
X120586924Y-118532637D01*
X120690552Y-118353510D01*
X120758438Y-118158019D01*
X120759483Y-118150816D01*
X120787271Y-117959159D01*
X120787271Y-117959156D01*
X120788132Y-117953219D01*
X120778564Y-117746498D01*
X120730079Y-117545315D01*
X120710923Y-117503182D01*
X120646906Y-117362386D01*
X120644426Y-117356931D01*
X120566291Y-117246781D01*
X134911868Y-117246781D01*
X134921436Y-117453502D01*
X134922840Y-117459327D01*
X134922840Y-117459328D01*
X134947990Y-117563683D01*
X134969921Y-117654685D01*
X134972403Y-117660143D01*
X134972404Y-117660147D01*
X135007057Y-117736361D01*
X135055574Y-117843069D01*
X135175305Y-118011858D01*
X135179628Y-118015996D01*
X135179632Y-118016001D01*
X135259694Y-118092643D01*
X135324792Y-118154961D01*
X135329827Y-118158212D01*
X135493606Y-118263963D01*
X135493609Y-118263964D01*
X135498643Y-118267215D01*
X135690584Y-118344570D01*
X135696465Y-118345718D01*
X135696470Y-118345720D01*
X135889244Y-118383366D01*
X135889247Y-118383366D01*
X135893690Y-118384234D01*
X135899129Y-118384500D01*
X136051704Y-118384500D01*
X136206007Y-118369778D01*
X136280780Y-118347842D01*
X136398827Y-118313211D01*
X136398829Y-118313210D01*
X136404580Y-118311523D01*
X136409914Y-118308776D01*
X136583225Y-118219516D01*
X136583228Y-118219514D01*
X136588556Y-118216770D01*
X136751294Y-118088937D01*
X136758543Y-118080584D01*
X136882992Y-117937168D01*
X136886924Y-117932637D01*
X136990552Y-117753510D01*
X137058438Y-117558019D01*
X137059435Y-117551148D01*
X137087271Y-117359159D01*
X137087271Y-117359156D01*
X137088132Y-117353219D01*
X137078564Y-117146498D01*
X137040109Y-116986934D01*
X137031485Y-116951148D01*
X137031484Y-116951146D01*
X137030079Y-116945315D01*
X137005486Y-116891224D01*
X136946906Y-116762386D01*
X136944426Y-116756931D01*
X136824695Y-116588142D01*
X136820372Y-116584004D01*
X136820368Y-116583999D01*
X136679538Y-116449184D01*
X136675208Y-116445039D01*
X136575230Y-116380484D01*
X136506394Y-116336037D01*
X136506391Y-116336036D01*
X136501357Y-116332785D01*
X136309416Y-116255430D01*
X136303535Y-116254282D01*
X136303530Y-116254280D01*
X136110756Y-116216634D01*
X136110753Y-116216634D01*
X136106310Y-116215766D01*
X136100871Y-116215500D01*
X135948296Y-116215500D01*
X135793993Y-116230222D01*
X135788239Y-116231910D01*
X135601173Y-116286789D01*
X135601171Y-116286790D01*
X135595420Y-116288477D01*
X135590087Y-116291223D01*
X135590086Y-116291224D01*
X135416775Y-116380484D01*
X135416772Y-116380486D01*
X135411444Y-116383230D01*
X135248706Y-116511063D01*
X135113076Y-116667363D01*
X135009448Y-116846490D01*
X134941562Y-117041981D01*
X134940702Y-117047914D01*
X134940701Y-117047917D01*
X134912729Y-117240841D01*
X134911868Y-117246781D01*
X120566291Y-117246781D01*
X120524695Y-117188142D01*
X120520372Y-117184004D01*
X120520368Y-117183999D01*
X120379538Y-117049184D01*
X120375208Y-117045039D01*
X120275230Y-116980484D01*
X120206394Y-116936037D01*
X120206391Y-116936036D01*
X120201357Y-116932785D01*
X120009416Y-116855430D01*
X120003535Y-116854282D01*
X120003530Y-116854280D01*
X119810756Y-116816634D01*
X119810753Y-116816634D01*
X119806310Y-116815766D01*
X119800871Y-116815500D01*
X119648296Y-116815500D01*
X119493993Y-116830222D01*
X119488239Y-116831910D01*
X119301173Y-116886789D01*
X119301171Y-116886790D01*
X119295420Y-116888477D01*
X119290087Y-116891223D01*
X119290086Y-116891224D01*
X119116775Y-116980484D01*
X119116772Y-116980486D01*
X119111444Y-116983230D01*
X118948706Y-117111063D01*
X118813076Y-117267363D01*
X118709448Y-117446490D01*
X118641562Y-117641981D01*
X118640702Y-117647914D01*
X118640701Y-117647917D01*
X118625391Y-117753510D01*
X118611868Y-117846781D01*
X115222622Y-117846781D01*
X115162944Y-117795811D01*
X115124134Y-117736361D01*
X115123628Y-117665366D01*
X115162944Y-117604189D01*
X115281208Y-117503182D01*
X115281213Y-117503177D01*
X115284969Y-117499969D01*
X115439176Y-117319416D01*
X115441755Y-117315208D01*
X115441759Y-117315202D01*
X115560654Y-117121183D01*
X115563240Y-117116963D01*
X115594299Y-117041981D01*
X115652211Y-116902167D01*
X115652212Y-116902165D01*
X115654105Y-116897594D01*
X115687875Y-116756931D01*
X115708380Y-116671524D01*
X115708381Y-116671518D01*
X115709535Y-116666711D01*
X115728165Y-116430000D01*
X115709535Y-116193289D01*
X115654105Y-115962406D01*
X115563240Y-115743037D01*
X115560654Y-115738817D01*
X115441759Y-115544798D01*
X115441755Y-115544792D01*
X115439176Y-115540584D01*
X115284969Y-115360031D01*
X115281213Y-115356823D01*
X115281208Y-115356818D01*
X115162944Y-115255811D01*
X115124134Y-115196361D01*
X115123628Y-115125366D01*
X115162944Y-115064189D01*
X115281208Y-114963182D01*
X115281213Y-114963177D01*
X115284969Y-114959969D01*
X115439176Y-114779416D01*
X115441755Y-114775208D01*
X115441759Y-114775202D01*
X115560654Y-114581183D01*
X115563240Y-114576963D01*
X115654105Y-114357594D01*
X115709535Y-114126711D01*
X115728165Y-113890000D01*
X115709535Y-113653289D01*
X115654105Y-113422406D01*
X115563240Y-113203037D01*
X115560654Y-113198817D01*
X115441759Y-113004798D01*
X115441755Y-113004792D01*
X115439176Y-113000584D01*
X115284969Y-112820031D01*
X115281213Y-112816823D01*
X115281208Y-112816818D01*
X115162944Y-112715811D01*
X115124134Y-112656361D01*
X115123628Y-112585366D01*
X115162944Y-112524189D01*
X115281208Y-112423182D01*
X115281213Y-112423177D01*
X115284969Y-112419969D01*
X115439176Y-112239416D01*
X115441755Y-112235208D01*
X115441759Y-112235202D01*
X115560654Y-112041183D01*
X115563240Y-112036963D01*
X115654105Y-111817594D01*
X115709535Y-111586711D01*
X115728165Y-111350000D01*
X115709535Y-111113289D01*
X115654105Y-110882406D01*
X115563240Y-110663037D01*
X115560654Y-110658817D01*
X115441759Y-110464798D01*
X115441755Y-110464792D01*
X115439176Y-110460584D01*
X115284969Y-110280031D01*
X115281213Y-110276823D01*
X115281208Y-110276818D01*
X115162944Y-110175811D01*
X115124134Y-110116361D01*
X115123628Y-110045366D01*
X115162944Y-109984189D01*
X115281208Y-109883182D01*
X115281213Y-109883177D01*
X115284969Y-109879969D01*
X115439176Y-109699416D01*
X115441755Y-109695208D01*
X115441759Y-109695202D01*
X115560654Y-109501183D01*
X115563240Y-109496963D01*
X115654105Y-109277594D01*
X115709535Y-109046711D01*
X115728165Y-108810000D01*
X115709535Y-108573289D01*
X115655940Y-108350049D01*
X115659487Y-108279141D01*
X115689364Y-108231540D01*
X119292247Y-104628657D01*
X119300537Y-104621113D01*
X119307018Y-104617000D01*
X119353659Y-104567332D01*
X119356413Y-104564491D01*
X119376135Y-104544769D01*
X119378612Y-104541576D01*
X119386317Y-104532555D01*
X119411159Y-104506100D01*
X119416586Y-104500321D01*
X119420407Y-104493371D01*
X119426346Y-104482568D01*
X119437202Y-104466041D01*
X119444757Y-104456302D01*
X119444758Y-104456300D01*
X119449614Y-104450040D01*
X119467174Y-104409460D01*
X119472391Y-104398812D01*
X119489875Y-104367009D01*
X119489876Y-104367007D01*
X119493695Y-104360060D01*
X119498733Y-104340437D01*
X119505137Y-104321734D01*
X119510033Y-104310420D01*
X119510033Y-104310419D01*
X119513181Y-104303145D01*
X119514420Y-104295322D01*
X119514423Y-104295312D01*
X119520099Y-104259476D01*
X119522505Y-104247856D01*
X119531528Y-104212711D01*
X119531528Y-104212710D01*
X119533500Y-104205030D01*
X119533500Y-104184776D01*
X119535051Y-104165065D01*
X119536980Y-104152886D01*
X119538220Y-104145057D01*
X119534059Y-104101038D01*
X119533500Y-104089181D01*
X119533500Y-100569065D01*
X119553502Y-100500944D01*
X119607158Y-100454451D01*
X119627756Y-100447730D01*
X119627983Y-100447709D01*
X119654479Y-100439100D01*
X119725444Y-100437072D01*
X119786243Y-100473734D01*
X119814411Y-100523781D01*
X119828356Y-100571782D01*
X119834604Y-100586220D01*
X119909876Y-100713499D01*
X119919516Y-100725926D01*
X120024074Y-100830484D01*
X120036501Y-100840124D01*
X120163780Y-100915396D01*
X120178216Y-100921643D01*
X120321641Y-100963312D01*
X120329609Y-100964768D01*
X120343031Y-100961948D01*
X120346000Y-100950487D01*
X120346000Y-100948424D01*
X120854000Y-100948424D01*
X120858344Y-100963219D01*
X120868775Y-100965063D01*
X120878359Y-100963312D01*
X121021780Y-100921644D01*
X121031430Y-100917468D01*
X121101892Y-100908771D01*
X121145610Y-100924651D01*
X121163776Y-100935394D01*
X121178216Y-100941643D01*
X121321641Y-100983312D01*
X121329609Y-100984768D01*
X121343031Y-100981948D01*
X121346000Y-100970487D01*
X121346000Y-100968424D01*
X121854000Y-100968424D01*
X121858344Y-100983219D01*
X121868775Y-100985063D01*
X121878359Y-100983312D01*
X122021784Y-100941643D01*
X122036220Y-100935396D01*
X122163499Y-100860124D01*
X122175926Y-100850484D01*
X122280484Y-100745926D01*
X122290124Y-100733499D01*
X122365396Y-100606220D01*
X122371643Y-100591784D01*
X122406619Y-100471395D01*
X122406579Y-100457295D01*
X122399309Y-100454000D01*
X121872115Y-100454000D01*
X121856876Y-100458475D01*
X121855671Y-100459865D01*
X121854000Y-100467548D01*
X121854000Y-100968424D01*
X121346000Y-100968424D01*
X121346000Y-100472115D01*
X121341525Y-100456876D01*
X121340135Y-100455671D01*
X121332452Y-100454000D01*
X120872115Y-100454000D01*
X120856876Y-100458475D01*
X120855671Y-100459865D01*
X120854000Y-100467548D01*
X120854000Y-100948424D01*
X120346000Y-100948424D01*
X120346000Y-100134500D01*
X120366002Y-100066379D01*
X120419658Y-100019886D01*
X120472000Y-100008500D01*
X120835484Y-100008500D01*
X120837932Y-100008307D01*
X120837940Y-100008307D01*
X120865844Y-100006111D01*
X120865849Y-100006110D01*
X120872254Y-100005606D01*
X121011282Y-99965215D01*
X121021984Y-99962106D01*
X121021986Y-99962105D01*
X121029597Y-99959894D01*
X121033104Y-99957820D01*
X121101865Y-99949334D01*
X121145582Y-99965215D01*
X121170403Y-99979894D01*
X121178014Y-99982105D01*
X121178016Y-99982106D01*
X121228995Y-99996916D01*
X121327746Y-100025606D01*
X121334151Y-100026110D01*
X121334156Y-100026111D01*
X121362060Y-100028307D01*
X121362068Y-100028307D01*
X121364516Y-100028500D01*
X121835484Y-100028500D01*
X121837932Y-100028307D01*
X121837940Y-100028307D01*
X121865844Y-100026111D01*
X121865849Y-100026110D01*
X121872254Y-100025606D01*
X121971005Y-99996916D01*
X122021984Y-99982106D01*
X122021986Y-99982105D01*
X122029597Y-99979894D01*
X122057240Y-99963546D01*
X122121379Y-99946000D01*
X122393558Y-99946000D01*
X122407089Y-99942027D01*
X122408224Y-99934129D01*
X122371643Y-99808216D01*
X122365395Y-99793778D01*
X122359984Y-99784628D01*
X122342526Y-99715812D01*
X122359985Y-99656353D01*
X122365857Y-99646423D01*
X122369894Y-99639597D01*
X122415606Y-99482254D01*
X122418500Y-99445484D01*
X122418500Y-99034516D01*
X122415606Y-98997746D01*
X122413813Y-98991574D01*
X122413812Y-98991569D01*
X122394089Y-98923684D01*
X122394292Y-98852688D01*
X122432846Y-98793071D01*
X122497511Y-98763763D01*
X122515086Y-98762531D01*
X132437202Y-98762531D01*
X132448385Y-98763058D01*
X132455878Y-98764733D01*
X132463804Y-98764484D01*
X132463805Y-98764484D01*
X132523955Y-98762593D01*
X132527914Y-98762531D01*
X132555825Y-98762531D01*
X132559760Y-98762034D01*
X132559825Y-98762026D01*
X132571662Y-98761093D01*
X132603920Y-98760079D01*
X132607939Y-98759953D01*
X132615858Y-98759704D01*
X132635312Y-98754052D01*
X132654669Y-98750044D01*
X132666899Y-98748499D01*
X132666900Y-98748499D01*
X132674766Y-98747505D01*
X132682137Y-98744586D01*
X132682139Y-98744586D01*
X132715881Y-98731227D01*
X132727111Y-98727382D01*
X132761952Y-98717260D01*
X132761953Y-98717260D01*
X132769562Y-98715049D01*
X132776381Y-98711016D01*
X132776386Y-98711014D01*
X132786997Y-98704738D01*
X132804745Y-98696043D01*
X132823586Y-98688583D01*
X132859356Y-98662595D01*
X132869276Y-98656079D01*
X132900504Y-98637611D01*
X132900507Y-98637609D01*
X132907331Y-98633573D01*
X132921652Y-98619252D01*
X132936686Y-98606411D01*
X132946663Y-98599162D01*
X132953076Y-98594503D01*
X132981267Y-98560426D01*
X132989257Y-98551647D01*
X137899020Y-93641885D01*
X137961332Y-93607859D01*
X138032147Y-93612924D01*
G37*
G04 #@! TD.AperFunction*
G04 #@! TA.AperFunction,Conductor*
G36*
X116272033Y-97228040D02*
G01*
X116328868Y-97270587D01*
X116353679Y-97337108D01*
X116354000Y-97346096D01*
X116354000Y-98148424D01*
X116358344Y-98163219D01*
X116368775Y-98165063D01*
X116378359Y-98163312D01*
X116521784Y-98121643D01*
X116536220Y-98115396D01*
X116663499Y-98040124D01*
X116675926Y-98030484D01*
X116681405Y-98025005D01*
X116743717Y-97990979D01*
X116814532Y-97996044D01*
X116871368Y-98038591D01*
X116896179Y-98105111D01*
X116896500Y-98114100D01*
X116896500Y-101299087D01*
X116876411Y-101367343D01*
X116816304Y-101460610D01*
X116758103Y-101620516D01*
X116736775Y-101789343D01*
X116753381Y-101958699D01*
X116807094Y-102120167D01*
X116810741Y-102126189D01*
X116810742Y-102126191D01*
X116889487Y-102256213D01*
X116895246Y-102265723D01*
X117013455Y-102388132D01*
X117012932Y-102388637D01*
X117049673Y-102443034D01*
X117051296Y-102514012D01*
X117018715Y-102570381D01*
X115930980Y-103658115D01*
X115868668Y-103692141D01*
X115797852Y-103687076D01*
X115741017Y-103644529D01*
X115716273Y-103578906D01*
X115709923Y-103498223D01*
X115709535Y-103493289D01*
X115654105Y-103262406D01*
X115652211Y-103257833D01*
X115565135Y-103047611D01*
X115565133Y-103047607D01*
X115563240Y-103043037D01*
X115560654Y-103038817D01*
X115441759Y-102844798D01*
X115441755Y-102844792D01*
X115439176Y-102840584D01*
X115284969Y-102660031D01*
X115281213Y-102656823D01*
X115281208Y-102656818D01*
X115162944Y-102555811D01*
X115124134Y-102496361D01*
X115123628Y-102425366D01*
X115162944Y-102364189D01*
X115281208Y-102263182D01*
X115281213Y-102263177D01*
X115284969Y-102259969D01*
X115439176Y-102079416D01*
X115441755Y-102075208D01*
X115441759Y-102075202D01*
X115560654Y-101881183D01*
X115563240Y-101876963D01*
X115654105Y-101657594D01*
X115709535Y-101426711D01*
X115728165Y-101190000D01*
X115709535Y-100953289D01*
X115708368Y-100948424D01*
X115673360Y-100802609D01*
X115654105Y-100722406D01*
X115600000Y-100591784D01*
X115565135Y-100507611D01*
X115565133Y-100507607D01*
X115563240Y-100503037D01*
X115535209Y-100457295D01*
X115441759Y-100304798D01*
X115441755Y-100304792D01*
X115439176Y-100300584D01*
X115284969Y-100120031D01*
X115281213Y-100116823D01*
X115281208Y-100116818D01*
X115162944Y-100015811D01*
X115124134Y-99956361D01*
X115123628Y-99885366D01*
X115162944Y-99824189D01*
X115281208Y-99723182D01*
X115281213Y-99723177D01*
X115284969Y-99719969D01*
X115439176Y-99539416D01*
X115441755Y-99535208D01*
X115441759Y-99535202D01*
X115560654Y-99341183D01*
X115563240Y-99336963D01*
X115654105Y-99117594D01*
X115709535Y-98886711D01*
X115728165Y-98650000D01*
X115709535Y-98413289D01*
X115686792Y-98318558D01*
X115690339Y-98247652D01*
X115731659Y-98189917D01*
X115797632Y-98163687D01*
X115828334Y-98165035D01*
X115843031Y-98161948D01*
X115846000Y-98150487D01*
X115846000Y-97736448D01*
X115867051Y-97666722D01*
X115878891Y-97648902D01*
X115939319Y-97489825D01*
X115940300Y-97482847D01*
X115941138Y-97479582D01*
X115974085Y-97421819D01*
X116138905Y-97257000D01*
X116201217Y-97222975D01*
X116272033Y-97228040D01*
G37*
G04 #@! TD.AperFunction*
G04 #@! TA.AperFunction,Conductor*
G36*
X137648118Y-76428002D02*
G01*
X137694611Y-76481658D01*
X137704715Y-76551932D01*
X137675221Y-76616512D01*
X137667525Y-76624636D01*
X137648748Y-76642769D01*
X137475812Y-76864118D01*
X137473616Y-76867922D01*
X137473611Y-76867929D01*
X137407003Y-76983298D01*
X137335364Y-77107381D01*
X137230138Y-77367824D01*
X137162183Y-77640376D01*
X137161724Y-77644744D01*
X137161723Y-77644749D01*
X137142230Y-77830222D01*
X137132822Y-77919733D01*
X137132975Y-77924121D01*
X137132975Y-77924127D01*
X137142366Y-78193028D01*
X137142625Y-78200458D01*
X137143387Y-78204781D01*
X137143388Y-78204788D01*
X137150411Y-78244615D01*
X137191402Y-78477087D01*
X137278203Y-78744235D01*
X137401340Y-78996702D01*
X137403795Y-79000341D01*
X137403798Y-79000347D01*
X137476890Y-79108710D01*
X137558415Y-79229576D01*
X137746371Y-79438322D01*
X137961550Y-79618879D01*
X138199764Y-79767731D01*
X138456375Y-79881982D01*
X138726390Y-79959407D01*
X138730740Y-79960018D01*
X138730743Y-79960019D01*
X138804239Y-79970348D01*
X139004552Y-79998500D01*
X139215146Y-79998500D01*
X139217332Y-79998347D01*
X139217336Y-79998347D01*
X139420827Y-79984118D01*
X139420832Y-79984117D01*
X139425212Y-79983811D01*
X139699970Y-79925409D01*
X139704099Y-79923906D01*
X139704103Y-79923905D01*
X139959781Y-79830846D01*
X139959785Y-79830844D01*
X139963926Y-79829337D01*
X140211942Y-79697464D01*
X140218578Y-79692643D01*
X140435629Y-79534947D01*
X140435632Y-79534944D01*
X140439192Y-79532358D01*
X140460973Y-79511325D01*
X140478473Y-79494425D01*
X140541370Y-79461493D01*
X140612086Y-79467793D01*
X140668171Y-79511325D01*
X140692000Y-79585062D01*
X140692000Y-84615786D01*
X140671998Y-84683907D01*
X140618342Y-84730400D01*
X140548068Y-84740504D01*
X140500165Y-84723219D01*
X140306183Y-84604346D01*
X140301963Y-84601760D01*
X140297393Y-84599867D01*
X140297389Y-84599865D01*
X140087167Y-84512789D01*
X140087165Y-84512788D01*
X140082594Y-84510895D01*
X139955923Y-84480484D01*
X139856524Y-84456620D01*
X139856518Y-84456619D01*
X139851711Y-84455465D01*
X139615000Y-84436835D01*
X139378289Y-84455465D01*
X139373482Y-84456619D01*
X139373476Y-84456620D01*
X139274077Y-84480484D01*
X139147406Y-84510895D01*
X139142835Y-84512788D01*
X139142833Y-84512789D01*
X138932611Y-84599865D01*
X138932607Y-84599867D01*
X138928037Y-84601760D01*
X138923817Y-84604346D01*
X138729798Y-84723241D01*
X138729792Y-84723245D01*
X138725584Y-84725824D01*
X138545031Y-84880031D01*
X138390824Y-85060584D01*
X138388245Y-85064792D01*
X138388241Y-85064798D01*
X138280096Y-85241274D01*
X138266760Y-85263037D01*
X138264867Y-85267607D01*
X138264865Y-85267611D01*
X138177789Y-85477833D01*
X138175895Y-85482406D01*
X138120465Y-85713289D01*
X138101835Y-85950000D01*
X138120465Y-86186711D01*
X138121619Y-86191518D01*
X138121620Y-86191524D01*
X138134343Y-86244518D01*
X138175895Y-86417594D01*
X138266760Y-86636963D01*
X138269346Y-86641183D01*
X138388241Y-86835202D01*
X138388245Y-86835208D01*
X138390824Y-86839416D01*
X138545031Y-87019969D01*
X138548787Y-87023177D01*
X138548792Y-87023182D01*
X138701616Y-87153706D01*
X138740426Y-87213156D01*
X138742640Y-87247558D01*
X138750877Y-87266667D01*
X139885115Y-88400905D01*
X139919141Y-88463217D01*
X139914076Y-88534032D01*
X139885115Y-88579095D01*
X138753920Y-89710290D01*
X138744740Y-89727102D01*
X138730980Y-89790350D01*
X138702224Y-89825775D01*
X138571103Y-89937763D01*
X138545031Y-89960031D01*
X138390824Y-90140584D01*
X138388245Y-90144792D01*
X138388241Y-90144798D01*
X138292365Y-90301253D01*
X138266760Y-90343037D01*
X138264867Y-90347607D01*
X138264865Y-90347611D01*
X138224318Y-90445501D01*
X138175895Y-90562406D01*
X138169765Y-90587940D01*
X138122246Y-90785871D01*
X138120465Y-90793289D01*
X138101835Y-91030000D01*
X138120465Y-91266711D01*
X138121619Y-91271518D01*
X138121620Y-91271524D01*
X138174060Y-91489951D01*
X138170513Y-91560859D01*
X138140636Y-91608460D01*
X132290469Y-97458626D01*
X132228157Y-97492652D01*
X132201374Y-97495531D01*
X129139500Y-97495531D01*
X129071379Y-97475529D01*
X129024886Y-97421873D01*
X129013500Y-97369531D01*
X129013500Y-96096866D01*
X129006745Y-96034684D01*
X128955615Y-95898295D01*
X128868261Y-95781739D01*
X128760299Y-95700826D01*
X128717784Y-95643967D01*
X128712758Y-95573148D01*
X128746818Y-95510855D01*
X128760299Y-95499174D01*
X128842340Y-95437688D01*
X128868261Y-95418261D01*
X128955615Y-95301705D01*
X129006745Y-95165316D01*
X129013500Y-95103134D01*
X129013500Y-93796866D01*
X129006745Y-93734684D01*
X128955615Y-93598295D01*
X128868261Y-93481739D01*
X128751705Y-93394385D01*
X128615316Y-93343255D01*
X128553134Y-93336500D01*
X127346866Y-93336500D01*
X127284684Y-93343255D01*
X127148295Y-93394385D01*
X127147406Y-93392013D01*
X127091162Y-93404319D01*
X127052263Y-93392897D01*
X127051705Y-93394385D01*
X126915316Y-93343255D01*
X126853134Y-93336500D01*
X125646866Y-93336500D01*
X125643469Y-93336869D01*
X125592534Y-93342402D01*
X125592532Y-93342402D01*
X125584684Y-93343255D01*
X125577291Y-93346027D01*
X125577289Y-93346027D01*
X125490716Y-93378482D01*
X125446487Y-93386500D01*
X125341783Y-93386500D01*
X125273662Y-93366498D01*
X125273501Y-93366384D01*
X125270629Y-93363512D01*
X125263807Y-93359477D01*
X125263805Y-93359476D01*
X125136420Y-93284141D01*
X125136419Y-93284141D01*
X125129597Y-93280106D01*
X125121986Y-93277895D01*
X125121984Y-93277894D01*
X125071005Y-93263084D01*
X124972254Y-93234394D01*
X124965849Y-93233890D01*
X124965844Y-93233889D01*
X124937940Y-93231693D01*
X124937932Y-93231693D01*
X124935484Y-93231500D01*
X124464516Y-93231500D01*
X124462068Y-93231693D01*
X124462060Y-93231693D01*
X124434156Y-93233889D01*
X124434151Y-93233890D01*
X124427746Y-93234394D01*
X124328995Y-93263084D01*
X124278016Y-93277894D01*
X124278014Y-93277895D01*
X124270403Y-93280106D01*
X124263581Y-93284141D01*
X124263580Y-93284141D01*
X124136195Y-93359476D01*
X124136193Y-93359477D01*
X124129371Y-93363512D01*
X124128857Y-93362644D01*
X124069365Y-93386006D01*
X124058217Y-93386500D01*
X122970658Y-93386500D01*
X122902537Y-93366498D01*
X122856044Y-93312842D01*
X122845940Y-93242568D01*
X122849661Y-93225347D01*
X122863312Y-93178359D01*
X122864768Y-93170391D01*
X122861948Y-93156969D01*
X122850487Y-93154000D01*
X122034500Y-93154000D01*
X121966379Y-93133998D01*
X121919886Y-93080342D01*
X121908500Y-93028000D01*
X121908500Y-92772000D01*
X121928502Y-92703879D01*
X121982158Y-92657386D01*
X122034500Y-92646000D01*
X122848424Y-92646000D01*
X122863219Y-92641656D01*
X122865063Y-92631225D01*
X122863312Y-92621641D01*
X122821643Y-92478216D01*
X122815396Y-92463780D01*
X122740124Y-92336501D01*
X122730484Y-92324074D01*
X122625926Y-92219516D01*
X122613499Y-92209876D01*
X122570678Y-92184552D01*
X122522225Y-92132659D01*
X122509520Y-92062808D01*
X122536595Y-91997177D01*
X122545722Y-91987003D01*
X122554962Y-91977763D01*
X122639332Y-91835100D01*
X122648039Y-91805132D01*
X122664379Y-91748887D01*
X122685573Y-91675937D01*
X122686077Y-91669532D01*
X122686078Y-91669527D01*
X122688307Y-91641203D01*
X122688307Y-91641195D01*
X122688500Y-91638747D01*
X122688499Y-91161254D01*
X122685573Y-91124063D01*
X122639332Y-90964900D01*
X122635297Y-90958078D01*
X122632148Y-90950800D01*
X122634585Y-90949746D01*
X122620291Y-90893409D01*
X122637750Y-90833949D01*
X122669894Y-90779597D01*
X122715606Y-90622254D01*
X122718500Y-90585484D01*
X122718500Y-90174516D01*
X122718307Y-90172060D01*
X122716111Y-90144156D01*
X122716110Y-90144151D01*
X122715606Y-90137746D01*
X122669894Y-89980403D01*
X122664647Y-89971531D01*
X122659985Y-89963647D01*
X122642526Y-89894830D01*
X122659984Y-89835372D01*
X122665395Y-89826222D01*
X122671643Y-89811784D01*
X122706619Y-89691395D01*
X122706579Y-89677295D01*
X122699309Y-89674000D01*
X122421379Y-89674000D01*
X122357240Y-89656454D01*
X122336420Y-89644141D01*
X122336419Y-89644141D01*
X122329597Y-89640106D01*
X122321986Y-89637895D01*
X122321984Y-89637894D01*
X122271005Y-89623084D01*
X122172254Y-89594394D01*
X122165849Y-89593890D01*
X122165844Y-89593889D01*
X122137940Y-89591693D01*
X122137932Y-89591693D01*
X122135484Y-89591500D01*
X121664516Y-89591500D01*
X121662068Y-89591693D01*
X121662060Y-89591693D01*
X121634156Y-89593889D01*
X121634151Y-89593890D01*
X121627746Y-89594394D01*
X121528995Y-89623084D01*
X121478016Y-89637894D01*
X121478014Y-89637895D01*
X121470403Y-89640106D01*
X121463581Y-89644141D01*
X121463580Y-89644141D01*
X121442760Y-89656454D01*
X121378621Y-89674000D01*
X121106442Y-89674000D01*
X121092911Y-89677973D01*
X121091776Y-89685871D01*
X121128357Y-89811784D01*
X121134605Y-89826222D01*
X121140016Y-89835372D01*
X121157474Y-89904188D01*
X121140015Y-89963647D01*
X121135353Y-89971531D01*
X121130106Y-89980403D01*
X121084394Y-90137746D01*
X121083890Y-90144151D01*
X121083889Y-90144156D01*
X121081693Y-90172060D01*
X121081500Y-90174516D01*
X121081500Y-90445500D01*
X121061498Y-90513621D01*
X121007842Y-90560114D01*
X120955501Y-90571500D01*
X120900001Y-90571500D01*
X120844500Y-90571501D01*
X120776380Y-90551500D01*
X120729887Y-90497844D01*
X120718500Y-90445501D01*
X120718500Y-90314516D01*
X120718307Y-90312060D01*
X120716111Y-90284156D01*
X120716110Y-90284151D01*
X120715606Y-90277746D01*
X120684902Y-90172060D01*
X120672106Y-90128016D01*
X120672105Y-90128014D01*
X120669894Y-90120403D01*
X120616353Y-90029870D01*
X120598894Y-89961054D01*
X120616353Y-89901592D01*
X120675297Y-89801923D01*
X120679332Y-89795100D01*
X120682382Y-89784604D01*
X120700130Y-89723512D01*
X120725573Y-89635937D01*
X120726077Y-89629532D01*
X120726078Y-89629527D01*
X120728307Y-89601203D01*
X120728307Y-89601195D01*
X120728500Y-89598747D01*
X120728499Y-89171254D01*
X120726717Y-89148605D01*
X121093381Y-89148605D01*
X121093421Y-89162705D01*
X121100691Y-89166000D01*
X121627885Y-89166000D01*
X121643124Y-89161525D01*
X121644329Y-89160135D01*
X121646000Y-89152452D01*
X121646000Y-89147885D01*
X122154000Y-89147885D01*
X122158475Y-89163124D01*
X122159865Y-89164329D01*
X122167548Y-89166000D01*
X122693558Y-89166000D01*
X122707089Y-89162027D01*
X122708224Y-89154129D01*
X122671643Y-89028216D01*
X122665396Y-89013780D01*
X122590124Y-88886501D01*
X122580484Y-88874074D01*
X122475926Y-88769516D01*
X122463499Y-88759876D01*
X122336220Y-88684604D01*
X122321784Y-88678357D01*
X122178359Y-88636688D01*
X122170391Y-88635232D01*
X122156969Y-88638052D01*
X122154000Y-88649513D01*
X122154000Y-89147885D01*
X121646000Y-89147885D01*
X121646000Y-88651576D01*
X121641656Y-88636781D01*
X121631225Y-88634937D01*
X121621641Y-88636688D01*
X121478216Y-88678357D01*
X121463780Y-88684604D01*
X121336501Y-88759876D01*
X121324074Y-88769516D01*
X121219516Y-88874074D01*
X121209876Y-88886501D01*
X121134604Y-89013780D01*
X121128357Y-89028216D01*
X121093381Y-89148605D01*
X120726717Y-89148605D01*
X120725573Y-89134063D01*
X120679332Y-88974900D01*
X120672968Y-88964140D01*
X120655508Y-88895326D01*
X120672968Y-88835861D01*
X120679332Y-88825100D01*
X120725573Y-88665937D01*
X120726077Y-88659532D01*
X120726078Y-88659527D01*
X120728307Y-88631203D01*
X120728307Y-88631195D01*
X120728500Y-88628747D01*
X120728500Y-88494930D01*
X138102725Y-88494930D01*
X138120572Y-88721699D01*
X138122115Y-88731446D01*
X138175217Y-88952627D01*
X138178266Y-88962012D01*
X138265313Y-89172163D01*
X138269795Y-89180958D01*
X138372432Y-89348445D01*
X138382890Y-89357907D01*
X138391666Y-89354124D01*
X139242978Y-88502812D01*
X139250592Y-88488868D01*
X139250461Y-88487035D01*
X139246210Y-88480420D01*
X138394710Y-87628920D01*
X138382330Y-87622160D01*
X138374680Y-87627887D01*
X138269795Y-87799042D01*
X138265313Y-87807837D01*
X138178266Y-88017988D01*
X138175217Y-88027373D01*
X138122115Y-88248554D01*
X138120572Y-88258301D01*
X138102725Y-88485070D01*
X138102725Y-88494930D01*
X120728500Y-88494930D01*
X120728499Y-88201254D01*
X120725573Y-88164063D01*
X120685861Y-88027373D01*
X120681544Y-88012513D01*
X120681543Y-88012511D01*
X120679332Y-88004900D01*
X120672624Y-87993558D01*
X121134000Y-87993558D01*
X121137973Y-88007089D01*
X121145871Y-88008224D01*
X121271784Y-87971643D01*
X121286220Y-87965396D01*
X121413499Y-87890124D01*
X121425926Y-87880484D01*
X121530484Y-87775926D01*
X121540124Y-87763499D01*
X121615396Y-87636220D01*
X121621643Y-87621784D01*
X121663312Y-87478359D01*
X121664768Y-87470391D01*
X121661948Y-87456969D01*
X121650487Y-87454000D01*
X121152115Y-87454000D01*
X121136876Y-87458475D01*
X121135671Y-87459865D01*
X121134000Y-87467548D01*
X121134000Y-87993558D01*
X120672624Y-87993558D01*
X120643546Y-87944388D01*
X120626000Y-87880250D01*
X120626000Y-87721379D01*
X120643546Y-87657240D01*
X120655859Y-87636420D01*
X120655859Y-87636419D01*
X120659894Y-87629597D01*
X120705606Y-87472254D01*
X120706322Y-87463165D01*
X120708307Y-87437940D01*
X120708307Y-87437932D01*
X120708500Y-87435484D01*
X120708500Y-86964516D01*
X120707043Y-86946000D01*
X120706111Y-86934156D01*
X120706110Y-86934151D01*
X120705617Y-86927885D01*
X121134000Y-86927885D01*
X121138475Y-86943124D01*
X121139865Y-86944329D01*
X121147548Y-86946000D01*
X121648424Y-86946000D01*
X121663219Y-86941656D01*
X121665063Y-86931225D01*
X121663312Y-86921641D01*
X121621643Y-86778216D01*
X121615396Y-86763780D01*
X121540124Y-86636501D01*
X121530484Y-86624074D01*
X121425926Y-86519516D01*
X121413499Y-86509876D01*
X121286220Y-86434604D01*
X121271784Y-86428357D01*
X121151395Y-86393381D01*
X121137295Y-86393421D01*
X121134000Y-86400691D01*
X121134000Y-86927885D01*
X120705617Y-86927885D01*
X120705606Y-86927746D01*
X120659894Y-86770403D01*
X120643546Y-86742760D01*
X120626000Y-86678621D01*
X120626000Y-86534750D01*
X120643546Y-86470611D01*
X120675297Y-86416923D01*
X120679332Y-86410100D01*
X120725573Y-86250937D01*
X120726077Y-86244532D01*
X120726078Y-86244527D01*
X120728307Y-86216203D01*
X120728307Y-86216195D01*
X120728500Y-86213747D01*
X120728499Y-85786254D01*
X120725573Y-85749063D01*
X120679332Y-85589900D01*
X120672968Y-85579140D01*
X120655508Y-85510326D01*
X120672968Y-85450861D01*
X120679332Y-85440100D01*
X120725573Y-85280937D01*
X120726077Y-85274532D01*
X120726078Y-85274527D01*
X120728307Y-85246203D01*
X120728307Y-85246195D01*
X120728500Y-85243747D01*
X120728499Y-84816254D01*
X120725573Y-84779063D01*
X120679332Y-84619900D01*
X120671756Y-84607089D01*
X120663754Y-84593558D01*
X121114000Y-84593558D01*
X121117973Y-84607089D01*
X121125871Y-84608224D01*
X121251784Y-84571643D01*
X121266220Y-84565396D01*
X121393499Y-84490124D01*
X121405926Y-84480484D01*
X121510484Y-84375926D01*
X121520124Y-84363499D01*
X121595396Y-84236220D01*
X121601643Y-84221784D01*
X121643312Y-84078359D01*
X121644768Y-84070391D01*
X121641948Y-84056969D01*
X121630487Y-84054000D01*
X121132115Y-84054000D01*
X121116876Y-84058475D01*
X121115671Y-84059865D01*
X121114000Y-84067548D01*
X121114000Y-84593558D01*
X120663754Y-84593558D01*
X120623546Y-84525570D01*
X120606000Y-84461431D01*
X120606000Y-84321379D01*
X120623546Y-84257240D01*
X120635859Y-84236420D01*
X120635859Y-84236419D01*
X120639894Y-84229597D01*
X120685606Y-84072254D01*
X120686582Y-84059865D01*
X120688307Y-84037940D01*
X120688307Y-84037932D01*
X120688500Y-84035484D01*
X120688500Y-83564516D01*
X120687043Y-83546000D01*
X120686111Y-83534156D01*
X120686110Y-83534151D01*
X120685617Y-83527885D01*
X121114000Y-83527885D01*
X121118475Y-83543124D01*
X121119865Y-83544329D01*
X121127548Y-83546000D01*
X121628424Y-83546000D01*
X121643219Y-83541656D01*
X121645063Y-83531225D01*
X121643312Y-83521641D01*
X121601643Y-83378216D01*
X121595396Y-83363780D01*
X121520124Y-83236501D01*
X121510484Y-83224074D01*
X121405926Y-83119516D01*
X121393499Y-83109876D01*
X121266220Y-83034604D01*
X121251784Y-83028357D01*
X121131395Y-82993381D01*
X121117295Y-82993421D01*
X121114000Y-83000691D01*
X121114000Y-83527885D01*
X120685617Y-83527885D01*
X120685606Y-83527746D01*
X120639894Y-83370403D01*
X120623546Y-83342760D01*
X120606000Y-83278621D01*
X120606000Y-83222106D01*
X120623547Y-83157967D01*
X120665856Y-83086426D01*
X120665859Y-83086420D01*
X120669894Y-83079597D01*
X120684781Y-83028357D01*
X120713811Y-82928431D01*
X120715606Y-82922254D01*
X120718500Y-82885484D01*
X120718500Y-82474516D01*
X120715606Y-82437746D01*
X120669894Y-82280403D01*
X120665858Y-82273578D01*
X120660275Y-82264137D01*
X120642817Y-82195320D01*
X120660275Y-82135863D01*
X120665858Y-82126422D01*
X120665859Y-82126420D01*
X120669894Y-82119597D01*
X120715606Y-81962254D01*
X120718500Y-81925484D01*
X120718500Y-81514516D01*
X120715606Y-81477746D01*
X120669894Y-81320403D01*
X120600696Y-81203395D01*
X120583150Y-81139256D01*
X120583150Y-80356403D01*
X120603152Y-80288282D01*
X120656808Y-80241789D01*
X120698200Y-80231608D01*
X120698134Y-80231000D01*
X120760316Y-80224245D01*
X120896705Y-80173115D01*
X121013261Y-80085761D01*
X121100615Y-79969205D01*
X121132285Y-79884726D01*
X121174927Y-79827962D01*
X121241488Y-79803262D01*
X121310837Y-79818470D01*
X121360955Y-79868756D01*
X121368249Y-79884726D01*
X121396676Y-79960554D01*
X121405214Y-79976149D01*
X121481715Y-80078224D01*
X121494276Y-80090785D01*
X121596351Y-80167286D01*
X121611946Y-80175824D01*
X121732394Y-80220978D01*
X121747649Y-80224605D01*
X121798514Y-80230131D01*
X121805328Y-80230500D01*
X122327885Y-80230500D01*
X122343124Y-80226025D01*
X122344329Y-80224635D01*
X122346000Y-80216952D01*
X122346000Y-80212384D01*
X122854000Y-80212384D01*
X122858475Y-80227623D01*
X122859865Y-80228828D01*
X122867548Y-80230499D01*
X123394669Y-80230499D01*
X123401490Y-80230129D01*
X123452352Y-80224605D01*
X123467604Y-80220979D01*
X123588054Y-80175824D01*
X123603649Y-80167286D01*
X123705724Y-80090785D01*
X123718285Y-80078224D01*
X123794786Y-79976149D01*
X123803324Y-79960554D01*
X123848478Y-79840106D01*
X123852105Y-79824851D01*
X123857631Y-79773986D01*
X123858000Y-79767172D01*
X123858000Y-78846781D01*
X129911868Y-78846781D01*
X129921436Y-79053502D01*
X129922840Y-79059327D01*
X129922840Y-79059328D01*
X129947990Y-79163683D01*
X129969921Y-79254685D01*
X130055574Y-79443069D01*
X130175305Y-79611858D01*
X130179628Y-79615996D01*
X130179632Y-79616001D01*
X130264730Y-79697464D01*
X130324792Y-79754961D01*
X130329827Y-79758212D01*
X130493606Y-79863963D01*
X130493609Y-79863964D01*
X130498643Y-79867215D01*
X130690584Y-79944570D01*
X130696465Y-79945718D01*
X130696470Y-79945720D01*
X130889244Y-79983366D01*
X130889247Y-79983366D01*
X130893690Y-79984234D01*
X130899129Y-79984500D01*
X131051704Y-79984500D01*
X131206007Y-79969778D01*
X131211761Y-79968090D01*
X131398827Y-79913211D01*
X131398829Y-79913210D01*
X131404580Y-79911523D01*
X131486257Y-79869457D01*
X131583225Y-79819516D01*
X131583228Y-79819514D01*
X131588556Y-79816770D01*
X131751294Y-79688937D01*
X131886924Y-79532637D01*
X131990552Y-79353510D01*
X132058438Y-79158019D01*
X132064548Y-79115882D01*
X132087271Y-78959159D01*
X132087271Y-78959156D01*
X132088132Y-78953219D01*
X132078564Y-78746498D01*
X132030079Y-78545315D01*
X131944426Y-78356931D01*
X131824695Y-78188142D01*
X131820372Y-78184004D01*
X131820368Y-78183999D01*
X131679538Y-78049184D01*
X131675208Y-78045039D01*
X131575230Y-77980484D01*
X131506394Y-77936037D01*
X131506391Y-77936036D01*
X131501357Y-77932785D01*
X131309416Y-77855430D01*
X131303535Y-77854282D01*
X131303530Y-77854280D01*
X131110756Y-77816634D01*
X131110753Y-77816634D01*
X131106310Y-77815766D01*
X131100871Y-77815500D01*
X130948296Y-77815500D01*
X130793993Y-77830222D01*
X130788239Y-77831910D01*
X130601173Y-77886789D01*
X130601171Y-77886790D01*
X130595420Y-77888477D01*
X130590087Y-77891223D01*
X130590086Y-77891224D01*
X130416775Y-77980484D01*
X130416772Y-77980486D01*
X130411444Y-77983230D01*
X130248706Y-78111063D01*
X130113076Y-78267363D01*
X130009448Y-78446490D01*
X129941562Y-78641981D01*
X129940702Y-78647914D01*
X129940701Y-78647917D01*
X129912729Y-78840841D01*
X129911868Y-78846781D01*
X123858000Y-78846781D01*
X123858000Y-78244615D01*
X123853525Y-78229376D01*
X123852135Y-78228171D01*
X123844452Y-78226500D01*
X122872115Y-78226500D01*
X122856876Y-78230975D01*
X122855671Y-78232365D01*
X122854000Y-78240048D01*
X122854000Y-80212384D01*
X122346000Y-80212384D01*
X122346000Y-77844500D01*
X122366002Y-77776379D01*
X122419658Y-77729886D01*
X122472000Y-77718500D01*
X123839884Y-77718500D01*
X123855123Y-77714025D01*
X123856328Y-77712635D01*
X123857999Y-77704952D01*
X123857999Y-76534000D01*
X123878001Y-76465879D01*
X123931657Y-76419386D01*
X123983999Y-76408000D01*
X137579997Y-76408000D01*
X137648118Y-76428002D01*
G37*
G04 #@! TD.AperFunction*
G04 #@! TA.AperFunction,Conductor*
G36*
X124896121Y-94828502D02*
G01*
X124942614Y-94882158D01*
X124954000Y-94934500D01*
X124954000Y-96265500D01*
X124933998Y-96333621D01*
X124880342Y-96380114D01*
X124828000Y-96391500D01*
X124572000Y-96391500D01*
X124503879Y-96371498D01*
X124457386Y-96317842D01*
X124446000Y-96265500D01*
X124446000Y-94934500D01*
X124466002Y-94866379D01*
X124519658Y-94819886D01*
X124572000Y-94808500D01*
X124828000Y-94808500D01*
X124896121Y-94828502D01*
G37*
G04 #@! TD.AperFunction*
G04 #@! TA.AperFunction,Conductor*
G36*
X119596121Y-95866002D02*
G01*
X119642614Y-95919658D01*
X119654000Y-95972000D01*
X119654000Y-96228000D01*
X119633998Y-96296121D01*
X119580342Y-96342614D01*
X119528000Y-96354000D01*
X118684500Y-96354000D01*
X118616379Y-96333998D01*
X118569886Y-96280342D01*
X118558500Y-96228000D01*
X118558499Y-95972000D01*
X118578501Y-95903880D01*
X118632156Y-95857387D01*
X118684499Y-95846000D01*
X119528000Y-95846000D01*
X119596121Y-95866002D01*
G37*
G04 #@! TD.AperFunction*
G04 #@! TA.AperFunction,Conductor*
G36*
X117403527Y-94133502D02*
G01*
X117424501Y-94150405D01*
X117529871Y-94255775D01*
X117554392Y-94300681D01*
X117565079Y-94302217D01*
X117601832Y-94327736D01*
X117627366Y-94353270D01*
X117661392Y-94415582D01*
X117661392Y-94469146D01*
X117660000Y-94475545D01*
X117660000Y-94835500D01*
X117639998Y-94903621D01*
X117586342Y-94950114D01*
X117534000Y-94961500D01*
X117526000Y-94961500D01*
X117457879Y-94941498D01*
X117411386Y-94887842D01*
X117400000Y-94835500D01*
X117400000Y-94480117D01*
X117395242Y-94463912D01*
X117386453Y-94462000D01*
X117154000Y-94462000D01*
X117085879Y-94441998D01*
X117039386Y-94388342D01*
X117028000Y-94336000D01*
X117028000Y-94292527D01*
X117027807Y-94287597D01*
X117025132Y-94253613D01*
X117026934Y-94253471D01*
X117033462Y-94191527D01*
X117077894Y-94136152D01*
X117149972Y-94113500D01*
X117335406Y-94113500D01*
X117403527Y-94133502D01*
G37*
G04 #@! TD.AperFunction*
G04 #@! TA.AperFunction,Conductor*
G36*
X121520493Y-93690463D02*
G01*
X121580109Y-93729017D01*
X121609417Y-93793682D01*
X121599113Y-93863927D01*
X121573744Y-93900352D01*
X121253594Y-94220502D01*
X121191282Y-94254528D01*
X121120467Y-94249463D01*
X121063631Y-94206916D01*
X121038820Y-94140396D01*
X121038499Y-94131407D01*
X121038499Y-93929596D01*
X121058501Y-93861475D01*
X121075404Y-93840500D01*
X121160501Y-93755404D01*
X121222813Y-93721379D01*
X121249596Y-93718500D01*
X121325484Y-93718500D01*
X121327932Y-93718307D01*
X121327940Y-93718307D01*
X121355844Y-93716111D01*
X121355849Y-93716110D01*
X121362254Y-93715606D01*
X121449496Y-93690260D01*
X121520493Y-93690463D01*
G37*
G04 #@! TD.AperFunction*
G04 #@! TA.AperFunction,Conductor*
G36*
X117396121Y-77738502D02*
G01*
X117442614Y-77792158D01*
X117454000Y-77844500D01*
X117454000Y-80212384D01*
X117458475Y-80227623D01*
X117459865Y-80228828D01*
X117467548Y-80230499D01*
X117994669Y-80230499D01*
X118001490Y-80230129D01*
X118052352Y-80224605D01*
X118067604Y-80220979D01*
X118188054Y-80175824D01*
X118203649Y-80167286D01*
X118305724Y-80090785D01*
X118318285Y-80078224D01*
X118394786Y-79976149D01*
X118403324Y-79960554D01*
X118431751Y-79884726D01*
X118474393Y-79827962D01*
X118540954Y-79803262D01*
X118610303Y-79818470D01*
X118660421Y-79868756D01*
X118667715Y-79884726D01*
X118699385Y-79969205D01*
X118786739Y-80085761D01*
X118903295Y-80173115D01*
X119039684Y-80224245D01*
X119101866Y-80231000D01*
X119101753Y-80232037D01*
X119164588Y-80254233D01*
X119208120Y-80310318D01*
X119216850Y-80356403D01*
X119216850Y-81139256D01*
X119199304Y-81203395D01*
X119130106Y-81320403D01*
X119084394Y-81477746D01*
X119081500Y-81514516D01*
X119081500Y-81925484D01*
X119084394Y-81962254D01*
X119130106Y-82119597D01*
X119134141Y-82126420D01*
X119134142Y-82126422D01*
X119139725Y-82135863D01*
X119157183Y-82204680D01*
X119139725Y-82264137D01*
X119134142Y-82273578D01*
X119130106Y-82280403D01*
X119084394Y-82437746D01*
X119081500Y-82474516D01*
X119081500Y-82885484D01*
X119084394Y-82922254D01*
X119086189Y-82928431D01*
X119115220Y-83028357D01*
X119130106Y-83079597D01*
X119134141Y-83086419D01*
X119134141Y-83086420D01*
X119193165Y-83186225D01*
X119210624Y-83255042D01*
X119193165Y-83314503D01*
X119160106Y-83370403D01*
X119114394Y-83527746D01*
X119113890Y-83534151D01*
X119113889Y-83534156D01*
X119112957Y-83546000D01*
X119111500Y-83564516D01*
X119111500Y-84035484D01*
X119111693Y-84037932D01*
X119111693Y-84037940D01*
X119113419Y-84059865D01*
X119114394Y-84072254D01*
X119160106Y-84229597D01*
X119164141Y-84236420D01*
X119164144Y-84236426D01*
X119199303Y-84295877D01*
X119216850Y-84360016D01*
X119216850Y-84422794D01*
X119199304Y-84486933D01*
X119129867Y-84604346D01*
X119120668Y-84619900D01*
X119074427Y-84779063D01*
X119073923Y-84785468D01*
X119073922Y-84785473D01*
X119071693Y-84813797D01*
X119071500Y-84816253D01*
X119071501Y-85243746D01*
X119074427Y-85280937D01*
X119120668Y-85440100D01*
X119127032Y-85450860D01*
X119144492Y-85519674D01*
X119127032Y-85579139D01*
X119120668Y-85589900D01*
X119074427Y-85749063D01*
X119073923Y-85755468D01*
X119073922Y-85755473D01*
X119071693Y-85783797D01*
X119071500Y-85786253D01*
X119071501Y-86213746D01*
X119074427Y-86250937D01*
X119120668Y-86410100D01*
X119124703Y-86416923D01*
X119199304Y-86543067D01*
X119216850Y-86607206D01*
X119216850Y-86673802D01*
X119199303Y-86737941D01*
X119184144Y-86763574D01*
X119184142Y-86763578D01*
X119180106Y-86770403D01*
X119134394Y-86927746D01*
X119133890Y-86934151D01*
X119133889Y-86934156D01*
X119132957Y-86946000D01*
X119131500Y-86964516D01*
X119131500Y-87435484D01*
X119131693Y-87437932D01*
X119131693Y-87437940D01*
X119133679Y-87463165D01*
X119134394Y-87472254D01*
X119180106Y-87629597D01*
X119184141Y-87636420D01*
X119184144Y-87636426D01*
X119219303Y-87695877D01*
X119236850Y-87760016D01*
X119236850Y-87779707D01*
X119216848Y-87847828D01*
X119210572Y-87856703D01*
X119205038Y-87862237D01*
X119120668Y-88004900D01*
X119118457Y-88012511D01*
X119118456Y-88012513D01*
X119114139Y-88027373D01*
X119074427Y-88164063D01*
X119073923Y-88170468D01*
X119073922Y-88170473D01*
X119071693Y-88198797D01*
X119071500Y-88201253D01*
X119071501Y-88628746D01*
X119074427Y-88665937D01*
X119120668Y-88825100D01*
X119127032Y-88835860D01*
X119144492Y-88904674D01*
X119127032Y-88964139D01*
X119120668Y-88974900D01*
X119074427Y-89134063D01*
X119073923Y-89140468D01*
X119073922Y-89140473D01*
X119071693Y-89168797D01*
X119071500Y-89171253D01*
X119071500Y-89173722D01*
X119071501Y-89585765D01*
X119051499Y-89653885D01*
X118997844Y-89700379D01*
X118940652Y-89711650D01*
X118938747Y-89711500D01*
X118700194Y-89711500D01*
X118461254Y-89711501D01*
X118424063Y-89714427D01*
X118362055Y-89732442D01*
X118272513Y-89758456D01*
X118272511Y-89758457D01*
X118264900Y-89760668D01*
X118258077Y-89764703D01*
X118144462Y-89831894D01*
X118075645Y-89849353D01*
X118016184Y-89831894D01*
X117936220Y-89784604D01*
X117921784Y-89778357D01*
X117778359Y-89736688D01*
X117770391Y-89735232D01*
X117756969Y-89738052D01*
X117754000Y-89749513D01*
X117754000Y-90565500D01*
X117733998Y-90633621D01*
X117680342Y-90680114D01*
X117628000Y-90691500D01*
X117264516Y-90691500D01*
X117262068Y-90691693D01*
X117262060Y-90691693D01*
X117234156Y-90693889D01*
X117234151Y-90693890D01*
X117227746Y-90694394D01*
X117128995Y-90723084D01*
X117078016Y-90737894D01*
X117078014Y-90737895D01*
X117070403Y-90740106D01*
X117063581Y-90744141D01*
X117063580Y-90744141D01*
X117042760Y-90756454D01*
X116978621Y-90774000D01*
X116706442Y-90774000D01*
X116692911Y-90777973D01*
X116691776Y-90785871D01*
X116728357Y-90911784D01*
X116734605Y-90926222D01*
X116740016Y-90935372D01*
X116757474Y-91004188D01*
X116740015Y-91063647D01*
X116730106Y-91080403D01*
X116684394Y-91237746D01*
X116683890Y-91244151D01*
X116683889Y-91244156D01*
X116682114Y-91266711D01*
X116681500Y-91274516D01*
X116681500Y-91627890D01*
X116661498Y-91696011D01*
X116607842Y-91742504D01*
X116537568Y-91752608D01*
X116520345Y-91748887D01*
X116478353Y-91736686D01*
X116470391Y-91735232D01*
X116456969Y-91738052D01*
X116454000Y-91749513D01*
X116454000Y-92553905D01*
X116433998Y-92622026D01*
X116380342Y-92668519D01*
X116310068Y-92678623D01*
X116245488Y-92649129D01*
X116238904Y-92643000D01*
X115982904Y-92386999D01*
X115948879Y-92324687D01*
X115946000Y-92297904D01*
X115946000Y-91751576D01*
X115941656Y-91736781D01*
X115931225Y-91734937D01*
X115921641Y-91736688D01*
X115778216Y-91778357D01*
X115770801Y-91781566D01*
X115700339Y-91790263D01*
X115636361Y-91759485D01*
X115599179Y-91699004D01*
X115600598Y-91628021D01*
X115604351Y-91617711D01*
X115652211Y-91502167D01*
X115652212Y-91502165D01*
X115654105Y-91497594D01*
X115673360Y-91417391D01*
X115708380Y-91271524D01*
X115708381Y-91271518D01*
X115709535Y-91266711D01*
X115728165Y-91030000D01*
X115709535Y-90793289D01*
X115707755Y-90785871D01*
X115660235Y-90587940D01*
X115654105Y-90562406D01*
X115605682Y-90445501D01*
X115565135Y-90347611D01*
X115565133Y-90347607D01*
X115563240Y-90343037D01*
X115537635Y-90301253D01*
X115505372Y-90248605D01*
X116693381Y-90248605D01*
X116693421Y-90262705D01*
X116700691Y-90266000D01*
X117227885Y-90266000D01*
X117243124Y-90261525D01*
X117244329Y-90260135D01*
X117246000Y-90252452D01*
X117246000Y-89751576D01*
X117241656Y-89736781D01*
X117231225Y-89734937D01*
X117221641Y-89736688D01*
X117078216Y-89778357D01*
X117063780Y-89784604D01*
X116936501Y-89859876D01*
X116924074Y-89869516D01*
X116819516Y-89974074D01*
X116809876Y-89986501D01*
X116734604Y-90113780D01*
X116728357Y-90128216D01*
X116693381Y-90248605D01*
X115505372Y-90248605D01*
X115441759Y-90144798D01*
X115441755Y-90144792D01*
X115439176Y-90140584D01*
X115284969Y-89960031D01*
X115281213Y-89956823D01*
X115281208Y-89956818D01*
X115128384Y-89826294D01*
X115089574Y-89766844D01*
X115087360Y-89732442D01*
X115079123Y-89713333D01*
X113944885Y-88579095D01*
X113910859Y-88516783D01*
X113915924Y-88445968D01*
X113944885Y-88400905D01*
X114125905Y-88219885D01*
X114188217Y-88185859D01*
X114259032Y-88190924D01*
X114304095Y-88219885D01*
X115435290Y-89351080D01*
X115447670Y-89357840D01*
X115455320Y-89352113D01*
X115560205Y-89180958D01*
X115564687Y-89172163D01*
X115651734Y-88962012D01*
X115654783Y-88952627D01*
X115707885Y-88731446D01*
X115709428Y-88721699D01*
X115727275Y-88494930D01*
X115727275Y-88485070D01*
X115709428Y-88258301D01*
X115707885Y-88248554D01*
X115654783Y-88027373D01*
X115651734Y-88017988D01*
X115564687Y-87807837D01*
X115560205Y-87799042D01*
X115441357Y-87605101D01*
X115435557Y-87597117D01*
X115429381Y-87589886D01*
X115400349Y-87525096D01*
X115410953Y-87454896D01*
X115457177Y-87402312D01*
X115461705Y-87400615D01*
X115578261Y-87313261D01*
X115665615Y-87196705D01*
X115716745Y-87060316D01*
X115723500Y-86998134D01*
X115723500Y-84901866D01*
X115716745Y-84839684D01*
X115665615Y-84703295D01*
X115578261Y-84586739D01*
X115461705Y-84499385D01*
X115325316Y-84448255D01*
X115263134Y-84441500D01*
X113234000Y-84441500D01*
X113165879Y-84421498D01*
X113119386Y-84367842D01*
X113108000Y-84315500D01*
X113108000Y-79600814D01*
X113128002Y-79532693D01*
X113181658Y-79486200D01*
X113251932Y-79476096D01*
X113314991Y-79504293D01*
X113448120Y-79616001D01*
X113451550Y-79618879D01*
X113689764Y-79767731D01*
X113946375Y-79881982D01*
X114216390Y-79959407D01*
X114220740Y-79960018D01*
X114220743Y-79960019D01*
X114294239Y-79970348D01*
X114494552Y-79998500D01*
X114705146Y-79998500D01*
X114707332Y-79998347D01*
X114707336Y-79998347D01*
X114910827Y-79984118D01*
X114910832Y-79984117D01*
X114915212Y-79983811D01*
X115189970Y-79925409D01*
X115194099Y-79923906D01*
X115194103Y-79923905D01*
X115449781Y-79830846D01*
X115449785Y-79830844D01*
X115453926Y-79829337D01*
X115701942Y-79697464D01*
X115713679Y-79688937D01*
X115741940Y-79668404D01*
X115808808Y-79644545D01*
X115877960Y-79660626D01*
X115927440Y-79711540D01*
X115940394Y-79763849D01*
X115941817Y-79763772D01*
X115942371Y-79773990D01*
X115947895Y-79824852D01*
X115951521Y-79840104D01*
X115996676Y-79960554D01*
X116005214Y-79976149D01*
X116081715Y-80078224D01*
X116094276Y-80090785D01*
X116196351Y-80167286D01*
X116211946Y-80175824D01*
X116332394Y-80220978D01*
X116347649Y-80224605D01*
X116398514Y-80230131D01*
X116405328Y-80230500D01*
X116927885Y-80230500D01*
X116943124Y-80226025D01*
X116944329Y-80224635D01*
X116946000Y-80216952D01*
X116946000Y-77844500D01*
X116966002Y-77776379D01*
X117019658Y-77729886D01*
X117072000Y-77718500D01*
X117328000Y-77718500D01*
X117396121Y-77738502D01*
G37*
G04 #@! TD.AperFunction*
M02*
