G04 #@! TF.GenerationSoftware,KiCad,Pcbnew,6.0.2+dfsg-1*
G04 #@! TF.CreationDate,2024-02-25T21:37:03-08:00*
G04 #@! TF.ProjectId,cchat,63636861-742e-46b6-9963-61645f706362,rev?*
G04 #@! TF.SameCoordinates,Original*
G04 #@! TF.FileFunction,Copper,L3,Inr*
G04 #@! TF.FilePolarity,Positive*
%FSLAX46Y46*%
G04 Gerber Fmt 4.6, Leading zero omitted, Abs format (unit mm)*
G04 Created by KiCad (PCBNEW 6.0.2+dfsg-1) date 2024-02-25 21:37:03*
%MOMM*%
%LPD*%
G01*
G04 APERTURE LIST*
G04 #@! TA.AperFunction,ComponentPad*
%ADD10R,2.000000X2.000000*%
G04 #@! TD*
G04 #@! TA.AperFunction,ComponentPad*
%ADD11C,2.000000*%
G04 #@! TD*
G04 #@! TA.AperFunction,ViaPad*
%ADD12C,0.500000*%
G04 #@! TD*
G04 APERTURE END LIST*
D10*
X114215000Y-85950000D03*
D11*
X114215000Y-88490000D03*
X114215000Y-91030000D03*
X114215000Y-93570000D03*
X114215000Y-96110000D03*
X114215000Y-98650000D03*
X114215000Y-101190000D03*
X114215000Y-103730000D03*
X114215000Y-106270000D03*
X114215000Y-108810000D03*
X114215000Y-111350000D03*
X114215000Y-113890000D03*
X114215000Y-116430000D03*
X114215000Y-118970000D03*
X114215000Y-121510000D03*
X139615000Y-121510000D03*
X139615000Y-118970000D03*
X139615000Y-116430000D03*
X139615000Y-113890000D03*
X139615000Y-111350000D03*
X139615000Y-108810000D03*
X139615000Y-106270000D03*
X139615000Y-103730000D03*
X139615000Y-101190000D03*
X139615000Y-98650000D03*
X139615000Y-96110000D03*
X139615000Y-93570000D03*
X139615000Y-91030000D03*
X139615000Y-88490000D03*
X139615000Y-85950000D03*
D12*
X120600000Y-92300000D03*
X118790124Y-92387590D03*
X122600000Y-94900000D03*
X119974500Y-98900000D03*
X115100000Y-92400000D03*
X115200000Y-97300000D03*
X116300000Y-102600000D03*
X118700000Y-86400000D03*
X121000000Y-88300000D03*
X123200000Y-92400000D03*
X122000000Y-87000000D03*
X116100000Y-98000000D03*
X117300000Y-94300000D03*
X121000000Y-82700000D03*
X124200000Y-79400000D03*
X121100000Y-80600000D03*
X140100000Y-80400000D03*
X124200000Y-78000000D03*
X137400000Y-120300000D03*
X116100000Y-100300000D03*
X121000000Y-85800000D03*
X129300000Y-95600000D03*
X123100000Y-89800000D03*
X117200000Y-80400000D03*
X137500000Y-87000000D03*
X140000000Y-83900000D03*
X119700000Y-100800000D03*
X121000000Y-84900000D03*
X116800000Y-92800000D03*
X113500000Y-80100000D03*
X116100000Y-117500000D03*
X124700000Y-95600000D03*
X118700000Y-89400000D03*
X136800000Y-76900000D03*
X123100000Y-91100000D03*
X116100000Y-108400000D03*
X121000000Y-89400000D03*
X122600000Y-80400000D03*
X115700000Y-80100000D03*
X118500000Y-80400000D03*
X122100000Y-83800000D03*
X116100000Y-91500000D03*
X121600000Y-100800000D03*
X117300000Y-89400000D03*
X129300000Y-97200000D03*
X121500000Y-93800000D03*
X120600000Y-100800000D03*
X113500000Y-84000000D03*
X137900000Y-97300000D03*
X137500000Y-89900000D03*
X124000000Y-92900000D03*
X127100000Y-92900000D03*
X122541233Y-97554531D03*
X117500000Y-101800000D03*
X119474500Y-99700000D03*
G04 #@! TA.AperFunction,Conductor*
G36*
X136060024Y-76428002D02*
G01*
X136106517Y-76481658D01*
X136116621Y-76551932D01*
X136110304Y-76577095D01*
X136058103Y-76720516D01*
X136036775Y-76889343D01*
X136053381Y-77058699D01*
X136107094Y-77220167D01*
X136110741Y-77226189D01*
X136110742Y-77226191D01*
X136163892Y-77313951D01*
X136195246Y-77365723D01*
X136313455Y-77488132D01*
X136380269Y-77531854D01*
X136414742Y-77554412D01*
X136455846Y-77581310D01*
X136462450Y-77583766D01*
X136462452Y-77583767D01*
X136535594Y-77610968D01*
X136615341Y-77640626D01*
X136784015Y-77663132D01*
X136791026Y-77662494D01*
X136791030Y-77662494D01*
X136946462Y-77648348D01*
X136953483Y-77647709D01*
X136960185Y-77645531D01*
X136960187Y-77645531D01*
X136984238Y-77637716D01*
X137055205Y-77635688D01*
X137116003Y-77672351D01*
X137147329Y-77736063D01*
X137148484Y-77770717D01*
X137132822Y-77919733D01*
X137132975Y-77924121D01*
X137132975Y-77924127D01*
X137142366Y-78193028D01*
X137142625Y-78200458D01*
X137143387Y-78204781D01*
X137143388Y-78204788D01*
X137167164Y-78339624D01*
X137191402Y-78477087D01*
X137278203Y-78744235D01*
X137280131Y-78748188D01*
X137280133Y-78748193D01*
X137310342Y-78810129D01*
X137401340Y-78996702D01*
X137403795Y-79000341D01*
X137403798Y-79000347D01*
X137476890Y-79108710D01*
X137558415Y-79229576D01*
X137746371Y-79438322D01*
X137749733Y-79441143D01*
X137749734Y-79441144D01*
X137773985Y-79461493D01*
X137961550Y-79618879D01*
X138199764Y-79767731D01*
X138379624Y-79847810D01*
X138431231Y-79870787D01*
X138456375Y-79881982D01*
X138726390Y-79959407D01*
X138730740Y-79960018D01*
X138730743Y-79960019D01*
X138833690Y-79974487D01*
X139004552Y-79998500D01*
X139215146Y-79998500D01*
X139217329Y-79998347D01*
X139217339Y-79998347D01*
X139251205Y-79995979D01*
X139320555Y-80011181D01*
X139370677Y-80061463D01*
X139385657Y-80130862D01*
X139378394Y-80164767D01*
X139358103Y-80220516D01*
X139336775Y-80389343D01*
X139353381Y-80558699D01*
X139355605Y-80565384D01*
X139355605Y-80565385D01*
X139357402Y-80570787D01*
X139407094Y-80720167D01*
X139410741Y-80726189D01*
X139410742Y-80726191D01*
X139484840Y-80848540D01*
X139495246Y-80865723D01*
X139613455Y-80988132D01*
X139619351Y-80991990D01*
X139732027Y-81065723D01*
X139755846Y-81081310D01*
X139762450Y-81083766D01*
X139762452Y-81083767D01*
X139835593Y-81110968D01*
X139915341Y-81140626D01*
X140084015Y-81163132D01*
X140091026Y-81162494D01*
X140091030Y-81162494D01*
X140246462Y-81148348D01*
X140253483Y-81147709D01*
X140260185Y-81145531D01*
X140260187Y-81145531D01*
X140408623Y-81097301D01*
X140408626Y-81097300D01*
X140415322Y-81095124D01*
X140501482Y-81043762D01*
X140570237Y-81026062D01*
X140637647Y-81048344D01*
X140682309Y-81103533D01*
X140692000Y-81151991D01*
X140692000Y-83214988D01*
X140671998Y-83283109D01*
X140618342Y-83329602D01*
X140548068Y-83339706D01*
X140487049Y-83313185D01*
X140483250Y-83310131D01*
X140478286Y-83305132D01*
X140334608Y-83213951D01*
X140174300Y-83156868D01*
X140005329Y-83136720D01*
X139998326Y-83137456D01*
X139998325Y-83137456D01*
X139843101Y-83153770D01*
X139843097Y-83153771D01*
X139836093Y-83154507D01*
X139829422Y-83156778D01*
X139681673Y-83207075D01*
X139681670Y-83207076D01*
X139675003Y-83209346D01*
X139669005Y-83213036D01*
X139669003Y-83213037D01*
X139536065Y-83294821D01*
X139536063Y-83294823D01*
X139530066Y-83298512D01*
X139408486Y-83417573D01*
X139404675Y-83423487D01*
X139404673Y-83423489D01*
X139334836Y-83531854D01*
X139316304Y-83560610D01*
X139258103Y-83720516D01*
X139236775Y-83889343D01*
X139253381Y-84058699D01*
X139307094Y-84220167D01*
X139310741Y-84226189D01*
X139310742Y-84226191D01*
X139351198Y-84292992D01*
X139369377Y-84361622D01*
X139347566Y-84429185D01*
X139292690Y-84474231D01*
X139272836Y-84480782D01*
X139147406Y-84510895D01*
X139142835Y-84512788D01*
X139142833Y-84512789D01*
X138932611Y-84599865D01*
X138932607Y-84599867D01*
X138928037Y-84601760D01*
X138923817Y-84604346D01*
X138729798Y-84723241D01*
X138729792Y-84723245D01*
X138725584Y-84725824D01*
X138545031Y-84880031D01*
X138390824Y-85060584D01*
X138388245Y-85064792D01*
X138388241Y-85064798D01*
X138368867Y-85096414D01*
X138266760Y-85263037D01*
X138264867Y-85267607D01*
X138264865Y-85267611D01*
X138184923Y-85460610D01*
X138175895Y-85482406D01*
X138174740Y-85487218D01*
X138121957Y-85707075D01*
X138120465Y-85713289D01*
X138101835Y-85950000D01*
X138120465Y-86186711D01*
X138121621Y-86191525D01*
X138121622Y-86191533D01*
X138135264Y-86248355D01*
X138131718Y-86319263D01*
X138090399Y-86376997D01*
X138024425Y-86403228D01*
X137954744Y-86389626D01*
X137945232Y-86384155D01*
X137842978Y-86319263D01*
X137834608Y-86313951D01*
X137674300Y-86256868D01*
X137505329Y-86236720D01*
X137498326Y-86237456D01*
X137498325Y-86237456D01*
X137343101Y-86253770D01*
X137343097Y-86253771D01*
X137336093Y-86254507D01*
X137329422Y-86256778D01*
X137181673Y-86307075D01*
X137181670Y-86307076D01*
X137175003Y-86309346D01*
X137169005Y-86313036D01*
X137169003Y-86313037D01*
X137036065Y-86394821D01*
X137036063Y-86394823D01*
X137030066Y-86398512D01*
X136908486Y-86517573D01*
X136904675Y-86523487D01*
X136904673Y-86523489D01*
X136820121Y-86654687D01*
X136816304Y-86660610D01*
X136758103Y-86820516D01*
X136736775Y-86989343D01*
X136753381Y-87158699D01*
X136807094Y-87320167D01*
X136810741Y-87326189D01*
X136810742Y-87326191D01*
X136888303Y-87454258D01*
X136895246Y-87465723D01*
X137013455Y-87588132D01*
X137155846Y-87681310D01*
X137162450Y-87683766D01*
X137162452Y-87683767D01*
X137215354Y-87703441D01*
X137315341Y-87740626D01*
X137484015Y-87763132D01*
X137491026Y-87762494D01*
X137491030Y-87762494D01*
X137646462Y-87748348D01*
X137653483Y-87747709D01*
X137660185Y-87745531D01*
X137660187Y-87745531D01*
X137808623Y-87697301D01*
X137808626Y-87697300D01*
X137815322Y-87695124D01*
X137961490Y-87607990D01*
X137966584Y-87603139D01*
X137966588Y-87603136D01*
X138058344Y-87515757D01*
X138084721Y-87490639D01*
X138112922Y-87448194D01*
X138174990Y-87354773D01*
X138178891Y-87348902D01*
X138239319Y-87189825D01*
X138263001Y-87021313D01*
X138263015Y-87020314D01*
X138287954Y-86954544D01*
X138345020Y-86912307D01*
X138415862Y-86907627D01*
X138477989Y-86941990D01*
X138484211Y-86948758D01*
X138545031Y-87019969D01*
X138548787Y-87023177D01*
X138548792Y-87023182D01*
X138667056Y-87124189D01*
X138705866Y-87183639D01*
X138706372Y-87254634D01*
X138667056Y-87315811D01*
X138548792Y-87416818D01*
X138548787Y-87416823D01*
X138545031Y-87420031D01*
X138390824Y-87600584D01*
X138388245Y-87604792D01*
X138388241Y-87604798D01*
X138291785Y-87762200D01*
X138266760Y-87803037D01*
X138264867Y-87807607D01*
X138264865Y-87807611D01*
X138197524Y-87970189D01*
X138175895Y-88022406D01*
X138174740Y-88027218D01*
X138148170Y-88137891D01*
X138120465Y-88253289D01*
X138101835Y-88490000D01*
X138120465Y-88726711D01*
X138121619Y-88731518D01*
X138121620Y-88731524D01*
X138137703Y-88798512D01*
X138175895Y-88957594D01*
X138177788Y-88962165D01*
X138177789Y-88962167D01*
X138250396Y-89137456D01*
X138266760Y-89176963D01*
X138269346Y-89181183D01*
X138388241Y-89375202D01*
X138388245Y-89375208D01*
X138390824Y-89379416D01*
X138545031Y-89559969D01*
X138548787Y-89563177D01*
X138548792Y-89563182D01*
X138667056Y-89664189D01*
X138705866Y-89723639D01*
X138706372Y-89794634D01*
X138667056Y-89855811D01*
X138548792Y-89956818D01*
X138548787Y-89956823D01*
X138545031Y-89960031D01*
X138541823Y-89963787D01*
X138481686Y-90034198D01*
X138422235Y-90073007D01*
X138351240Y-90073513D01*
X138291242Y-90035557D01*
X138261289Y-89971188D01*
X138261101Y-89934831D01*
X138262452Y-89925221D01*
X138262452Y-89925218D01*
X138263001Y-89921313D01*
X138263299Y-89900000D01*
X138244331Y-89730892D01*
X138188368Y-89570189D01*
X138183990Y-89563182D01*
X138125880Y-89470189D01*
X138098192Y-89425879D01*
X138061911Y-89389343D01*
X137990640Y-89317573D01*
X137978286Y-89305132D01*
X137962039Y-89294821D01*
X137872331Y-89237891D01*
X137834608Y-89213951D01*
X137674300Y-89156868D01*
X137505329Y-89136720D01*
X137498326Y-89137456D01*
X137498325Y-89137456D01*
X137343101Y-89153770D01*
X137343097Y-89153771D01*
X137336093Y-89154507D01*
X137329422Y-89156778D01*
X137181673Y-89207075D01*
X137181670Y-89207076D01*
X137175003Y-89209346D01*
X137169005Y-89213036D01*
X137169003Y-89213037D01*
X137036065Y-89294821D01*
X137036063Y-89294823D01*
X137030066Y-89298512D01*
X136908486Y-89417573D01*
X136904675Y-89423487D01*
X136904673Y-89423489D01*
X136822022Y-89551737D01*
X136816304Y-89560610D01*
X136758103Y-89720516D01*
X136736775Y-89889343D01*
X136753381Y-90058699D01*
X136807094Y-90220167D01*
X136810741Y-90226189D01*
X136810742Y-90226191D01*
X136890723Y-90358254D01*
X136895246Y-90365723D01*
X137013455Y-90488132D01*
X137084650Y-90534721D01*
X137126958Y-90562406D01*
X137155846Y-90581310D01*
X137162450Y-90583766D01*
X137162452Y-90583767D01*
X137198844Y-90597301D01*
X137315341Y-90640626D01*
X137484015Y-90663132D01*
X137491026Y-90662494D01*
X137491030Y-90662494D01*
X137646462Y-90648348D01*
X137653483Y-90647709D01*
X137660185Y-90645531D01*
X137660187Y-90645531D01*
X137808623Y-90597301D01*
X137808626Y-90597300D01*
X137815322Y-90595124D01*
X137961490Y-90507990D01*
X137961495Y-90507998D01*
X138025210Y-90483746D01*
X138094684Y-90498372D01*
X138145221Y-90548237D01*
X138160777Y-90617508D01*
X138157560Y-90638776D01*
X138121925Y-90787208D01*
X138120465Y-90793289D01*
X138101835Y-91030000D01*
X138120465Y-91266711D01*
X138175895Y-91497594D01*
X138177788Y-91502165D01*
X138177789Y-91502167D01*
X138256644Y-91692540D01*
X138266760Y-91716963D01*
X138269346Y-91721183D01*
X138388241Y-91915202D01*
X138388245Y-91915208D01*
X138390824Y-91919416D01*
X138545031Y-92099969D01*
X138548787Y-92103177D01*
X138548792Y-92103182D01*
X138667056Y-92204189D01*
X138705866Y-92263639D01*
X138706372Y-92334634D01*
X138667056Y-92395811D01*
X138548792Y-92496818D01*
X138548787Y-92496823D01*
X138545031Y-92500031D01*
X138390824Y-92680584D01*
X138388245Y-92684792D01*
X138388241Y-92684798D01*
X138281061Y-92859700D01*
X138266760Y-92883037D01*
X138264867Y-92887607D01*
X138264865Y-92887611D01*
X138191229Y-93065385D01*
X138175895Y-93102406D01*
X138158137Y-93176374D01*
X138122244Y-93325879D01*
X138120465Y-93333289D01*
X138101835Y-93570000D01*
X138120465Y-93806711D01*
X138121619Y-93811518D01*
X138121620Y-93811524D01*
X138126501Y-93831854D01*
X138175895Y-94037594D01*
X138177788Y-94042165D01*
X138177789Y-94042167D01*
X138213138Y-94127506D01*
X138266760Y-94256963D01*
X138269346Y-94261183D01*
X138388241Y-94455202D01*
X138388245Y-94455208D01*
X138390824Y-94459416D01*
X138545031Y-94639969D01*
X138548787Y-94643177D01*
X138548792Y-94643182D01*
X138667056Y-94744189D01*
X138705866Y-94803639D01*
X138706372Y-94874634D01*
X138667056Y-94935811D01*
X138548792Y-95036818D01*
X138548787Y-95036823D01*
X138545031Y-95040031D01*
X138541823Y-95043787D01*
X138538473Y-95047709D01*
X138390824Y-95220584D01*
X138388245Y-95224792D01*
X138388241Y-95224798D01*
X138356346Y-95276846D01*
X138266760Y-95423037D01*
X138175895Y-95642406D01*
X138174740Y-95647218D01*
X138142179Y-95782845D01*
X138120465Y-95873289D01*
X138101835Y-96110000D01*
X138120465Y-96346711D01*
X138121619Y-96351518D01*
X138121620Y-96351524D01*
X138131524Y-96392775D01*
X138127977Y-96463683D01*
X138086657Y-96521417D01*
X138020684Y-96547647D01*
X137994087Y-96547303D01*
X137933649Y-96540097D01*
X137905329Y-96536720D01*
X137898326Y-96537456D01*
X137898325Y-96537456D01*
X137743101Y-96553770D01*
X137743097Y-96553771D01*
X137736093Y-96554507D01*
X137729422Y-96556778D01*
X137581673Y-96607075D01*
X137581670Y-96607076D01*
X137575003Y-96609346D01*
X137569005Y-96613036D01*
X137569003Y-96613037D01*
X137436065Y-96694821D01*
X137436063Y-96694823D01*
X137430066Y-96698512D01*
X137425033Y-96703441D01*
X137314791Y-96811399D01*
X137308486Y-96817573D01*
X137304675Y-96823487D01*
X137304673Y-96823489D01*
X137220121Y-96954687D01*
X137216304Y-96960610D01*
X137188176Y-97037891D01*
X137175724Y-97072104D01*
X137158103Y-97120516D01*
X137136775Y-97289343D01*
X137153381Y-97458699D01*
X137207094Y-97620167D01*
X137210741Y-97626189D01*
X137210742Y-97626191D01*
X137282306Y-97744356D01*
X137295246Y-97765723D01*
X137413455Y-97888132D01*
X137445809Y-97909304D01*
X137495099Y-97941558D01*
X137555846Y-97981310D01*
X137562450Y-97983766D01*
X137562452Y-97983767D01*
X137616752Y-98003961D01*
X137715341Y-98040626D01*
X137884015Y-98063132D01*
X137891026Y-98062494D01*
X137891030Y-98062494D01*
X138036741Y-98049233D01*
X138106395Y-98062978D01*
X138157559Y-98112200D01*
X138173990Y-98181269D01*
X138170680Y-98204128D01*
X138137505Y-98342314D01*
X138120465Y-98413289D01*
X138101835Y-98650000D01*
X138120465Y-98886711D01*
X138121619Y-98891518D01*
X138121620Y-98891524D01*
X138151920Y-99017730D01*
X138175895Y-99117594D01*
X138177788Y-99122165D01*
X138177789Y-99122167D01*
X138223223Y-99231854D01*
X138266760Y-99336963D01*
X138269346Y-99341183D01*
X138388241Y-99535202D01*
X138388245Y-99535208D01*
X138390824Y-99539416D01*
X138545031Y-99719969D01*
X138548787Y-99723177D01*
X138548792Y-99723182D01*
X138667056Y-99824189D01*
X138705866Y-99883639D01*
X138706372Y-99954634D01*
X138667056Y-100015811D01*
X138548792Y-100116818D01*
X138548787Y-100116823D01*
X138545031Y-100120031D01*
X138390824Y-100300584D01*
X138388245Y-100304792D01*
X138388241Y-100304798D01*
X138288701Y-100467232D01*
X138266760Y-100503037D01*
X138264867Y-100507607D01*
X138264865Y-100507611D01*
X138213801Y-100630892D01*
X138175895Y-100722406D01*
X138174740Y-100727218D01*
X138132506Y-100903136D01*
X138120465Y-100953289D01*
X138101835Y-101190000D01*
X138120465Y-101426711D01*
X138121619Y-101431518D01*
X138121620Y-101431524D01*
X138148037Y-101541558D01*
X138175895Y-101657594D01*
X138177788Y-101662165D01*
X138177789Y-101662167D01*
X138250396Y-101837456D01*
X138266760Y-101876963D01*
X138269346Y-101881183D01*
X138388241Y-102075202D01*
X138388245Y-102075208D01*
X138390824Y-102079416D01*
X138545031Y-102259969D01*
X138548787Y-102263177D01*
X138548792Y-102263182D01*
X138667056Y-102364189D01*
X138705866Y-102423639D01*
X138706372Y-102494634D01*
X138667056Y-102555811D01*
X138548792Y-102656818D01*
X138548787Y-102656823D01*
X138545031Y-102660031D01*
X138390824Y-102840584D01*
X138388245Y-102844792D01*
X138388241Y-102844798D01*
X138269346Y-103038817D01*
X138266760Y-103043037D01*
X138264867Y-103047607D01*
X138264865Y-103047611D01*
X138189071Y-103230595D01*
X138175895Y-103262406D01*
X138120465Y-103493289D01*
X138101835Y-103730000D01*
X138120465Y-103966711D01*
X138175895Y-104197594D01*
X138266760Y-104416963D01*
X138269346Y-104421183D01*
X138388241Y-104615202D01*
X138388245Y-104615208D01*
X138390824Y-104619416D01*
X138545031Y-104799969D01*
X138548787Y-104803177D01*
X138548792Y-104803182D01*
X138667056Y-104904189D01*
X138705866Y-104963639D01*
X138706372Y-105034634D01*
X138667056Y-105095811D01*
X138548792Y-105196818D01*
X138548787Y-105196823D01*
X138545031Y-105200031D01*
X138390824Y-105380584D01*
X138388245Y-105384792D01*
X138388241Y-105384798D01*
X138269346Y-105578817D01*
X138266760Y-105583037D01*
X138175895Y-105802406D01*
X138120465Y-106033289D01*
X138101835Y-106270000D01*
X138120465Y-106506711D01*
X138175895Y-106737594D01*
X138266760Y-106956963D01*
X138269346Y-106961183D01*
X138388241Y-107155202D01*
X138388245Y-107155208D01*
X138390824Y-107159416D01*
X138545031Y-107339969D01*
X138548787Y-107343177D01*
X138548792Y-107343182D01*
X138667056Y-107444189D01*
X138705866Y-107503639D01*
X138706372Y-107574634D01*
X138667056Y-107635811D01*
X138548792Y-107736818D01*
X138548787Y-107736823D01*
X138545031Y-107740031D01*
X138390824Y-107920584D01*
X138388245Y-107924792D01*
X138388241Y-107924798D01*
X138299145Y-108070189D01*
X138266760Y-108123037D01*
X138175895Y-108342406D01*
X138120465Y-108573289D01*
X138101835Y-108810000D01*
X138120465Y-109046711D01*
X138121619Y-109051518D01*
X138121620Y-109051524D01*
X138144712Y-109147709D01*
X138175895Y-109277594D01*
X138266760Y-109496963D01*
X138269346Y-109501183D01*
X138388241Y-109695202D01*
X138388245Y-109695208D01*
X138390824Y-109699416D01*
X138545031Y-109879969D01*
X138548787Y-109883177D01*
X138548792Y-109883182D01*
X138667056Y-109984189D01*
X138705866Y-110043639D01*
X138706372Y-110114634D01*
X138667056Y-110175811D01*
X138548792Y-110276818D01*
X138548787Y-110276823D01*
X138545031Y-110280031D01*
X138390824Y-110460584D01*
X138388245Y-110464792D01*
X138388241Y-110464798D01*
X138269346Y-110658817D01*
X138266760Y-110663037D01*
X138175895Y-110882406D01*
X138120465Y-111113289D01*
X138101835Y-111350000D01*
X138120465Y-111586711D01*
X138175895Y-111817594D01*
X138266760Y-112036963D01*
X138269346Y-112041183D01*
X138388241Y-112235202D01*
X138388245Y-112235208D01*
X138390824Y-112239416D01*
X138545031Y-112419969D01*
X138548787Y-112423177D01*
X138548792Y-112423182D01*
X138667056Y-112524189D01*
X138705866Y-112583639D01*
X138706372Y-112654634D01*
X138667056Y-112715811D01*
X138548792Y-112816818D01*
X138548787Y-112816823D01*
X138545031Y-112820031D01*
X138390824Y-113000584D01*
X138388245Y-113004792D01*
X138388241Y-113004798D01*
X138269346Y-113198817D01*
X138266760Y-113203037D01*
X138175895Y-113422406D01*
X138120465Y-113653289D01*
X138101835Y-113890000D01*
X138120465Y-114126711D01*
X138175895Y-114357594D01*
X138266760Y-114576963D01*
X138269346Y-114581183D01*
X138388241Y-114775202D01*
X138388245Y-114775208D01*
X138390824Y-114779416D01*
X138545031Y-114959969D01*
X138548787Y-114963177D01*
X138548792Y-114963182D01*
X138667056Y-115064189D01*
X138705866Y-115123639D01*
X138706372Y-115194634D01*
X138667056Y-115255811D01*
X138548792Y-115356818D01*
X138548787Y-115356823D01*
X138545031Y-115360031D01*
X138390824Y-115540584D01*
X138388245Y-115544792D01*
X138388241Y-115544798D01*
X138269346Y-115738817D01*
X138266760Y-115743037D01*
X138175895Y-115962406D01*
X138120465Y-116193289D01*
X138101835Y-116430000D01*
X138120465Y-116666711D01*
X138121619Y-116671518D01*
X138121620Y-116671524D01*
X138143434Y-116762386D01*
X138175895Y-116897594D01*
X138177788Y-116902165D01*
X138177789Y-116902167D01*
X138235702Y-117041981D01*
X138266760Y-117116963D01*
X138269346Y-117121183D01*
X138388241Y-117315202D01*
X138388245Y-117315208D01*
X138390824Y-117319416D01*
X138504197Y-117452158D01*
X138535956Y-117489343D01*
X138545031Y-117499969D01*
X138548787Y-117503177D01*
X138548792Y-117503182D01*
X138667056Y-117604189D01*
X138705866Y-117663639D01*
X138706372Y-117734634D01*
X138667056Y-117795811D01*
X138548792Y-117896818D01*
X138548787Y-117896823D01*
X138545031Y-117900031D01*
X138390824Y-118080584D01*
X138388245Y-118084792D01*
X138388241Y-118084798D01*
X138287709Y-118248852D01*
X138266760Y-118283037D01*
X138264867Y-118287607D01*
X138264865Y-118287611D01*
X138200473Y-118443069D01*
X138175895Y-118502406D01*
X138156640Y-118582609D01*
X138132201Y-118684406D01*
X138120465Y-118733289D01*
X138101835Y-118970000D01*
X138120465Y-119206711D01*
X138175895Y-119437594D01*
X138177788Y-119442165D01*
X138177789Y-119442167D01*
X138263368Y-119648773D01*
X138266760Y-119656963D01*
X138269346Y-119661183D01*
X138388241Y-119855202D01*
X138388245Y-119855208D01*
X138390824Y-119859416D01*
X138545031Y-120039969D01*
X138548787Y-120043177D01*
X138548792Y-120043182D01*
X138667056Y-120144189D01*
X138705866Y-120203639D01*
X138706372Y-120274634D01*
X138667056Y-120335811D01*
X138548792Y-120436818D01*
X138548787Y-120436823D01*
X138545031Y-120440031D01*
X138390824Y-120620584D01*
X138295816Y-120775621D01*
X138288831Y-120781942D01*
X138280014Y-120801406D01*
X138269351Y-120818808D01*
X138269348Y-120818813D01*
X138266760Y-120823037D01*
X138264867Y-120827607D01*
X138264865Y-120827611D01*
X138194578Y-120997301D01*
X138175895Y-121042406D01*
X138120465Y-121273289D01*
X138101835Y-121510000D01*
X138120465Y-121746711D01*
X138175895Y-121977594D01*
X138266760Y-122196963D01*
X138269346Y-122201183D01*
X138388241Y-122395202D01*
X138388245Y-122395208D01*
X138390824Y-122399416D01*
X138545031Y-122579969D01*
X138725584Y-122734176D01*
X138729799Y-122736759D01*
X138729802Y-122736761D01*
X138749026Y-122748542D01*
X138796657Y-122801190D01*
X138808263Y-122871232D01*
X138780159Y-122936429D01*
X138721268Y-122976082D01*
X138709392Y-122979220D01*
X138590030Y-123004591D01*
X138585901Y-123006094D01*
X138585897Y-123006095D01*
X138330219Y-123099154D01*
X138330215Y-123099156D01*
X138326074Y-123100663D01*
X138078058Y-123232536D01*
X138074499Y-123235122D01*
X138074497Y-123235123D01*
X137949933Y-123325624D01*
X137850808Y-123397642D01*
X137847644Y-123400698D01*
X137847641Y-123400700D01*
X137803949Y-123442893D01*
X137648748Y-123592769D01*
X137554070Y-123713952D01*
X137541979Y-123729428D01*
X137484278Y-123770794D01*
X137413372Y-123774397D01*
X137351775Y-123739094D01*
X137319565Y-123678621D01*
X137314748Y-123656460D01*
X136745049Y-121035846D01*
X136750123Y-120965031D01*
X136792678Y-120908201D01*
X136859202Y-120883400D01*
X136928574Y-120898501D01*
X136937165Y-120903648D01*
X137055846Y-120981310D01*
X137062450Y-120983766D01*
X137062452Y-120983767D01*
X137098844Y-120997301D01*
X137215341Y-121040626D01*
X137384015Y-121063132D01*
X137391026Y-121062494D01*
X137391030Y-121062494D01*
X137546462Y-121048348D01*
X137553483Y-121047709D01*
X137560185Y-121045531D01*
X137560187Y-121045531D01*
X137708623Y-120997301D01*
X137708626Y-120997300D01*
X137715322Y-120995124D01*
X137861490Y-120907990D01*
X137866584Y-120903139D01*
X137866588Y-120903136D01*
X137945896Y-120827611D01*
X137984721Y-120790639D01*
X138067634Y-120665846D01*
X138072669Y-120661615D01*
X138075777Y-120653589D01*
X138078891Y-120648902D01*
X138139319Y-120489825D01*
X138163001Y-120321313D01*
X138163299Y-120300000D01*
X138144331Y-120130892D01*
X138088368Y-119970189D01*
X138082383Y-119960610D01*
X138049094Y-119907339D01*
X137998192Y-119825879D01*
X137878286Y-119705132D01*
X137870359Y-119700101D01*
X137811296Y-119662619D01*
X137734608Y-119613951D01*
X137574300Y-119556868D01*
X137405329Y-119536720D01*
X137398326Y-119537456D01*
X137398325Y-119537456D01*
X137243101Y-119553770D01*
X137243097Y-119553771D01*
X137236093Y-119554507D01*
X137229422Y-119556778D01*
X137081673Y-119607075D01*
X137081670Y-119607076D01*
X137075003Y-119609346D01*
X137069005Y-119613036D01*
X137069003Y-119613037D01*
X136936065Y-119694821D01*
X136936063Y-119694823D01*
X136930066Y-119698512D01*
X136874732Y-119752700D01*
X136827388Y-119799063D01*
X136808486Y-119817573D01*
X136804675Y-119823487D01*
X136804673Y-119823489D01*
X136728960Y-119940972D01*
X136675245Y-119987396D01*
X136604958Y-119997411D01*
X136540415Y-119967835D01*
X136501901Y-119907342D01*
X136493910Y-119879384D01*
X136491942Y-119871551D01*
X136489608Y-119860815D01*
X136489608Y-119860814D01*
X136488657Y-119856441D01*
X136484746Y-119845934D01*
X136481696Y-119836650D01*
X136468488Y-119790435D01*
X136463697Y-119782842D01*
X136461591Y-119778134D01*
X136456338Y-119767520D01*
X136453883Y-119763010D01*
X136450753Y-119754601D01*
X136422031Y-119716087D01*
X136416476Y-119707999D01*
X136395630Y-119674961D01*
X136390840Y-119667369D01*
X136384113Y-119661428D01*
X136380794Y-119657528D01*
X136372734Y-119648773D01*
X136369126Y-119645148D01*
X136363760Y-119637953D01*
X136325363Y-119609034D01*
X136317780Y-119602845D01*
X136315045Y-119600429D01*
X136281772Y-119571044D01*
X136273648Y-119567229D01*
X136269360Y-119564413D01*
X136259180Y-119558280D01*
X136254696Y-119555811D01*
X136247524Y-119550410D01*
X136202586Y-119533443D01*
X136193547Y-119529621D01*
X136158180Y-119513016D01*
X136158173Y-119513014D01*
X136150052Y-119509201D01*
X136141182Y-119507820D01*
X136136265Y-119506317D01*
X136124797Y-119503294D01*
X136119784Y-119502179D01*
X136111390Y-119499010D01*
X136063484Y-119495336D01*
X136053739Y-119494205D01*
X136044384Y-119492748D01*
X136044379Y-119492748D01*
X136039577Y-119492000D01*
X136024807Y-119492000D01*
X136015172Y-119491631D01*
X136013543Y-119491506D01*
X136009674Y-119491209D01*
X135975249Y-119488569D01*
X135975247Y-119488569D01*
X135966301Y-119487883D01*
X135957523Y-119489735D01*
X135951613Y-119490124D01*
X135933639Y-119492000D01*
X117872772Y-119492000D01*
X117861626Y-119491506D01*
X117854134Y-119490841D01*
X117845400Y-119488788D01*
X117836442Y-119489269D01*
X117836440Y-119489269D01*
X117788979Y-119491819D01*
X117782220Y-119492000D01*
X117763523Y-119492000D01*
X117759083Y-119492636D01*
X117759082Y-119492636D01*
X117755798Y-119493106D01*
X117744695Y-119494198D01*
X117709058Y-119496112D01*
X117709055Y-119496113D01*
X117700094Y-119496594D01*
X117691627Y-119499571D01*
X117691624Y-119499572D01*
X117690232Y-119500062D01*
X117666302Y-119505923D01*
X117655955Y-119507405D01*
X117647789Y-119511118D01*
X117647785Y-119511119D01*
X117615297Y-119525891D01*
X117604964Y-119530048D01*
X117562821Y-119544868D01*
X117554720Y-119550683D01*
X117554335Y-119550960D01*
X117533002Y-119563308D01*
X117523490Y-119567633D01*
X117516696Y-119573487D01*
X117516693Y-119573489D01*
X117489653Y-119596788D01*
X117480891Y-119603686D01*
X117444614Y-119629730D01*
X117439080Y-119636807D01*
X117438176Y-119637962D01*
X117421174Y-119655794D01*
X117413253Y-119662619D01*
X117408373Y-119670147D01*
X117408372Y-119670149D01*
X117388959Y-119700101D01*
X117382495Y-119709168D01*
X117354976Y-119744359D01*
X117351109Y-119754064D01*
X117339790Y-119775959D01*
X117334107Y-119784727D01*
X117321305Y-119827534D01*
X117317643Y-119838053D01*
X117313591Y-119848223D01*
X117312507Y-119852964D01*
X117312506Y-119852968D01*
X117309561Y-119865849D01*
X117307450Y-119873860D01*
X117292413Y-119924141D01*
X117292358Y-119933118D01*
X117291031Y-119941998D01*
X117290719Y-119941951D01*
X117289226Y-119954818D01*
X116444156Y-123652001D01*
X116409478Y-123713952D01*
X116346812Y-123747320D01*
X116276053Y-123741511D01*
X116222582Y-123701903D01*
X116221585Y-123700424D01*
X116201954Y-123678621D01*
X116036566Y-123494940D01*
X116033629Y-123491678D01*
X115818450Y-123311121D01*
X115580236Y-123162269D01*
X115323625Y-123048018D01*
X115194977Y-123011129D01*
X115100667Y-122984086D01*
X115040698Y-122946082D01*
X115010796Y-122881690D01*
X115020453Y-122811353D01*
X115069563Y-122755534D01*
X115100197Y-122736762D01*
X115100202Y-122736758D01*
X115104416Y-122734176D01*
X115284969Y-122579969D01*
X115439176Y-122399416D01*
X115441755Y-122395208D01*
X115441759Y-122395202D01*
X115560654Y-122201183D01*
X115563240Y-122196963D01*
X115654105Y-121977594D01*
X115709535Y-121746711D01*
X115728165Y-121510000D01*
X115709535Y-121273289D01*
X115654105Y-121042406D01*
X115635422Y-120997301D01*
X115565135Y-120827611D01*
X115565133Y-120827607D01*
X115563240Y-120823037D01*
X115560648Y-120818808D01*
X115441759Y-120624798D01*
X115441755Y-120624792D01*
X115439176Y-120620584D01*
X115284969Y-120440031D01*
X115281213Y-120436823D01*
X115281208Y-120436818D01*
X115162944Y-120335811D01*
X115124134Y-120276361D01*
X115123628Y-120205366D01*
X115162944Y-120144189D01*
X115281208Y-120043182D01*
X115281213Y-120043177D01*
X115284969Y-120039969D01*
X115439176Y-119859416D01*
X115441755Y-119855208D01*
X115441759Y-119855202D01*
X115560654Y-119661183D01*
X115563240Y-119656963D01*
X115566633Y-119648773D01*
X115652211Y-119442167D01*
X115652212Y-119442165D01*
X115654105Y-119437594D01*
X115709535Y-119206711D01*
X115728165Y-118970000D01*
X115709535Y-118733289D01*
X115697800Y-118684406D01*
X115673360Y-118582609D01*
X115654105Y-118502406D01*
X115588531Y-118344095D01*
X115580942Y-118273506D01*
X115612721Y-118210019D01*
X115673779Y-118173792D01*
X115744731Y-118176326D01*
X115754350Y-118180331D01*
X115755846Y-118181310D01*
X115915341Y-118240626D01*
X116084015Y-118263132D01*
X116091026Y-118262494D01*
X116091030Y-118262494D01*
X116246462Y-118248348D01*
X116253483Y-118247709D01*
X116260185Y-118245531D01*
X116260187Y-118245531D01*
X116408623Y-118197301D01*
X116408626Y-118197300D01*
X116415322Y-118195124D01*
X116561490Y-118107990D01*
X116566584Y-118103139D01*
X116566588Y-118103136D01*
X116658088Y-118016001D01*
X116684721Y-117990639D01*
X116778891Y-117848902D01*
X116779697Y-117846781D01*
X118611868Y-117846781D01*
X118621436Y-118053502D01*
X118622840Y-118059327D01*
X118622840Y-118059328D01*
X118665941Y-118238169D01*
X118669921Y-118254685D01*
X118672403Y-118260143D01*
X118672404Y-118260147D01*
X118696531Y-118313211D01*
X118755574Y-118443069D01*
X118875305Y-118611858D01*
X118879628Y-118615996D01*
X118879632Y-118616001D01*
X118959694Y-118692643D01*
X119024792Y-118754961D01*
X119029827Y-118758212D01*
X119193606Y-118863963D01*
X119193609Y-118863964D01*
X119198643Y-118867215D01*
X119390584Y-118944570D01*
X119396465Y-118945718D01*
X119396470Y-118945720D01*
X119589244Y-118983366D01*
X119589247Y-118983366D01*
X119593690Y-118984234D01*
X119599129Y-118984500D01*
X119751704Y-118984500D01*
X119906007Y-118969778D01*
X119922055Y-118965070D01*
X120098827Y-118913211D01*
X120098829Y-118913210D01*
X120104580Y-118911523D01*
X120186257Y-118869457D01*
X120283225Y-118819516D01*
X120283228Y-118819514D01*
X120288556Y-118816770D01*
X120451294Y-118688937D01*
X120586924Y-118532637D01*
X120690552Y-118353510D01*
X120758438Y-118158019D01*
X120759483Y-118150816D01*
X120787271Y-117959159D01*
X120787271Y-117959156D01*
X120788132Y-117953219D01*
X120778564Y-117746498D01*
X120730079Y-117545315D01*
X120717372Y-117517366D01*
X120646906Y-117362386D01*
X120644426Y-117356931D01*
X120566291Y-117246781D01*
X134911868Y-117246781D01*
X134921436Y-117453502D01*
X134922840Y-117459327D01*
X134922840Y-117459328D01*
X134947990Y-117563683D01*
X134969921Y-117654685D01*
X134972403Y-117660143D01*
X134972404Y-117660147D01*
X135009016Y-117740670D01*
X135055574Y-117843069D01*
X135175305Y-118011858D01*
X135179628Y-118015996D01*
X135179632Y-118016001D01*
X135279490Y-118111594D01*
X135324792Y-118154961D01*
X135329827Y-118158212D01*
X135493606Y-118263963D01*
X135493609Y-118263964D01*
X135498643Y-118267215D01*
X135690584Y-118344570D01*
X135696465Y-118345718D01*
X135696470Y-118345720D01*
X135889244Y-118383366D01*
X135889247Y-118383366D01*
X135893690Y-118384234D01*
X135899129Y-118384500D01*
X136051704Y-118384500D01*
X136206007Y-118369778D01*
X136280780Y-118347842D01*
X136398827Y-118313211D01*
X136398829Y-118313210D01*
X136404580Y-118311523D01*
X136409914Y-118308776D01*
X136583225Y-118219516D01*
X136583228Y-118219514D01*
X136588556Y-118216770D01*
X136751294Y-118088937D01*
X136758543Y-118080584D01*
X136832376Y-117995498D01*
X136886924Y-117932637D01*
X136990552Y-117753510D01*
X137058438Y-117558019D01*
X137059435Y-117551148D01*
X137087271Y-117359159D01*
X137087271Y-117359156D01*
X137088132Y-117353219D01*
X137078564Y-117146498D01*
X137040109Y-116986934D01*
X137031485Y-116951148D01*
X137031484Y-116951146D01*
X137030079Y-116945315D01*
X137005486Y-116891224D01*
X136946906Y-116762386D01*
X136944426Y-116756931D01*
X136824695Y-116588142D01*
X136820372Y-116584004D01*
X136820368Y-116583999D01*
X136679538Y-116449184D01*
X136675208Y-116445039D01*
X136575230Y-116380484D01*
X136506394Y-116336037D01*
X136506391Y-116336036D01*
X136501357Y-116332785D01*
X136309416Y-116255430D01*
X136303535Y-116254282D01*
X136303530Y-116254280D01*
X136110756Y-116216634D01*
X136110753Y-116216634D01*
X136106310Y-116215766D01*
X136100871Y-116215500D01*
X135948296Y-116215500D01*
X135793993Y-116230222D01*
X135788239Y-116231910D01*
X135601173Y-116286789D01*
X135601171Y-116286790D01*
X135595420Y-116288477D01*
X135590087Y-116291223D01*
X135590086Y-116291224D01*
X135416775Y-116380484D01*
X135416772Y-116380486D01*
X135411444Y-116383230D01*
X135248706Y-116511063D01*
X135113076Y-116667363D01*
X135009448Y-116846490D01*
X134941562Y-117041981D01*
X134940702Y-117047914D01*
X134940701Y-117047917D01*
X134912729Y-117240841D01*
X134911868Y-117246781D01*
X120566291Y-117246781D01*
X120524695Y-117188142D01*
X120520372Y-117184004D01*
X120520368Y-117183999D01*
X120379538Y-117049184D01*
X120375208Y-117045039D01*
X120275230Y-116980484D01*
X120206394Y-116936037D01*
X120206391Y-116936036D01*
X120201357Y-116932785D01*
X120009416Y-116855430D01*
X120003535Y-116854282D01*
X120003530Y-116854280D01*
X119810756Y-116816634D01*
X119810753Y-116816634D01*
X119806310Y-116815766D01*
X119800871Y-116815500D01*
X119648296Y-116815500D01*
X119493993Y-116830222D01*
X119488239Y-116831910D01*
X119301173Y-116886789D01*
X119301171Y-116886790D01*
X119295420Y-116888477D01*
X119290087Y-116891223D01*
X119290086Y-116891224D01*
X119116775Y-116980484D01*
X119116772Y-116980486D01*
X119111444Y-116983230D01*
X118948706Y-117111063D01*
X118944775Y-117115593D01*
X118944774Y-117115594D01*
X118885415Y-117183999D01*
X118813076Y-117267363D01*
X118709448Y-117446490D01*
X118641562Y-117641981D01*
X118640702Y-117647914D01*
X118640701Y-117647917D01*
X118625391Y-117753510D01*
X118611868Y-117846781D01*
X116779697Y-117846781D01*
X116839319Y-117689825D01*
X116863001Y-117521313D01*
X116863299Y-117500000D01*
X116844331Y-117330892D01*
X116788368Y-117170189D01*
X116698192Y-117025879D01*
X116578286Y-116905132D01*
X116434608Y-116813951D01*
X116274300Y-116756868D01*
X116105329Y-116736720D01*
X116098326Y-116737456D01*
X116098325Y-116737456D01*
X115943101Y-116753770D01*
X115943097Y-116753771D01*
X115936093Y-116754507D01*
X115924873Y-116758327D01*
X115877436Y-116774475D01*
X115806503Y-116777493D01*
X115745200Y-116741682D01*
X115712988Y-116678413D01*
X115711219Y-116645311D01*
X115715719Y-116588142D01*
X115728165Y-116430000D01*
X115709535Y-116193289D01*
X115654105Y-115962406D01*
X115563240Y-115743037D01*
X115560654Y-115738817D01*
X115441759Y-115544798D01*
X115441755Y-115544792D01*
X115439176Y-115540584D01*
X115284969Y-115360031D01*
X115281213Y-115356823D01*
X115281208Y-115356818D01*
X115162944Y-115255811D01*
X115124134Y-115196361D01*
X115123628Y-115125366D01*
X115162944Y-115064189D01*
X115281208Y-114963182D01*
X115281213Y-114963177D01*
X115284969Y-114959969D01*
X115439176Y-114779416D01*
X115441755Y-114775208D01*
X115441759Y-114775202D01*
X115560654Y-114581183D01*
X115563240Y-114576963D01*
X115654105Y-114357594D01*
X115709535Y-114126711D01*
X115728165Y-113890000D01*
X115709535Y-113653289D01*
X115654105Y-113422406D01*
X115563240Y-113203037D01*
X115560654Y-113198817D01*
X115441759Y-113004798D01*
X115441755Y-113004792D01*
X115439176Y-113000584D01*
X115284969Y-112820031D01*
X115281213Y-112816823D01*
X115281208Y-112816818D01*
X115162944Y-112715811D01*
X115124134Y-112656361D01*
X115123628Y-112585366D01*
X115162944Y-112524189D01*
X115281208Y-112423182D01*
X115281213Y-112423177D01*
X115284969Y-112419969D01*
X115439176Y-112239416D01*
X115441755Y-112235208D01*
X115441759Y-112235202D01*
X115560654Y-112041183D01*
X115563240Y-112036963D01*
X115654105Y-111817594D01*
X115709535Y-111586711D01*
X115728165Y-111350000D01*
X115709535Y-111113289D01*
X115654105Y-110882406D01*
X115563240Y-110663037D01*
X115560654Y-110658817D01*
X115441759Y-110464798D01*
X115441755Y-110464792D01*
X115439176Y-110460584D01*
X115284969Y-110280031D01*
X115281213Y-110276823D01*
X115281208Y-110276818D01*
X115162944Y-110175811D01*
X115124134Y-110116361D01*
X115123628Y-110045366D01*
X115162944Y-109984189D01*
X115281208Y-109883182D01*
X115281213Y-109883177D01*
X115284969Y-109879969D01*
X115439176Y-109699416D01*
X115441755Y-109695208D01*
X115441759Y-109695202D01*
X115560654Y-109501183D01*
X115563240Y-109496963D01*
X115654105Y-109277594D01*
X115672517Y-109200902D01*
X115707869Y-109139333D01*
X115770896Y-109106650D01*
X115838954Y-109112218D01*
X115915341Y-109140626D01*
X116084015Y-109163132D01*
X116091026Y-109162494D01*
X116091030Y-109162494D01*
X116246462Y-109148348D01*
X116253483Y-109147709D01*
X116260185Y-109145531D01*
X116260187Y-109145531D01*
X116408623Y-109097301D01*
X116408626Y-109097300D01*
X116415322Y-109095124D01*
X116561490Y-109007990D01*
X116566584Y-109003139D01*
X116566588Y-109003136D01*
X116633833Y-108939099D01*
X116684721Y-108890639D01*
X116778891Y-108748902D01*
X116839319Y-108589825D01*
X116840950Y-108578223D01*
X116842614Y-108566381D01*
X116863001Y-108421313D01*
X116863299Y-108400000D01*
X116844331Y-108230892D01*
X116788368Y-108070189D01*
X116698192Y-107925879D01*
X116578286Y-107805132D01*
X116562039Y-107794821D01*
X116488675Y-107748263D01*
X116434608Y-107713951D01*
X116274300Y-107656868D01*
X116105329Y-107636720D01*
X116098326Y-107637456D01*
X116098325Y-107637456D01*
X115943101Y-107653770D01*
X115943097Y-107653771D01*
X115936093Y-107654507D01*
X115929422Y-107656778D01*
X115781673Y-107707075D01*
X115781670Y-107707076D01*
X115775003Y-107709346D01*
X115769005Y-107713036D01*
X115769003Y-107713037D01*
X115636065Y-107794821D01*
X115636063Y-107794823D01*
X115630066Y-107798512D01*
X115618204Y-107810129D01*
X115565713Y-107861532D01*
X115503048Y-107894903D01*
X115432290Y-107889097D01*
X115381744Y-107853339D01*
X115288182Y-107743792D01*
X115288177Y-107743787D01*
X115284969Y-107740031D01*
X115281213Y-107736823D01*
X115281208Y-107736818D01*
X115162944Y-107635811D01*
X115124134Y-107576361D01*
X115123628Y-107505366D01*
X115162944Y-107444189D01*
X115281208Y-107343182D01*
X115281213Y-107343177D01*
X115284969Y-107339969D01*
X115439176Y-107159416D01*
X115441755Y-107155208D01*
X115441759Y-107155202D01*
X115560654Y-106961183D01*
X115563240Y-106956963D01*
X115654105Y-106737594D01*
X115709535Y-106506711D01*
X115728165Y-106270000D01*
X115709535Y-106033289D01*
X115654105Y-105802406D01*
X115563240Y-105583037D01*
X115560654Y-105578817D01*
X115441759Y-105384798D01*
X115441755Y-105384792D01*
X115439176Y-105380584D01*
X115284969Y-105200031D01*
X115281213Y-105196823D01*
X115281208Y-105196818D01*
X115162944Y-105095811D01*
X115124134Y-105036361D01*
X115123628Y-104965366D01*
X115162944Y-104904189D01*
X115281208Y-104803182D01*
X115281213Y-104803177D01*
X115284969Y-104799969D01*
X115439176Y-104619416D01*
X115441755Y-104615208D01*
X115441759Y-104615202D01*
X115560654Y-104421183D01*
X115563240Y-104416963D01*
X115654105Y-104197594D01*
X115709535Y-103966711D01*
X115728165Y-103730000D01*
X115709535Y-103493289D01*
X115677352Y-103359237D01*
X115680899Y-103288329D01*
X115722219Y-103230595D01*
X115788193Y-103204365D01*
X115857874Y-103217967D01*
X115868855Y-103224385D01*
X115955846Y-103281310D01*
X115962450Y-103283766D01*
X115962452Y-103283767D01*
X115998844Y-103297301D01*
X116115341Y-103340626D01*
X116284015Y-103363132D01*
X116291026Y-103362494D01*
X116291030Y-103362494D01*
X116446462Y-103348348D01*
X116453483Y-103347709D01*
X116460185Y-103345531D01*
X116460187Y-103345531D01*
X116608623Y-103297301D01*
X116608626Y-103297300D01*
X116615322Y-103295124D01*
X116761490Y-103207990D01*
X116766584Y-103203139D01*
X116766588Y-103203136D01*
X116833833Y-103139099D01*
X116884721Y-103090639D01*
X116978891Y-102948902D01*
X117039319Y-102789825D01*
X117048487Y-102724587D01*
X117062450Y-102625236D01*
X117062450Y-102625231D01*
X117063001Y-102621313D01*
X117063046Y-102618106D01*
X117088154Y-102551878D01*
X117145217Y-102509637D01*
X117216059Y-102504953D01*
X117232528Y-102509828D01*
X117315341Y-102540626D01*
X117484015Y-102563132D01*
X117491026Y-102562494D01*
X117491030Y-102562494D01*
X117646462Y-102548348D01*
X117653483Y-102547709D01*
X117660185Y-102545531D01*
X117660187Y-102545531D01*
X117808623Y-102497301D01*
X117808626Y-102497300D01*
X117815322Y-102495124D01*
X117961490Y-102407990D01*
X117966584Y-102403139D01*
X117966588Y-102403136D01*
X118033833Y-102339099D01*
X118084721Y-102290639D01*
X118102964Y-102263182D01*
X118174990Y-102154773D01*
X118178891Y-102148902D01*
X118239319Y-101989825D01*
X118263001Y-101821313D01*
X118263299Y-101800000D01*
X118244331Y-101630892D01*
X118188368Y-101470189D01*
X118182383Y-101460610D01*
X118137092Y-101388132D01*
X118098192Y-101325879D01*
X118063198Y-101290639D01*
X117983248Y-101210129D01*
X117978286Y-101205132D01*
X117962211Y-101194930D01*
X117889682Y-101148902D01*
X117834608Y-101113951D01*
X117674300Y-101056868D01*
X117505329Y-101036720D01*
X117498326Y-101037456D01*
X117498325Y-101037456D01*
X117343101Y-101053770D01*
X117343097Y-101053771D01*
X117336093Y-101054507D01*
X117329422Y-101056778D01*
X117181673Y-101107075D01*
X117181670Y-101107076D01*
X117175003Y-101109346D01*
X117169005Y-101113036D01*
X117169003Y-101113037D01*
X117036065Y-101194821D01*
X117036063Y-101194823D01*
X117030066Y-101198512D01*
X116908486Y-101317573D01*
X116904675Y-101323487D01*
X116904673Y-101323489D01*
X116835049Y-101431524D01*
X116816304Y-101460610D01*
X116758103Y-101620516D01*
X116757220Y-101627506D01*
X116736954Y-101787925D01*
X116708572Y-101853002D01*
X116649512Y-101892403D01*
X116578526Y-101893620D01*
X116569691Y-101890835D01*
X116474300Y-101856868D01*
X116305329Y-101836720D01*
X116298326Y-101837456D01*
X116298325Y-101837456D01*
X116143101Y-101853770D01*
X116143097Y-101853771D01*
X116136093Y-101854507D01*
X116129422Y-101856778D01*
X115981673Y-101907075D01*
X115981670Y-101907076D01*
X115975003Y-101909346D01*
X115969005Y-101913036D01*
X115969003Y-101913037D01*
X115836065Y-101994821D01*
X115836063Y-101994823D01*
X115830066Y-101998512D01*
X115708486Y-102117573D01*
X115708237Y-102117319D01*
X115653015Y-102155181D01*
X115637111Y-102155655D01*
X115641048Y-102164115D01*
X115631446Y-102234460D01*
X115622374Y-102251192D01*
X115616304Y-102260610D01*
X115558103Y-102420516D01*
X115536775Y-102589343D01*
X115537463Y-102596360D01*
X115537463Y-102596362D01*
X115538146Y-102603331D01*
X115524889Y-102673079D01*
X115476027Y-102724587D01*
X115407075Y-102741501D01*
X115339924Y-102718452D01*
X115316938Y-102697460D01*
X115288184Y-102663794D01*
X115288177Y-102663787D01*
X115284969Y-102660031D01*
X115281213Y-102656823D01*
X115281208Y-102656818D01*
X115162944Y-102555811D01*
X115124134Y-102496361D01*
X115123628Y-102425366D01*
X115162944Y-102364189D01*
X115281208Y-102263182D01*
X115281213Y-102263177D01*
X115284969Y-102259969D01*
X115420651Y-102101106D01*
X115480101Y-102062297D01*
X115492351Y-102062210D01*
X115489801Y-102057039D01*
X115497805Y-101986495D01*
X115506495Y-101969562D01*
X115560654Y-101881183D01*
X115563240Y-101876963D01*
X115579605Y-101837456D01*
X115652211Y-101662167D01*
X115652212Y-101662165D01*
X115654105Y-101657594D01*
X115681963Y-101541558D01*
X115708380Y-101431524D01*
X115708381Y-101431518D01*
X115709535Y-101426711D01*
X115728165Y-101190000D01*
X115725899Y-101161203D01*
X115740496Y-101091723D01*
X115790339Y-101041164D01*
X115859603Y-101025578D01*
X115895430Y-101033221D01*
X115915341Y-101040626D01*
X116084015Y-101063132D01*
X116091026Y-101062494D01*
X116091030Y-101062494D01*
X116246462Y-101048348D01*
X116253483Y-101047709D01*
X116260185Y-101045531D01*
X116260187Y-101045531D01*
X116408623Y-100997301D01*
X116408626Y-100997300D01*
X116415322Y-100995124D01*
X116561490Y-100907990D01*
X116566584Y-100903139D01*
X116566588Y-100903136D01*
X116670731Y-100803961D01*
X116684721Y-100790639D01*
X116778891Y-100648902D01*
X116839319Y-100489825D01*
X116863001Y-100321313D01*
X116863299Y-100300000D01*
X116844331Y-100130892D01*
X116839748Y-100117730D01*
X116790686Y-99976846D01*
X116788368Y-99970189D01*
X116782383Y-99960610D01*
X116738150Y-99889825D01*
X116698192Y-99825879D01*
X116578286Y-99705132D01*
X116570200Y-99700000D01*
X116553407Y-99689343D01*
X118711275Y-99689343D01*
X118727881Y-99858699D01*
X118781594Y-100020167D01*
X118785241Y-100026189D01*
X118785242Y-100026191D01*
X118858821Y-100147683D01*
X118869746Y-100165723D01*
X118987955Y-100288132D01*
X118993319Y-100291642D01*
X119032918Y-100350270D01*
X119034539Y-100421248D01*
X119022636Y-100448072D01*
X119023253Y-100448378D01*
X119020122Y-100454686D01*
X119016304Y-100460610D01*
X118958103Y-100620516D01*
X118936775Y-100789343D01*
X118953381Y-100958699D01*
X119007094Y-101120167D01*
X119010741Y-101126189D01*
X119010742Y-101126191D01*
X119058551Y-101205132D01*
X119095246Y-101265723D01*
X119213455Y-101388132D01*
X119270445Y-101425425D01*
X119334333Y-101467232D01*
X119355846Y-101481310D01*
X119362450Y-101483766D01*
X119362452Y-101483767D01*
X119398844Y-101497301D01*
X119515341Y-101540626D01*
X119684015Y-101563132D01*
X119691026Y-101562494D01*
X119691030Y-101562494D01*
X119846462Y-101548348D01*
X119853483Y-101547709D01*
X119860185Y-101545531D01*
X119860187Y-101545531D01*
X120008623Y-101497301D01*
X120008626Y-101497300D01*
X120015322Y-101495124D01*
X120084605Y-101453823D01*
X120153359Y-101436123D01*
X120218115Y-101456619D01*
X120255846Y-101481310D01*
X120262450Y-101483766D01*
X120262452Y-101483767D01*
X120298844Y-101497301D01*
X120415341Y-101540626D01*
X120584015Y-101563132D01*
X120591026Y-101562494D01*
X120591030Y-101562494D01*
X120746462Y-101548348D01*
X120753483Y-101547709D01*
X120760185Y-101545531D01*
X120760187Y-101545531D01*
X120908623Y-101497301D01*
X120908626Y-101497300D01*
X120915322Y-101495124D01*
X121036935Y-101422628D01*
X121105689Y-101404928D01*
X121170445Y-101425425D01*
X121234333Y-101467232D01*
X121255846Y-101481310D01*
X121262450Y-101483766D01*
X121262452Y-101483767D01*
X121298844Y-101497301D01*
X121415341Y-101540626D01*
X121584015Y-101563132D01*
X121591026Y-101562494D01*
X121591030Y-101562494D01*
X121746462Y-101548348D01*
X121753483Y-101547709D01*
X121760185Y-101545531D01*
X121760187Y-101545531D01*
X121908623Y-101497301D01*
X121908626Y-101497300D01*
X121915322Y-101495124D01*
X122061490Y-101407990D01*
X122066584Y-101403139D01*
X122066588Y-101403136D01*
X122161609Y-101312648D01*
X122184721Y-101290639D01*
X122278891Y-101148902D01*
X122339319Y-100989825D01*
X122363001Y-100821313D01*
X122363299Y-100800000D01*
X122344331Y-100630892D01*
X122288368Y-100470189D01*
X122282383Y-100460610D01*
X122213433Y-100350270D01*
X122198192Y-100325879D01*
X122078286Y-100205132D01*
X122062871Y-100195349D01*
X121972331Y-100137891D01*
X121934608Y-100113951D01*
X121774300Y-100056868D01*
X121605329Y-100036720D01*
X121598326Y-100037456D01*
X121598325Y-100037456D01*
X121443101Y-100053770D01*
X121443097Y-100053771D01*
X121436093Y-100054507D01*
X121429422Y-100056778D01*
X121281673Y-100107075D01*
X121281670Y-100107076D01*
X121275003Y-100109346D01*
X121269007Y-100113034D01*
X121269000Y-100113038D01*
X121165537Y-100176690D01*
X121097036Y-100195349D01*
X121032000Y-100175758D01*
X120940562Y-100117729D01*
X120940558Y-100117727D01*
X120934608Y-100113951D01*
X120774300Y-100056868D01*
X120605329Y-100036720D01*
X120598326Y-100037456D01*
X120598325Y-100037456D01*
X120443101Y-100053770D01*
X120443097Y-100053771D01*
X120436093Y-100054507D01*
X120362435Y-100079582D01*
X120291504Y-100082600D01*
X120230200Y-100046790D01*
X120197989Y-99983521D01*
X120204043Y-99915560D01*
X120211316Y-99896414D01*
X120213819Y-99889825D01*
X120237501Y-99721313D01*
X120237657Y-99710129D01*
X120237744Y-99703961D01*
X120237744Y-99703955D01*
X120237799Y-99700000D01*
X120218831Y-99530892D01*
X120162868Y-99370189D01*
X120156883Y-99360610D01*
X120134920Y-99325464D01*
X120072692Y-99225879D01*
X119952786Y-99105132D01*
X119936539Y-99094821D01*
X119897906Y-99070304D01*
X119809108Y-99013951D01*
X119648800Y-98956868D01*
X119479829Y-98936720D01*
X119472826Y-98937456D01*
X119472825Y-98937456D01*
X119317601Y-98953770D01*
X119317597Y-98953771D01*
X119310593Y-98954507D01*
X119303922Y-98956778D01*
X119156173Y-99007075D01*
X119156170Y-99007076D01*
X119149503Y-99009346D01*
X119143505Y-99013036D01*
X119143503Y-99013037D01*
X119010565Y-99094821D01*
X119010563Y-99094823D01*
X119004566Y-99098512D01*
X118882986Y-99217573D01*
X118879175Y-99223487D01*
X118879173Y-99223489D01*
X118794621Y-99354687D01*
X118790804Y-99360610D01*
X118732603Y-99520516D01*
X118711275Y-99689343D01*
X116553407Y-99689343D01*
X116518315Y-99667073D01*
X116434608Y-99613951D01*
X116274300Y-99556868D01*
X116105329Y-99536720D01*
X116098326Y-99537456D01*
X116098325Y-99537456D01*
X115943101Y-99553770D01*
X115943097Y-99553771D01*
X115936093Y-99554507D01*
X115929422Y-99556778D01*
X115781673Y-99607075D01*
X115781670Y-99607076D01*
X115775003Y-99609346D01*
X115769005Y-99613036D01*
X115769003Y-99613037D01*
X115636065Y-99694821D01*
X115636063Y-99694823D01*
X115630066Y-99698512D01*
X115625032Y-99703442D01*
X115624695Y-99703705D01*
X115558701Y-99729884D01*
X115489031Y-99716228D01*
X115437803Y-99667073D01*
X115421282Y-99598025D01*
X115439688Y-99538582D01*
X115560649Y-99341193D01*
X115560655Y-99341182D01*
X115563240Y-99336963D01*
X115606778Y-99231854D01*
X115652211Y-99122167D01*
X115652212Y-99122165D01*
X115654105Y-99117594D01*
X115678080Y-99017730D01*
X115708380Y-98891524D01*
X115708381Y-98891518D01*
X115709535Y-98886711D01*
X115709924Y-98881774D01*
X115709925Y-98881765D01*
X115713464Y-98836806D01*
X115738749Y-98770465D01*
X115795888Y-98728326D01*
X115866738Y-98723767D01*
X115882980Y-98728591D01*
X115915341Y-98740626D01*
X116084015Y-98763132D01*
X116091026Y-98762494D01*
X116091030Y-98762494D01*
X116246462Y-98748348D01*
X116253483Y-98747709D01*
X116260185Y-98745531D01*
X116260187Y-98745531D01*
X116408623Y-98697301D01*
X116408626Y-98697300D01*
X116415322Y-98695124D01*
X116561490Y-98607990D01*
X116566584Y-98603139D01*
X116566588Y-98603136D01*
X116633833Y-98539099D01*
X116684721Y-98490639D01*
X116778891Y-98348902D01*
X116839319Y-98189825D01*
X116863001Y-98021313D01*
X116863299Y-98000000D01*
X116844331Y-97830892D01*
X116827676Y-97783064D01*
X116805685Y-97719916D01*
X116788368Y-97670189D01*
X116782383Y-97660610D01*
X116736645Y-97587416D01*
X116709437Y-97543874D01*
X121778008Y-97543874D01*
X121794614Y-97713230D01*
X121848327Y-97874698D01*
X121851974Y-97880720D01*
X121851975Y-97880722D01*
X121926612Y-98003961D01*
X121936479Y-98020254D01*
X122054688Y-98142663D01*
X122197079Y-98235841D01*
X122203683Y-98238297D01*
X122203685Y-98238298D01*
X122240077Y-98251832D01*
X122356574Y-98295157D01*
X122525248Y-98317663D01*
X122532259Y-98317025D01*
X122532263Y-98317025D01*
X122687695Y-98302879D01*
X122694716Y-98302240D01*
X122701418Y-98300062D01*
X122701420Y-98300062D01*
X122849856Y-98251832D01*
X122849859Y-98251831D01*
X122856555Y-98249655D01*
X123002723Y-98162521D01*
X123007817Y-98157670D01*
X123007821Y-98157667D01*
X123107092Y-98063132D01*
X123125954Y-98045170D01*
X123130606Y-98038169D01*
X123216223Y-97909304D01*
X123220124Y-97903433D01*
X123280552Y-97744356D01*
X123304234Y-97575844D01*
X123304532Y-97554531D01*
X123285564Y-97385423D01*
X123229601Y-97224720D01*
X123223616Y-97215141D01*
X123207495Y-97189343D01*
X128536775Y-97189343D01*
X128553381Y-97358699D01*
X128555605Y-97365384D01*
X128555605Y-97365385D01*
X128575710Y-97425824D01*
X128607094Y-97520167D01*
X128610741Y-97526189D01*
X128610742Y-97526191D01*
X128671305Y-97626191D01*
X128695246Y-97665723D01*
X128813455Y-97788132D01*
X128819351Y-97791990D01*
X128945742Y-97874698D01*
X128955846Y-97881310D01*
X128962450Y-97883766D01*
X128962452Y-97883767D01*
X129031119Y-97909304D01*
X129115341Y-97940626D01*
X129284015Y-97963132D01*
X129291026Y-97962494D01*
X129291030Y-97962494D01*
X129446462Y-97948348D01*
X129453483Y-97947709D01*
X129460185Y-97945531D01*
X129460187Y-97945531D01*
X129608623Y-97897301D01*
X129608626Y-97897300D01*
X129615322Y-97895124D01*
X129761490Y-97807990D01*
X129766584Y-97803139D01*
X129766588Y-97803136D01*
X129868358Y-97706221D01*
X129884721Y-97690639D01*
X129902279Y-97664213D01*
X129940306Y-97606977D01*
X129978891Y-97548902D01*
X130039319Y-97389825D01*
X130040414Y-97382037D01*
X130050948Y-97307075D01*
X130063001Y-97221313D01*
X130063299Y-97200000D01*
X130044331Y-97030892D01*
X129988368Y-96870189D01*
X129982383Y-96860610D01*
X129950156Y-96809038D01*
X129898192Y-96725879D01*
X129778286Y-96605132D01*
X129763451Y-96595717D01*
X129698514Y-96554507D01*
X129634608Y-96513951D01*
X129630087Y-96512341D01*
X129578287Y-96465101D01*
X129560021Y-96396495D01*
X129581745Y-96328903D01*
X129621462Y-96291464D01*
X129755444Y-96211594D01*
X129761490Y-96207990D01*
X129766584Y-96203139D01*
X129766588Y-96203136D01*
X129869567Y-96105070D01*
X129884721Y-96090639D01*
X129978891Y-95948902D01*
X130039319Y-95789825D01*
X130063001Y-95621313D01*
X130063299Y-95600000D01*
X130044331Y-95430892D01*
X129988368Y-95270189D01*
X129982383Y-95260610D01*
X129955022Y-95216825D01*
X129898192Y-95125879D01*
X129778286Y-95005132D01*
X129765947Y-94997301D01*
X129723406Y-94970304D01*
X129634608Y-94913951D01*
X129474300Y-94856868D01*
X129305329Y-94836720D01*
X129298326Y-94837456D01*
X129298325Y-94837456D01*
X129143101Y-94853770D01*
X129143097Y-94853771D01*
X129136093Y-94854507D01*
X129129422Y-94856778D01*
X128981673Y-94907075D01*
X128981670Y-94907076D01*
X128975003Y-94909346D01*
X128969005Y-94913036D01*
X128969003Y-94913037D01*
X128836065Y-94994821D01*
X128836063Y-94994823D01*
X128830066Y-94998512D01*
X128708486Y-95117573D01*
X128616304Y-95260610D01*
X128558103Y-95420516D01*
X128536775Y-95589343D01*
X128553381Y-95758699D01*
X128607094Y-95920167D01*
X128610741Y-95926189D01*
X128610742Y-95926191D01*
X128624497Y-95948902D01*
X128695246Y-96065723D01*
X128813455Y-96188132D01*
X128955846Y-96281310D01*
X128962451Y-96283766D01*
X128968736Y-96286941D01*
X128967470Y-96289447D01*
X129014179Y-96324335D01*
X129039061Y-96390829D01*
X129024044Y-96460219D01*
X128975033Y-96509336D01*
X128975003Y-96509346D01*
X128969704Y-96512606D01*
X128969702Y-96512607D01*
X128836065Y-96594821D01*
X128836063Y-96594823D01*
X128830066Y-96598512D01*
X128708486Y-96717573D01*
X128704675Y-96723487D01*
X128704673Y-96723489D01*
X128646494Y-96813764D01*
X128616304Y-96860610D01*
X128610395Y-96876846D01*
X128567317Y-96995202D01*
X128558103Y-97020516D01*
X128536775Y-97189343D01*
X123207495Y-97189343D01*
X123196493Y-97171737D01*
X123139425Y-97080410D01*
X123019519Y-96959663D01*
X123011679Y-96954687D01*
X122964639Y-96924835D01*
X122875841Y-96868482D01*
X122715533Y-96811399D01*
X122546562Y-96791251D01*
X122539559Y-96791987D01*
X122539558Y-96791987D01*
X122384334Y-96808301D01*
X122384330Y-96808302D01*
X122377326Y-96809038D01*
X122370655Y-96811309D01*
X122222906Y-96861606D01*
X122222903Y-96861607D01*
X122216236Y-96863877D01*
X122210238Y-96867567D01*
X122210236Y-96867568D01*
X122077298Y-96949352D01*
X122077296Y-96949354D01*
X122071299Y-96953043D01*
X121949719Y-97072104D01*
X121945908Y-97078018D01*
X121945906Y-97078020D01*
X121880204Y-97179969D01*
X121857537Y-97215141D01*
X121799336Y-97375047D01*
X121778008Y-97543874D01*
X116709437Y-97543874D01*
X116698192Y-97525879D01*
X116578286Y-97405132D01*
X116562039Y-97394821D01*
X116466477Y-97334176D01*
X116434608Y-97313951D01*
X116274300Y-97256868D01*
X116105329Y-97236720D01*
X116098326Y-97237456D01*
X116098325Y-97237456D01*
X115943101Y-97253770D01*
X115943097Y-97253771D01*
X115936093Y-97254507D01*
X115929422Y-97256778D01*
X115781673Y-97307075D01*
X115781670Y-97307076D01*
X115775003Y-97309346D01*
X115769005Y-97313036D01*
X115769003Y-97313037D01*
X115636065Y-97394821D01*
X115636063Y-97394823D01*
X115630066Y-97398512D01*
X115508486Y-97517573D01*
X115504675Y-97523487D01*
X115504673Y-97523489D01*
X115480787Y-97560553D01*
X115427072Y-97606977D01*
X115356785Y-97616992D01*
X115292242Y-97587416D01*
X115287503Y-97582998D01*
X115284969Y-97580031D01*
X115281207Y-97576818D01*
X115281198Y-97576809D01*
X115162944Y-97475811D01*
X115124134Y-97416361D01*
X115123628Y-97345366D01*
X115162944Y-97284189D01*
X115281208Y-97183182D01*
X115281213Y-97183177D01*
X115284969Y-97179969D01*
X115439176Y-96999416D01*
X115441755Y-96995208D01*
X115441759Y-96995202D01*
X115560654Y-96801183D01*
X115563240Y-96796963D01*
X115565302Y-96791987D01*
X115652211Y-96582167D01*
X115652212Y-96582165D01*
X115654105Y-96577594D01*
X115698476Y-96392775D01*
X115708380Y-96351524D01*
X115708381Y-96351518D01*
X115709535Y-96346711D01*
X115728165Y-96110000D01*
X115709535Y-95873289D01*
X115687822Y-95782845D01*
X115655260Y-95647218D01*
X115654105Y-95642406D01*
X115632126Y-95589343D01*
X123936775Y-95589343D01*
X123953381Y-95758699D01*
X124007094Y-95920167D01*
X124010741Y-95926189D01*
X124010742Y-95926191D01*
X124024497Y-95948902D01*
X124095246Y-96065723D01*
X124213455Y-96188132D01*
X124355846Y-96281310D01*
X124362450Y-96283766D01*
X124362452Y-96283767D01*
X124398844Y-96297301D01*
X124515341Y-96340626D01*
X124684015Y-96363132D01*
X124691026Y-96362494D01*
X124691030Y-96362494D01*
X124846462Y-96348348D01*
X124853483Y-96347709D01*
X124860185Y-96345531D01*
X124860187Y-96345531D01*
X125008623Y-96297301D01*
X125008626Y-96297300D01*
X125015322Y-96295124D01*
X125161490Y-96207990D01*
X125166584Y-96203139D01*
X125166588Y-96203136D01*
X125269567Y-96105070D01*
X125284721Y-96090639D01*
X125378891Y-95948902D01*
X125439319Y-95789825D01*
X125463001Y-95621313D01*
X125463299Y-95600000D01*
X125444331Y-95430892D01*
X125388368Y-95270189D01*
X125382383Y-95260610D01*
X125355022Y-95216825D01*
X125298192Y-95125879D01*
X125178286Y-95005132D01*
X125165947Y-94997301D01*
X125123406Y-94970304D01*
X125034608Y-94913951D01*
X124874300Y-94856868D01*
X124705329Y-94836720D01*
X124698326Y-94837456D01*
X124698325Y-94837456D01*
X124543101Y-94853770D01*
X124543097Y-94853771D01*
X124536093Y-94854507D01*
X124529422Y-94856778D01*
X124381673Y-94907075D01*
X124381670Y-94907076D01*
X124375003Y-94909346D01*
X124369005Y-94913036D01*
X124369003Y-94913037D01*
X124236065Y-94994821D01*
X124236063Y-94994823D01*
X124230066Y-94998512D01*
X124108486Y-95117573D01*
X124016304Y-95260610D01*
X123958103Y-95420516D01*
X123936775Y-95589343D01*
X115632126Y-95589343D01*
X115563240Y-95423037D01*
X115473654Y-95276846D01*
X115441759Y-95224798D01*
X115441755Y-95224792D01*
X115439176Y-95220584D01*
X115291527Y-95047709D01*
X115288177Y-95043787D01*
X115284969Y-95040031D01*
X115281213Y-95036823D01*
X115281208Y-95036818D01*
X115162944Y-94935811D01*
X115124134Y-94876361D01*
X115123628Y-94805366D01*
X115162944Y-94744189D01*
X115281208Y-94643182D01*
X115281213Y-94643177D01*
X115284969Y-94639969D01*
X115439176Y-94459416D01*
X115441755Y-94455208D01*
X115441759Y-94455202D01*
X115560654Y-94261183D01*
X115563240Y-94256963D01*
X115616863Y-94127506D01*
X115652211Y-94042167D01*
X115652212Y-94042165D01*
X115654105Y-94037594D01*
X115703499Y-93831854D01*
X115708380Y-93811524D01*
X115708381Y-93811518D01*
X115709535Y-93806711D01*
X115728165Y-93570000D01*
X115709535Y-93333289D01*
X115707757Y-93325879D01*
X115671863Y-93176374D01*
X115654105Y-93102406D01*
X115638771Y-93065385D01*
X115565135Y-92887611D01*
X115565133Y-92887607D01*
X115563240Y-92883037D01*
X115548939Y-92859700D01*
X115441759Y-92684798D01*
X115441755Y-92684792D01*
X115439176Y-92680584D01*
X115284969Y-92500031D01*
X115281213Y-92496823D01*
X115281208Y-92496818D01*
X115162944Y-92395811D01*
X115124134Y-92336361D01*
X115123628Y-92265366D01*
X115162944Y-92204189D01*
X115281208Y-92103182D01*
X115281213Y-92103177D01*
X115284969Y-92099969D01*
X115288177Y-92096213D01*
X115288182Y-92096208D01*
X115354416Y-92018658D01*
X115413866Y-91979848D01*
X115484861Y-91979342D01*
X115540864Y-92012962D01*
X115590418Y-92064277D01*
X115613455Y-92088132D01*
X115755846Y-92181310D01*
X115762450Y-92183766D01*
X115762452Y-92183767D01*
X115835594Y-92210968D01*
X115915341Y-92240626D01*
X115922324Y-92241558D01*
X115922325Y-92241558D01*
X116034137Y-92256477D01*
X116099014Y-92285313D01*
X116138002Y-92344646D01*
X116138722Y-92415639D01*
X116123382Y-92449627D01*
X116116304Y-92460610D01*
X116058103Y-92620516D01*
X116036775Y-92789343D01*
X116053381Y-92958699D01*
X116107094Y-93120167D01*
X116110741Y-93126189D01*
X116110742Y-93126191D01*
X116185059Y-93248902D01*
X116195246Y-93265723D01*
X116313455Y-93388132D01*
X116343801Y-93407990D01*
X116434333Y-93467232D01*
X116455846Y-93481310D01*
X116462450Y-93483766D01*
X116462452Y-93483767D01*
X116514534Y-93503136D01*
X116615341Y-93540626D01*
X116622324Y-93541558D01*
X116622325Y-93541558D01*
X116690144Y-93550607D01*
X116755021Y-93579443D01*
X116794009Y-93638776D01*
X116794729Y-93709769D01*
X116761637Y-93765523D01*
X116708486Y-93817573D01*
X116704675Y-93823487D01*
X116704673Y-93823489D01*
X116620121Y-93954687D01*
X116616304Y-93960610D01*
X116558103Y-94120516D01*
X116536775Y-94289343D01*
X116553381Y-94458699D01*
X116607094Y-94620167D01*
X116610741Y-94626189D01*
X116610742Y-94626191D01*
X116682205Y-94744189D01*
X116695246Y-94765723D01*
X116813455Y-94888132D01*
X116955846Y-94981310D01*
X116962450Y-94983766D01*
X116962452Y-94983767D01*
X117035594Y-95010968D01*
X117115341Y-95040626D01*
X117284015Y-95063132D01*
X117291026Y-95062494D01*
X117291030Y-95062494D01*
X117446462Y-95048348D01*
X117453483Y-95047709D01*
X117460185Y-95045531D01*
X117460187Y-95045531D01*
X117608623Y-94997301D01*
X117608626Y-94997300D01*
X117615322Y-94995124D01*
X117761490Y-94907990D01*
X117766584Y-94903139D01*
X117766588Y-94903136D01*
X117869256Y-94805366D01*
X117884721Y-94790639D01*
X117978891Y-94648902D01*
X118039319Y-94489825D01*
X118063001Y-94321313D01*
X118063299Y-94300000D01*
X118044331Y-94130892D01*
X117988368Y-93970189D01*
X117982383Y-93960610D01*
X117960420Y-93925464D01*
X117898192Y-93825879D01*
X117861911Y-93789343D01*
X120736775Y-93789343D01*
X120753381Y-93958699D01*
X120755605Y-93965384D01*
X120755605Y-93965385D01*
X120757203Y-93970189D01*
X120807094Y-94120167D01*
X120810741Y-94126189D01*
X120810742Y-94126191D01*
X120889941Y-94256963D01*
X120895246Y-94265723D01*
X121013455Y-94388132D01*
X121155846Y-94481310D01*
X121162450Y-94483766D01*
X121162452Y-94483767D01*
X121196459Y-94496414D01*
X121315341Y-94540626D01*
X121484015Y-94563132D01*
X121491026Y-94562494D01*
X121491030Y-94562494D01*
X121646462Y-94548348D01*
X121653483Y-94547709D01*
X121660185Y-94545531D01*
X121660187Y-94545531D01*
X121808623Y-94497301D01*
X121808626Y-94497300D01*
X121815322Y-94495124D01*
X121961490Y-94407990D01*
X121966584Y-94403139D01*
X121966588Y-94403136D01*
X122070731Y-94303961D01*
X122084721Y-94290639D01*
X122178891Y-94148902D01*
X122239319Y-93989825D01*
X122263001Y-93821313D01*
X122263299Y-93800000D01*
X122244331Y-93630892D01*
X122239748Y-93617730D01*
X122211537Y-93536720D01*
X122188368Y-93470189D01*
X122182383Y-93460610D01*
X122134990Y-93384768D01*
X122098192Y-93325879D01*
X122063198Y-93290639D01*
X121983248Y-93210129D01*
X121978286Y-93205132D01*
X121962039Y-93194821D01*
X121889682Y-93148902D01*
X121834608Y-93113951D01*
X121674300Y-93056868D01*
X121505329Y-93036720D01*
X121498326Y-93037456D01*
X121498325Y-93037456D01*
X121343101Y-93053770D01*
X121343097Y-93053771D01*
X121336093Y-93054507D01*
X121329422Y-93056778D01*
X121181673Y-93107075D01*
X121181670Y-93107076D01*
X121175003Y-93109346D01*
X121169005Y-93113036D01*
X121169003Y-93113037D01*
X121036065Y-93194821D01*
X121036063Y-93194823D01*
X121030066Y-93198512D01*
X120908486Y-93317573D01*
X120904675Y-93323487D01*
X120904673Y-93323489D01*
X120820121Y-93454687D01*
X120816304Y-93460610D01*
X120807876Y-93483767D01*
X120762169Y-93609346D01*
X120758103Y-93620516D01*
X120736775Y-93789343D01*
X117861911Y-93789343D01*
X117783248Y-93710129D01*
X117778286Y-93705132D01*
X117634608Y-93613951D01*
X117474300Y-93556868D01*
X117412114Y-93549453D01*
X117346840Y-93521526D01*
X117307027Y-93462743D01*
X117305315Y-93391767D01*
X117340140Y-93333093D01*
X117361609Y-93312648D01*
X117384721Y-93290639D01*
X117408551Y-93254773D01*
X117448382Y-93194821D01*
X117478891Y-93148902D01*
X117539319Y-92989825D01*
X117563001Y-92821313D01*
X117563299Y-92800000D01*
X117544331Y-92630892D01*
X117488368Y-92470189D01*
X117482383Y-92460610D01*
X117409919Y-92344646D01*
X117398192Y-92325879D01*
X117278286Y-92205132D01*
X117134608Y-92113951D01*
X116974300Y-92056868D01*
X116868574Y-92044261D01*
X116803303Y-92016335D01*
X116763489Y-91957552D01*
X116761777Y-91886576D01*
X116773019Y-91861674D01*
X116771773Y-91861033D01*
X116774989Y-91854774D01*
X116778891Y-91848902D01*
X116839319Y-91689825D01*
X116863001Y-91521313D01*
X116863299Y-91500000D01*
X116844331Y-91330892D01*
X116832325Y-91296414D01*
X116790686Y-91176846D01*
X116788368Y-91170189D01*
X116737849Y-91089343D01*
X122336775Y-91089343D01*
X122353381Y-91258699D01*
X122407094Y-91420167D01*
X122410741Y-91426189D01*
X122410742Y-91426191D01*
X122457842Y-91503961D01*
X122495246Y-91565723D01*
X122613455Y-91688132D01*
X122619351Y-91691990D01*
X122619794Y-91692280D01*
X122620015Y-91692540D01*
X122624776Y-91696478D01*
X122624084Y-91697314D01*
X122665842Y-91746318D01*
X122675364Y-91816674D01*
X122645338Y-91881008D01*
X122638965Y-91887725D01*
X122608486Y-91917573D01*
X122604675Y-91923487D01*
X122604673Y-91923489D01*
X122543340Y-92018658D01*
X122516304Y-92060610D01*
X122495788Y-92116977D01*
X122461884Y-92210129D01*
X122458103Y-92220516D01*
X122436775Y-92389343D01*
X122453381Y-92558699D01*
X122455605Y-92565384D01*
X122455605Y-92565385D01*
X122457203Y-92570189D01*
X122507094Y-92720167D01*
X122510741Y-92726189D01*
X122510742Y-92726191D01*
X122557842Y-92803961D01*
X122595246Y-92865723D01*
X122713455Y-92988132D01*
X122855846Y-93081310D01*
X122862450Y-93083766D01*
X122862452Y-93083767D01*
X122912571Y-93102406D01*
X123015341Y-93140626D01*
X123184015Y-93163132D01*
X123191032Y-93162493D01*
X123198073Y-93162641D01*
X123198038Y-93164313D01*
X123259168Y-93176374D01*
X123308713Y-93222840D01*
X123352716Y-93295498D01*
X123375485Y-93333093D01*
X123395246Y-93365723D01*
X123513455Y-93488132D01*
X123584651Y-93534721D01*
X123631029Y-93565070D01*
X123655846Y-93581310D01*
X123662450Y-93583766D01*
X123662452Y-93583767D01*
X123698844Y-93597301D01*
X123815341Y-93640626D01*
X123984015Y-93663132D01*
X123991026Y-93662494D01*
X123991030Y-93662494D01*
X124146462Y-93648348D01*
X124153483Y-93647709D01*
X124160185Y-93645531D01*
X124160187Y-93645531D01*
X124308623Y-93597301D01*
X124308626Y-93597300D01*
X124315322Y-93595124D01*
X124461490Y-93507990D01*
X124466584Y-93503139D01*
X124466588Y-93503136D01*
X124533833Y-93439099D01*
X124584721Y-93390639D01*
X124678891Y-93248902D01*
X124739319Y-93089825D01*
X124763001Y-92921313D01*
X124763299Y-92900000D01*
X124762104Y-92889343D01*
X126336775Y-92889343D01*
X126353381Y-93058699D01*
X126407094Y-93220167D01*
X126410741Y-93226189D01*
X126410742Y-93226191D01*
X126475485Y-93333093D01*
X126495246Y-93365723D01*
X126613455Y-93488132D01*
X126684651Y-93534721D01*
X126731029Y-93565070D01*
X126755846Y-93581310D01*
X126762450Y-93583766D01*
X126762452Y-93583767D01*
X126798844Y-93597301D01*
X126915341Y-93640626D01*
X127084015Y-93663132D01*
X127091026Y-93662494D01*
X127091030Y-93662494D01*
X127246462Y-93648348D01*
X127253483Y-93647709D01*
X127260185Y-93645531D01*
X127260187Y-93645531D01*
X127408623Y-93597301D01*
X127408626Y-93597300D01*
X127415322Y-93595124D01*
X127561490Y-93507990D01*
X127566584Y-93503139D01*
X127566588Y-93503136D01*
X127633833Y-93439099D01*
X127684721Y-93390639D01*
X127778891Y-93248902D01*
X127839319Y-93089825D01*
X127863001Y-92921313D01*
X127863299Y-92900000D01*
X127844331Y-92730892D01*
X127788368Y-92570189D01*
X127782383Y-92560610D01*
X127725880Y-92470189D01*
X127698192Y-92425879D01*
X127668334Y-92395811D01*
X127609297Y-92336361D01*
X127578286Y-92305132D01*
X127570200Y-92300000D01*
X127487802Y-92247709D01*
X127434608Y-92213951D01*
X127274300Y-92156868D01*
X127105329Y-92136720D01*
X127098326Y-92137456D01*
X127098325Y-92137456D01*
X126943101Y-92153770D01*
X126943097Y-92153771D01*
X126936093Y-92154507D01*
X126929422Y-92156778D01*
X126781673Y-92207075D01*
X126781670Y-92207076D01*
X126775003Y-92209346D01*
X126769005Y-92213036D01*
X126769003Y-92213037D01*
X126636065Y-92294821D01*
X126636063Y-92294823D01*
X126630066Y-92298512D01*
X126508486Y-92417573D01*
X126504675Y-92423487D01*
X126504673Y-92423489D01*
X126420121Y-92554687D01*
X126416304Y-92560610D01*
X126358103Y-92720516D01*
X126336775Y-92889343D01*
X124762104Y-92889343D01*
X124744331Y-92730892D01*
X124688368Y-92570189D01*
X124682383Y-92560610D01*
X124625880Y-92470189D01*
X124598192Y-92425879D01*
X124568334Y-92395811D01*
X124509297Y-92336361D01*
X124478286Y-92305132D01*
X124470200Y-92300000D01*
X124387802Y-92247709D01*
X124334608Y-92213951D01*
X124174300Y-92156868D01*
X124005329Y-92136720D01*
X123998327Y-92137456D01*
X123998193Y-92137455D01*
X123930214Y-92116977D01*
X123888906Y-92069853D01*
X123888368Y-92070189D01*
X123886302Y-92066882D01*
X123886300Y-92066880D01*
X123798192Y-91925879D01*
X123787590Y-91915202D01*
X123715209Y-91842314D01*
X123678286Y-91805132D01*
X123672334Y-91801355D01*
X123671246Y-91800480D01*
X123630689Y-91742208D01*
X123628073Y-91671260D01*
X123663303Y-91611035D01*
X123684721Y-91590639D01*
X123778891Y-91448902D01*
X123839319Y-91289825D01*
X123863001Y-91121313D01*
X123863299Y-91100000D01*
X123844331Y-90930892D01*
X123788368Y-90770189D01*
X123782383Y-90760610D01*
X123740963Y-90694326D01*
X123698192Y-90625879D01*
X123611206Y-90538283D01*
X123577399Y-90475852D01*
X123582711Y-90405054D01*
X123613719Y-90358254D01*
X123679618Y-90295499D01*
X123679620Y-90295497D01*
X123684721Y-90290639D01*
X123778891Y-90148902D01*
X123839319Y-89989825D01*
X123863001Y-89821313D01*
X123863299Y-89800000D01*
X123844331Y-89630892D01*
X123832325Y-89596414D01*
X123790686Y-89476846D01*
X123788368Y-89470189D01*
X123782383Y-89460610D01*
X123759186Y-89423489D01*
X123698192Y-89325879D01*
X123578286Y-89205132D01*
X123562039Y-89194821D01*
X123498514Y-89154507D01*
X123434608Y-89113951D01*
X123274300Y-89056868D01*
X123105329Y-89036720D01*
X123098326Y-89037456D01*
X123098325Y-89037456D01*
X122943101Y-89053770D01*
X122943097Y-89053771D01*
X122936093Y-89054507D01*
X122929422Y-89056778D01*
X122781673Y-89107075D01*
X122781670Y-89107076D01*
X122775003Y-89109346D01*
X122769005Y-89113036D01*
X122769003Y-89113037D01*
X122636065Y-89194821D01*
X122636063Y-89194823D01*
X122630066Y-89198512D01*
X122508486Y-89317573D01*
X122504675Y-89323487D01*
X122504673Y-89323489D01*
X122438687Y-89425879D01*
X122416304Y-89460610D01*
X122358103Y-89620516D01*
X122336775Y-89789343D01*
X122353381Y-89958699D01*
X122355605Y-89965384D01*
X122355605Y-89965385D01*
X122361413Y-89982845D01*
X122407094Y-90120167D01*
X122410741Y-90126189D01*
X122410742Y-90126191D01*
X122485059Y-90248902D01*
X122495246Y-90265723D01*
X122500136Y-90270787D01*
X122500137Y-90270788D01*
X122589395Y-90363218D01*
X122622327Y-90426115D01*
X122616027Y-90496832D01*
X122586916Y-90540768D01*
X122508486Y-90617573D01*
X122504675Y-90623487D01*
X122504673Y-90623489D01*
X122431700Y-90736720D01*
X122416304Y-90760610D01*
X122395514Y-90817730D01*
X122361884Y-90910129D01*
X122358103Y-90920516D01*
X122336775Y-91089343D01*
X116737849Y-91089343D01*
X116698192Y-91025879D01*
X116578286Y-90905132D01*
X116434608Y-90813951D01*
X116274300Y-90756868D01*
X116105329Y-90736720D01*
X116098326Y-90737456D01*
X116098325Y-90737456D01*
X115943101Y-90753770D01*
X115943097Y-90753771D01*
X115936093Y-90754507D01*
X115848899Y-90784190D01*
X115777968Y-90787208D01*
X115716664Y-90751398D01*
X115685776Y-90694326D01*
X115674584Y-90647709D01*
X115654105Y-90562406D01*
X115648236Y-90548237D01*
X115565135Y-90347611D01*
X115565133Y-90347607D01*
X115563240Y-90343037D01*
X115505554Y-90248902D01*
X115441759Y-90144798D01*
X115441755Y-90144792D01*
X115439176Y-90140584D01*
X115284969Y-89960031D01*
X115281213Y-89956823D01*
X115281208Y-89956818D01*
X115162944Y-89855811D01*
X115124134Y-89796361D01*
X115123628Y-89725366D01*
X115162944Y-89664189D01*
X115281208Y-89563182D01*
X115281213Y-89563177D01*
X115284969Y-89559969D01*
X115430698Y-89389343D01*
X116536775Y-89389343D01*
X116553381Y-89558699D01*
X116555605Y-89565384D01*
X116555605Y-89565385D01*
X116557203Y-89570189D01*
X116607094Y-89720167D01*
X116610741Y-89726189D01*
X116610742Y-89726191D01*
X116687042Y-89852176D01*
X116695246Y-89865723D01*
X116813455Y-89988132D01*
X116836384Y-90003136D01*
X116943158Y-90073007D01*
X116955846Y-90081310D01*
X116962450Y-90083766D01*
X116962452Y-90083767D01*
X116998844Y-90097301D01*
X117115341Y-90140626D01*
X117284015Y-90163132D01*
X117291026Y-90162494D01*
X117291030Y-90162494D01*
X117446462Y-90148348D01*
X117453483Y-90147709D01*
X117460185Y-90145531D01*
X117460187Y-90145531D01*
X117608623Y-90097301D01*
X117608626Y-90097300D01*
X117615322Y-90095124D01*
X117761490Y-90007990D01*
X117766584Y-90003139D01*
X117766588Y-90003136D01*
X117870731Y-89903961D01*
X117884721Y-89890639D01*
X117894180Y-89876402D01*
X117948538Y-89830733D01*
X118018958Y-89821701D01*
X118083082Y-89852176D01*
X118094446Y-89864401D01*
X118095246Y-89865723D01*
X118100140Y-89870790D01*
X118100140Y-89870791D01*
X118119307Y-89890639D01*
X118213455Y-89988132D01*
X118236384Y-90003136D01*
X118343158Y-90073007D01*
X118355846Y-90081310D01*
X118362450Y-90083766D01*
X118362452Y-90083767D01*
X118398844Y-90097301D01*
X118515341Y-90140626D01*
X118684015Y-90163132D01*
X118691026Y-90162494D01*
X118691030Y-90162494D01*
X118846462Y-90148348D01*
X118853483Y-90147709D01*
X118860185Y-90145531D01*
X118860187Y-90145531D01*
X119008623Y-90097301D01*
X119008626Y-90097300D01*
X119015322Y-90095124D01*
X119161490Y-90007990D01*
X119166584Y-90003139D01*
X119166588Y-90003136D01*
X119270731Y-89903961D01*
X119284721Y-89890639D01*
X119378891Y-89748902D01*
X119439319Y-89589825D01*
X119463001Y-89421313D01*
X119463299Y-89400000D01*
X119462104Y-89389343D01*
X120236775Y-89389343D01*
X120253381Y-89558699D01*
X120255605Y-89565384D01*
X120255605Y-89565385D01*
X120257203Y-89570189D01*
X120307094Y-89720167D01*
X120310741Y-89726189D01*
X120310742Y-89726191D01*
X120387042Y-89852176D01*
X120395246Y-89865723D01*
X120513455Y-89988132D01*
X120536384Y-90003136D01*
X120643158Y-90073007D01*
X120655846Y-90081310D01*
X120662450Y-90083766D01*
X120662452Y-90083767D01*
X120698844Y-90097301D01*
X120815341Y-90140626D01*
X120984015Y-90163132D01*
X120991026Y-90162494D01*
X120991030Y-90162494D01*
X121146462Y-90148348D01*
X121153483Y-90147709D01*
X121160185Y-90145531D01*
X121160187Y-90145531D01*
X121308623Y-90097301D01*
X121308626Y-90097300D01*
X121315322Y-90095124D01*
X121461490Y-90007990D01*
X121466584Y-90003139D01*
X121466588Y-90003136D01*
X121570731Y-89903961D01*
X121584721Y-89890639D01*
X121678891Y-89748902D01*
X121739319Y-89589825D01*
X121763001Y-89421313D01*
X121763299Y-89400000D01*
X121744331Y-89230892D01*
X121739748Y-89217730D01*
X121704924Y-89117730D01*
X121688368Y-89070189D01*
X121682383Y-89060610D01*
X121624310Y-88967676D01*
X121598192Y-88925879D01*
X121597491Y-88925173D01*
X121571752Y-88861584D01*
X121584922Y-88791819D01*
X121592178Y-88779415D01*
X121678891Y-88648902D01*
X121739319Y-88489825D01*
X121763001Y-88321313D01*
X121763299Y-88300000D01*
X121744331Y-88130892D01*
X121688368Y-87970189D01*
X121682383Y-87960610D01*
X121659189Y-87923493D01*
X121640053Y-87855124D01*
X121660918Y-87787262D01*
X121715160Y-87741454D01*
X121785556Y-87732243D01*
X121801892Y-87736515D01*
X121801904Y-87736466D01*
X121808735Y-87738169D01*
X121815341Y-87740626D01*
X121984015Y-87763132D01*
X121991026Y-87762494D01*
X121991030Y-87762494D01*
X122146462Y-87748348D01*
X122153483Y-87747709D01*
X122160185Y-87745531D01*
X122160187Y-87745531D01*
X122308623Y-87697301D01*
X122308626Y-87697300D01*
X122315322Y-87695124D01*
X122461490Y-87607990D01*
X122466584Y-87603139D01*
X122466588Y-87603136D01*
X122558344Y-87515757D01*
X122584721Y-87490639D01*
X122612922Y-87448194D01*
X122674990Y-87354773D01*
X122678891Y-87348902D01*
X122739319Y-87189825D01*
X122763001Y-87021313D01*
X122763299Y-87000000D01*
X122744331Y-86830892D01*
X122688368Y-86670189D01*
X122682383Y-86660610D01*
X122638150Y-86589825D01*
X122598192Y-86525879D01*
X122478286Y-86405132D01*
X122470200Y-86400000D01*
X122342978Y-86319263D01*
X122334608Y-86313951D01*
X122174300Y-86256868D01*
X122005329Y-86236720D01*
X121998326Y-86237456D01*
X121998325Y-86237456D01*
X121836093Y-86254507D01*
X121835812Y-86251830D01*
X121777242Y-86247778D01*
X121720307Y-86205363D01*
X121695342Y-86138900D01*
X121703212Y-86084876D01*
X121706263Y-86076846D01*
X121739319Y-85989825D01*
X121763001Y-85821313D01*
X121763157Y-85810129D01*
X121763244Y-85803961D01*
X121763244Y-85803955D01*
X121763299Y-85800000D01*
X121744331Y-85630892D01*
X121688368Y-85470189D01*
X121682383Y-85460610D01*
X121655547Y-85417665D01*
X121636411Y-85349296D01*
X121657453Y-85281168D01*
X121678891Y-85248902D01*
X121739319Y-85089825D01*
X121763001Y-84921313D01*
X121763118Y-84912964D01*
X121763244Y-84903961D01*
X121763244Y-84903955D01*
X121763299Y-84900000D01*
X121744331Y-84730892D01*
X121737004Y-84709850D01*
X121730832Y-84692128D01*
X121727318Y-84621218D01*
X121762700Y-84559666D01*
X121825742Y-84527014D01*
X121893741Y-84532593D01*
X121915341Y-84540626D01*
X122084015Y-84563132D01*
X122091026Y-84562494D01*
X122091030Y-84562494D01*
X122246462Y-84548348D01*
X122253483Y-84547709D01*
X122260185Y-84545531D01*
X122260187Y-84545531D01*
X122408623Y-84497301D01*
X122408626Y-84497300D01*
X122415322Y-84495124D01*
X122561490Y-84407990D01*
X122566584Y-84403139D01*
X122566588Y-84403136D01*
X122633833Y-84339099D01*
X122684721Y-84290639D01*
X122778891Y-84148902D01*
X122839319Y-83989825D01*
X122863001Y-83821313D01*
X122863299Y-83800000D01*
X122844331Y-83630892D01*
X122788368Y-83470189D01*
X122783959Y-83463132D01*
X122745356Y-83401357D01*
X122698192Y-83325879D01*
X122685587Y-83313185D01*
X122588073Y-83214988D01*
X122578286Y-83205132D01*
X122434608Y-83113951D01*
X122274300Y-83056868D01*
X122105329Y-83036720D01*
X122098326Y-83037456D01*
X122098325Y-83037456D01*
X121943101Y-83053770D01*
X121943097Y-83053771D01*
X121936093Y-83054507D01*
X121929419Y-83056779D01*
X121891723Y-83069611D01*
X121820791Y-83072629D01*
X121759487Y-83036818D01*
X121727276Y-82973549D01*
X121733331Y-82905591D01*
X121736814Y-82896421D01*
X121736815Y-82896416D01*
X121739319Y-82889825D01*
X121763001Y-82721313D01*
X121763299Y-82700000D01*
X121744331Y-82530892D01*
X121688368Y-82370189D01*
X121682383Y-82360610D01*
X121660420Y-82325464D01*
X121598192Y-82225879D01*
X121478286Y-82105132D01*
X121462039Y-82094821D01*
X121423406Y-82070304D01*
X121334608Y-82013951D01*
X121174300Y-81956868D01*
X121005329Y-81936720D01*
X120998326Y-81937456D01*
X120998325Y-81937456D01*
X120843101Y-81953770D01*
X120843097Y-81953771D01*
X120836093Y-81954507D01*
X120829422Y-81956778D01*
X120681673Y-82007075D01*
X120681670Y-82007076D01*
X120675003Y-82009346D01*
X120669005Y-82013036D01*
X120669003Y-82013037D01*
X120536065Y-82094821D01*
X120536063Y-82094823D01*
X120530066Y-82098512D01*
X120408486Y-82217573D01*
X120316304Y-82360610D01*
X120258103Y-82520516D01*
X120236775Y-82689343D01*
X120253381Y-82858699D01*
X120307094Y-83020167D01*
X120310741Y-83026189D01*
X120310742Y-83026191D01*
X120391316Y-83159233D01*
X120395246Y-83165723D01*
X120513455Y-83288132D01*
X120655846Y-83381310D01*
X120662450Y-83383766D01*
X120662452Y-83383767D01*
X120735593Y-83410968D01*
X120815341Y-83440626D01*
X120984015Y-83463132D01*
X120991026Y-83462494D01*
X120991030Y-83462494D01*
X121146462Y-83448348D01*
X121153483Y-83447709D01*
X121160185Y-83445531D01*
X121160187Y-83445531D01*
X121211186Y-83428960D01*
X121282153Y-83426932D01*
X121342951Y-83463595D01*
X121374277Y-83527307D01*
X121368523Y-83591887D01*
X121358103Y-83620516D01*
X121336775Y-83789343D01*
X121353381Y-83958699D01*
X121355605Y-83965384D01*
X121355605Y-83965385D01*
X121370680Y-84010701D01*
X121373203Y-84081652D01*
X121336966Y-84142705D01*
X121273475Y-84174474D01*
X121208857Y-84169173D01*
X121180940Y-84159232D01*
X121180937Y-84159231D01*
X121174300Y-84156868D01*
X121005329Y-84136720D01*
X120998326Y-84137456D01*
X120998325Y-84137456D01*
X120843101Y-84153770D01*
X120843097Y-84153771D01*
X120836093Y-84154507D01*
X120829422Y-84156778D01*
X120681673Y-84207075D01*
X120681670Y-84207076D01*
X120675003Y-84209346D01*
X120669005Y-84213036D01*
X120669003Y-84213037D01*
X120536065Y-84294821D01*
X120536063Y-84294823D01*
X120530066Y-84298512D01*
X120408486Y-84417573D01*
X120404675Y-84423487D01*
X120404673Y-84423489D01*
X120337955Y-84527014D01*
X120316304Y-84560610D01*
X120258103Y-84720516D01*
X120236775Y-84889343D01*
X120253381Y-85058699D01*
X120307094Y-85220167D01*
X120310742Y-85226191D01*
X120310745Y-85226197D01*
X120345840Y-85284146D01*
X120364019Y-85352776D01*
X120343975Y-85417672D01*
X120320124Y-85454682D01*
X120316304Y-85460610D01*
X120258103Y-85620516D01*
X120236775Y-85789343D01*
X120253381Y-85958699D01*
X120307094Y-86120167D01*
X120310741Y-86126189D01*
X120310742Y-86126191D01*
X120391316Y-86259233D01*
X120395246Y-86265723D01*
X120513455Y-86388132D01*
X120655846Y-86481310D01*
X120662450Y-86483766D01*
X120662452Y-86483767D01*
X120735594Y-86510968D01*
X120815341Y-86540626D01*
X120984015Y-86563132D01*
X120991026Y-86562494D01*
X120991030Y-86562494D01*
X121146466Y-86548348D01*
X121146469Y-86548347D01*
X121153483Y-86547709D01*
X121155341Y-86547105D01*
X121224085Y-86552836D01*
X121280417Y-86596048D01*
X121304443Y-86662855D01*
X121297068Y-86713459D01*
X121297059Y-86713484D01*
X121258103Y-86820516D01*
X121236775Y-86989343D01*
X121253381Y-87158699D01*
X121307094Y-87320167D01*
X121343068Y-87379566D01*
X121361246Y-87448194D01*
X121339436Y-87515757D01*
X121284560Y-87560804D01*
X121214042Y-87569031D01*
X121193026Y-87563536D01*
X121192722Y-87563428D01*
X121174300Y-87556868D01*
X121005329Y-87536720D01*
X120998326Y-87537456D01*
X120998325Y-87537456D01*
X120843101Y-87553770D01*
X120843097Y-87553771D01*
X120836093Y-87554507D01*
X120829422Y-87556778D01*
X120681673Y-87607075D01*
X120681670Y-87607076D01*
X120675003Y-87609346D01*
X120669005Y-87613036D01*
X120669003Y-87613037D01*
X120536065Y-87694821D01*
X120536063Y-87694823D01*
X120530066Y-87698512D01*
X120486109Y-87741558D01*
X120423330Y-87803037D01*
X120408486Y-87817573D01*
X120404675Y-87823487D01*
X120404673Y-87823489D01*
X120320121Y-87954687D01*
X120316304Y-87960610D01*
X120258103Y-88120516D01*
X120236775Y-88289343D01*
X120253381Y-88458699D01*
X120307094Y-88620167D01*
X120310741Y-88626189D01*
X120310742Y-88626191D01*
X120327445Y-88653770D01*
X120395246Y-88765723D01*
X120400138Y-88770788D01*
X120401950Y-88773142D01*
X120427667Y-88839317D01*
X120413523Y-88908891D01*
X120408034Y-88918275D01*
X120316304Y-89060610D01*
X120295514Y-89117730D01*
X120261884Y-89210129D01*
X120258103Y-89220516D01*
X120236775Y-89389343D01*
X119462104Y-89389343D01*
X119444331Y-89230892D01*
X119439748Y-89217730D01*
X119404924Y-89117730D01*
X119388368Y-89070189D01*
X119382383Y-89060610D01*
X119324310Y-88967676D01*
X119298192Y-88925879D01*
X119178286Y-88805132D01*
X119162039Y-88794821D01*
X119106697Y-88759700D01*
X119034608Y-88713951D01*
X118874300Y-88656868D01*
X118705329Y-88636720D01*
X118698326Y-88637456D01*
X118698325Y-88637456D01*
X118543101Y-88653770D01*
X118543097Y-88653771D01*
X118536093Y-88654507D01*
X118529422Y-88656778D01*
X118381673Y-88707075D01*
X118381670Y-88707076D01*
X118375003Y-88709346D01*
X118369005Y-88713036D01*
X118369003Y-88713037D01*
X118236065Y-88794821D01*
X118236063Y-88794823D01*
X118230066Y-88798512D01*
X118108486Y-88917573D01*
X118104674Y-88923489D01*
X118100217Y-88928953D01*
X118098667Y-88927689D01*
X118052405Y-88967676D01*
X117982119Y-88977693D01*
X117917574Y-88948121D01*
X117901742Y-88931560D01*
X117898192Y-88925879D01*
X117778286Y-88805132D01*
X117762039Y-88794821D01*
X117706697Y-88759700D01*
X117634608Y-88713951D01*
X117474300Y-88656868D01*
X117305329Y-88636720D01*
X117298326Y-88637456D01*
X117298325Y-88637456D01*
X117143101Y-88653770D01*
X117143097Y-88653771D01*
X117136093Y-88654507D01*
X117129422Y-88656778D01*
X116981673Y-88707075D01*
X116981670Y-88707076D01*
X116975003Y-88709346D01*
X116969005Y-88713036D01*
X116969003Y-88713037D01*
X116836065Y-88794821D01*
X116836063Y-88794823D01*
X116830066Y-88798512D01*
X116708486Y-88917573D01*
X116704675Y-88923487D01*
X116704673Y-88923489D01*
X116699282Y-88931854D01*
X116616304Y-89060610D01*
X116595514Y-89117730D01*
X116561884Y-89210129D01*
X116558103Y-89220516D01*
X116536775Y-89389343D01*
X115430698Y-89389343D01*
X115439176Y-89379416D01*
X115441755Y-89375208D01*
X115441759Y-89375202D01*
X115560654Y-89181183D01*
X115563240Y-89176963D01*
X115579605Y-89137456D01*
X115652211Y-88962167D01*
X115652212Y-88962165D01*
X115654105Y-88957594D01*
X115692297Y-88798512D01*
X115708380Y-88731524D01*
X115708381Y-88731518D01*
X115709535Y-88726711D01*
X115728165Y-88490000D01*
X115709535Y-88253289D01*
X115681831Y-88137891D01*
X115655260Y-88027218D01*
X115654105Y-88022406D01*
X115632476Y-87970189D01*
X115565135Y-87807611D01*
X115565133Y-87807607D01*
X115563240Y-87803037D01*
X115538215Y-87762200D01*
X115441759Y-87604798D01*
X115441755Y-87604792D01*
X115439176Y-87600584D01*
X115429494Y-87589248D01*
X115400462Y-87524459D01*
X115411066Y-87454258D01*
X115457940Y-87400935D01*
X115464797Y-87396895D01*
X115468647Y-87394787D01*
X115570724Y-87318285D01*
X115583285Y-87305724D01*
X115659786Y-87203649D01*
X115668324Y-87188054D01*
X115713478Y-87067606D01*
X115717105Y-87052351D01*
X115722631Y-87001486D01*
X115723000Y-86994672D01*
X115723000Y-86389343D01*
X117936775Y-86389343D01*
X117953381Y-86558699D01*
X118007094Y-86720167D01*
X118010741Y-86726189D01*
X118010742Y-86726191D01*
X118074152Y-86830892D01*
X118095246Y-86865723D01*
X118213455Y-86988132D01*
X118355846Y-87081310D01*
X118362450Y-87083766D01*
X118362452Y-87083767D01*
X118398844Y-87097301D01*
X118515341Y-87140626D01*
X118684015Y-87163132D01*
X118691026Y-87162494D01*
X118691030Y-87162494D01*
X118846462Y-87148348D01*
X118853483Y-87147709D01*
X118860185Y-87145531D01*
X118860187Y-87145531D01*
X119008623Y-87097301D01*
X119008626Y-87097300D01*
X119015322Y-87095124D01*
X119161490Y-87007990D01*
X119166584Y-87003139D01*
X119166588Y-87003136D01*
X119261967Y-86912307D01*
X119284721Y-86890639D01*
X119378891Y-86748902D01*
X119439319Y-86589825D01*
X119463001Y-86421313D01*
X119463187Y-86407990D01*
X119463244Y-86403961D01*
X119463244Y-86403955D01*
X119463299Y-86400000D01*
X119444331Y-86230892D01*
X119428946Y-86186711D01*
X119403445Y-86113484D01*
X119388368Y-86070189D01*
X119382383Y-86060610D01*
X119338150Y-85989825D01*
X119298192Y-85925879D01*
X119178286Y-85805132D01*
X119170200Y-85800000D01*
X119097524Y-85753879D01*
X119034608Y-85713951D01*
X118874300Y-85656868D01*
X118705329Y-85636720D01*
X118698326Y-85637456D01*
X118698325Y-85637456D01*
X118543101Y-85653770D01*
X118543097Y-85653771D01*
X118536093Y-85654507D01*
X118529422Y-85656778D01*
X118381673Y-85707075D01*
X118381670Y-85707076D01*
X118375003Y-85709346D01*
X118369005Y-85713036D01*
X118369003Y-85713037D01*
X118236065Y-85794821D01*
X118236063Y-85794823D01*
X118230066Y-85798512D01*
X118108486Y-85917573D01*
X118104675Y-85923487D01*
X118104673Y-85923489D01*
X118061922Y-85989825D01*
X118016304Y-86060610D01*
X117990924Y-86130342D01*
X117963068Y-86206876D01*
X117958103Y-86220516D01*
X117936775Y-86389343D01*
X115723000Y-86389343D01*
X115723000Y-86222115D01*
X115718525Y-86206876D01*
X115717135Y-86205671D01*
X115709452Y-86204000D01*
X114087000Y-86204000D01*
X114018879Y-86183998D01*
X113972386Y-86130342D01*
X113961000Y-86078000D01*
X113961000Y-85822000D01*
X113981002Y-85753879D01*
X114034658Y-85707386D01*
X114087000Y-85696000D01*
X115704884Y-85696000D01*
X115720123Y-85691525D01*
X115721328Y-85690135D01*
X115722999Y-85682452D01*
X115722999Y-84905331D01*
X115722629Y-84898510D01*
X115717105Y-84847648D01*
X115713479Y-84832396D01*
X115668324Y-84711946D01*
X115659786Y-84696351D01*
X115583285Y-84594276D01*
X115570724Y-84581715D01*
X115468649Y-84505214D01*
X115453054Y-84496676D01*
X115332606Y-84451522D01*
X115317351Y-84447895D01*
X115266486Y-84442369D01*
X115259672Y-84442000D01*
X114326174Y-84442001D01*
X114258053Y-84421999D01*
X114211560Y-84368343D01*
X114201456Y-84298069D01*
X114208386Y-84271258D01*
X114236815Y-84196417D01*
X114236815Y-84196416D01*
X114239319Y-84189825D01*
X114263001Y-84021313D01*
X114263299Y-84000000D01*
X114244331Y-83830892D01*
X114227427Y-83782349D01*
X114190686Y-83676846D01*
X114188368Y-83670189D01*
X114098192Y-83525879D01*
X113978286Y-83405132D01*
X113834608Y-83313951D01*
X113674300Y-83256868D01*
X113505329Y-83236720D01*
X113498326Y-83237456D01*
X113498325Y-83237456D01*
X113343101Y-83253770D01*
X113343097Y-83253771D01*
X113336093Y-83254507D01*
X113329422Y-83256778D01*
X113274605Y-83275439D01*
X113203673Y-83278457D01*
X113142369Y-83242647D01*
X113110157Y-83179378D01*
X113108000Y-83156161D01*
X113108000Y-80944806D01*
X113128002Y-80876685D01*
X113181658Y-80830192D01*
X113251932Y-80820088D01*
X113277916Y-80826708D01*
X113315341Y-80840626D01*
X113484015Y-80863132D01*
X113491026Y-80862494D01*
X113491030Y-80862494D01*
X113646462Y-80848348D01*
X113653483Y-80847709D01*
X113660185Y-80845531D01*
X113660187Y-80845531D01*
X113808623Y-80797301D01*
X113808626Y-80797300D01*
X113815322Y-80795124D01*
X113961490Y-80707990D01*
X113966584Y-80703139D01*
X113966588Y-80703136D01*
X114057958Y-80616125D01*
X114084721Y-80590639D01*
X114089900Y-80582845D01*
X114174990Y-80454773D01*
X114178891Y-80448902D01*
X114239319Y-80289825D01*
X114263001Y-80121313D01*
X114263171Y-80109163D01*
X114284125Y-80041329D01*
X114338425Y-79995591D01*
X114406694Y-79986152D01*
X114494552Y-79998500D01*
X114705146Y-79998500D01*
X114707332Y-79998347D01*
X114707336Y-79998347D01*
X114757759Y-79994821D01*
X114804121Y-79991579D01*
X114873470Y-80006780D01*
X114923592Y-80057062D01*
X114938308Y-80104975D01*
X114953381Y-80258699D01*
X114955605Y-80265384D01*
X114955605Y-80265385D01*
X114957203Y-80270189D01*
X115007094Y-80420167D01*
X115010741Y-80426189D01*
X115010742Y-80426191D01*
X115024497Y-80448902D01*
X115095246Y-80565723D01*
X115213455Y-80688132D01*
X115355846Y-80781310D01*
X115362450Y-80783766D01*
X115362452Y-80783767D01*
X115398844Y-80797301D01*
X115515341Y-80840626D01*
X115684015Y-80863132D01*
X115691026Y-80862494D01*
X115691030Y-80862494D01*
X115846462Y-80848348D01*
X115853483Y-80847709D01*
X115860185Y-80845531D01*
X115860187Y-80845531D01*
X116008623Y-80797301D01*
X116008626Y-80797300D01*
X116015322Y-80795124D01*
X116161490Y-80707990D01*
X116166584Y-80703139D01*
X116166588Y-80703136D01*
X116277095Y-80597901D01*
X116340220Y-80565409D01*
X116410891Y-80572202D01*
X116466670Y-80616125D01*
X116483543Y-80649371D01*
X116507094Y-80720167D01*
X116510741Y-80726189D01*
X116510742Y-80726191D01*
X116584840Y-80848540D01*
X116595246Y-80865723D01*
X116713455Y-80988132D01*
X116719351Y-80991990D01*
X116832027Y-81065723D01*
X116855846Y-81081310D01*
X116862450Y-81083766D01*
X116862452Y-81083767D01*
X116935593Y-81110968D01*
X117015341Y-81140626D01*
X117184015Y-81163132D01*
X117191026Y-81162494D01*
X117191030Y-81162494D01*
X117346462Y-81148348D01*
X117353483Y-81147709D01*
X117360185Y-81145531D01*
X117360187Y-81145531D01*
X117508623Y-81097301D01*
X117508626Y-81097300D01*
X117515322Y-81095124D01*
X117661490Y-81007990D01*
X117666584Y-81003139D01*
X117666588Y-81003136D01*
X117764221Y-80910161D01*
X117827346Y-80877669D01*
X117898017Y-80884462D01*
X117941749Y-80913880D01*
X118008556Y-80983060D01*
X118008561Y-80983064D01*
X118013455Y-80988132D01*
X118019351Y-80991990D01*
X118132027Y-81065723D01*
X118155846Y-81081310D01*
X118162450Y-81083766D01*
X118162452Y-81083767D01*
X118235593Y-81110968D01*
X118315341Y-81140626D01*
X118484015Y-81163132D01*
X118491026Y-81162494D01*
X118491030Y-81162494D01*
X118646462Y-81148348D01*
X118653483Y-81147709D01*
X118660185Y-81145531D01*
X118660187Y-81145531D01*
X118808623Y-81097301D01*
X118808626Y-81097300D01*
X118815322Y-81095124D01*
X118961490Y-81007990D01*
X118966584Y-81003139D01*
X118966588Y-81003136D01*
X119033833Y-80939099D01*
X119084721Y-80890639D01*
X119093339Y-80877669D01*
X119159922Y-80777452D01*
X119178891Y-80748902D01*
X119239319Y-80589825D01*
X119239387Y-80589343D01*
X120336775Y-80589343D01*
X120353381Y-80758699D01*
X120355605Y-80765384D01*
X120355605Y-80765385D01*
X120365498Y-80795124D01*
X120407094Y-80920167D01*
X120410741Y-80926189D01*
X120410742Y-80926191D01*
X120460282Y-81007990D01*
X120495246Y-81065723D01*
X120613455Y-81188132D01*
X120755846Y-81281310D01*
X120762450Y-81283766D01*
X120762452Y-81283767D01*
X120798844Y-81297301D01*
X120915341Y-81340626D01*
X121084015Y-81363132D01*
X121091026Y-81362494D01*
X121091030Y-81362494D01*
X121246462Y-81348348D01*
X121253483Y-81347709D01*
X121260185Y-81345531D01*
X121260187Y-81345531D01*
X121408623Y-81297301D01*
X121408626Y-81297300D01*
X121415322Y-81295124D01*
X121561490Y-81207990D01*
X121566584Y-81203139D01*
X121566588Y-81203136D01*
X121634809Y-81138169D01*
X121684721Y-81090639D01*
X121693483Y-81077452D01*
X121750263Y-80991990D01*
X121778891Y-80948902D01*
X121792143Y-80914016D01*
X121835033Y-80857439D01*
X121901702Y-80833030D01*
X121970983Y-80848540D01*
X122000568Y-80871234D01*
X122113455Y-80988132D01*
X122119351Y-80991990D01*
X122232027Y-81065723D01*
X122255846Y-81081310D01*
X122262450Y-81083766D01*
X122262452Y-81083767D01*
X122335593Y-81110968D01*
X122415341Y-81140626D01*
X122584015Y-81163132D01*
X122591026Y-81162494D01*
X122591030Y-81162494D01*
X122746462Y-81148348D01*
X122753483Y-81147709D01*
X122760185Y-81145531D01*
X122760187Y-81145531D01*
X122908623Y-81097301D01*
X122908626Y-81097300D01*
X122915322Y-81095124D01*
X123061490Y-81007990D01*
X123066584Y-81003139D01*
X123066588Y-81003136D01*
X123133833Y-80939099D01*
X123184721Y-80890639D01*
X123193339Y-80877669D01*
X123259922Y-80777452D01*
X123278891Y-80748902D01*
X123339319Y-80589825D01*
X123363001Y-80421313D01*
X123363299Y-80400000D01*
X123344331Y-80230892D01*
X123288368Y-80070189D01*
X123282916Y-80061463D01*
X123243571Y-79998500D01*
X123198192Y-79925879D01*
X123192001Y-79919644D01*
X123083248Y-79810129D01*
X123078286Y-79805132D01*
X123062039Y-79794821D01*
X122989682Y-79748902D01*
X122934608Y-79713951D01*
X122774300Y-79656868D01*
X122605329Y-79636720D01*
X122598326Y-79637456D01*
X122598325Y-79637456D01*
X122443101Y-79653770D01*
X122443097Y-79653771D01*
X122436093Y-79654507D01*
X122429422Y-79656778D01*
X122281673Y-79707075D01*
X122281670Y-79707076D01*
X122275003Y-79709346D01*
X122269005Y-79713036D01*
X122269003Y-79713037D01*
X122136065Y-79794821D01*
X122136063Y-79794823D01*
X122130066Y-79798512D01*
X122125033Y-79803441D01*
X122014600Y-79911586D01*
X122008486Y-79917573D01*
X122004675Y-79923487D01*
X122004673Y-79923489D01*
X121949853Y-80008553D01*
X121916304Y-80060610D01*
X121913895Y-80067230D01*
X121908177Y-80082939D01*
X121866082Y-80140110D01*
X121799760Y-80165447D01*
X121730269Y-80150905D01*
X121699168Y-80124909D01*
X121698192Y-80125879D01*
X121650102Y-80077452D01*
X121578286Y-80005132D01*
X121566872Y-79997888D01*
X121504325Y-79958195D01*
X121434608Y-79913951D01*
X121274300Y-79856868D01*
X121105329Y-79836720D01*
X121098326Y-79837456D01*
X121098325Y-79837456D01*
X120943101Y-79853770D01*
X120943097Y-79853771D01*
X120936093Y-79854507D01*
X120929422Y-79856778D01*
X120781673Y-79907075D01*
X120781670Y-79907076D01*
X120775003Y-79909346D01*
X120769005Y-79913036D01*
X120769003Y-79913037D01*
X120636065Y-79994821D01*
X120636063Y-79994823D01*
X120630066Y-79998512D01*
X120570277Y-80057062D01*
X120521350Y-80104976D01*
X120508486Y-80117573D01*
X120504675Y-80123487D01*
X120504673Y-80123489D01*
X120420121Y-80254687D01*
X120416304Y-80260610D01*
X120379721Y-80361122D01*
X120364129Y-80403961D01*
X120358103Y-80420516D01*
X120336775Y-80589343D01*
X119239387Y-80589343D01*
X119263001Y-80421313D01*
X119263299Y-80400000D01*
X119244331Y-80230892D01*
X119188368Y-80070189D01*
X119182916Y-80061463D01*
X119143571Y-79998500D01*
X119098192Y-79925879D01*
X119092001Y-79919644D01*
X118983248Y-79810129D01*
X118978286Y-79805132D01*
X118962039Y-79794821D01*
X118889682Y-79748902D01*
X118834608Y-79713951D01*
X118674300Y-79656868D01*
X118505329Y-79636720D01*
X118498326Y-79637456D01*
X118498325Y-79637456D01*
X118343101Y-79653770D01*
X118343097Y-79653771D01*
X118336093Y-79654507D01*
X118329422Y-79656778D01*
X118181673Y-79707075D01*
X118181670Y-79707076D01*
X118175003Y-79709346D01*
X118169005Y-79713036D01*
X118169003Y-79713037D01*
X118036065Y-79794821D01*
X118036063Y-79794823D01*
X118030066Y-79798512D01*
X117963230Y-79863963D01*
X117937785Y-79888881D01*
X117875120Y-79922252D01*
X117804361Y-79916446D01*
X117760221Y-79887641D01*
X117683253Y-79810133D01*
X117683248Y-79810129D01*
X117678286Y-79805132D01*
X117662039Y-79794821D01*
X117589682Y-79748902D01*
X117534608Y-79713951D01*
X117374300Y-79656868D01*
X117205329Y-79636720D01*
X117198326Y-79637456D01*
X117198325Y-79637456D01*
X117043101Y-79653770D01*
X117043097Y-79653771D01*
X117036093Y-79654507D01*
X117029422Y-79656778D01*
X116881673Y-79707075D01*
X116881670Y-79707076D01*
X116875003Y-79709346D01*
X116869005Y-79713036D01*
X116869003Y-79713037D01*
X116736065Y-79794821D01*
X116736063Y-79794823D01*
X116730066Y-79798512D01*
X116725033Y-79803441D01*
X116624471Y-79901919D01*
X116561806Y-79935290D01*
X116491047Y-79929484D01*
X116434660Y-79886345D01*
X116417322Y-79853333D01*
X116411537Y-79836720D01*
X116388368Y-79770189D01*
X116378853Y-79754961D01*
X116351748Y-79711586D01*
X116298192Y-79625879D01*
X116288433Y-79616051D01*
X116205322Y-79532358D01*
X116178286Y-79505132D01*
X116172338Y-79501357D01*
X116166850Y-79496945D01*
X116168503Y-79494888D01*
X116129677Y-79450601D01*
X116120508Y-79389343D01*
X123436775Y-79389343D01*
X123453381Y-79558699D01*
X123507094Y-79720167D01*
X123510741Y-79726189D01*
X123510742Y-79726191D01*
X123591316Y-79859233D01*
X123595246Y-79865723D01*
X123713455Y-79988132D01*
X123733665Y-80001357D01*
X123825517Y-80061463D01*
X123855846Y-80081310D01*
X123862450Y-80083766D01*
X123862452Y-80083767D01*
X123930740Y-80109163D01*
X124015341Y-80140626D01*
X124184015Y-80163132D01*
X124191026Y-80162494D01*
X124191030Y-80162494D01*
X124346462Y-80148348D01*
X124353483Y-80147709D01*
X124360185Y-80145531D01*
X124360187Y-80145531D01*
X124508623Y-80097301D01*
X124508626Y-80097300D01*
X124515322Y-80095124D01*
X124661490Y-80007990D01*
X124666584Y-80003139D01*
X124666588Y-80003136D01*
X124752965Y-79920880D01*
X124784721Y-79890639D01*
X124789668Y-79883194D01*
X124860324Y-79776847D01*
X124878891Y-79748902D01*
X124939319Y-79589825D01*
X124963001Y-79421313D01*
X124963299Y-79400000D01*
X124944331Y-79230892D01*
X124888368Y-79070189D01*
X124882383Y-79060610D01*
X124844725Y-79000347D01*
X124798192Y-78925879D01*
X124785053Y-78912648D01*
X124719645Y-78846781D01*
X129911868Y-78846781D01*
X129921436Y-79053502D01*
X129922840Y-79059327D01*
X129922840Y-79059328D01*
X129965874Y-79237891D01*
X129969921Y-79254685D01*
X130055574Y-79443069D01*
X130175305Y-79611858D01*
X130179628Y-79615996D01*
X130179632Y-79616001D01*
X130298178Y-79729484D01*
X130324792Y-79754961D01*
X130339121Y-79764213D01*
X130493606Y-79863963D01*
X130493609Y-79863964D01*
X130498643Y-79867215D01*
X130690584Y-79944570D01*
X130696465Y-79945718D01*
X130696470Y-79945720D01*
X130889244Y-79983366D01*
X130889247Y-79983366D01*
X130893690Y-79984234D01*
X130899129Y-79984500D01*
X131051704Y-79984500D01*
X131206007Y-79969778D01*
X131211761Y-79968090D01*
X131398827Y-79913211D01*
X131398829Y-79913210D01*
X131404580Y-79911523D01*
X131409914Y-79908776D01*
X131583225Y-79819516D01*
X131583228Y-79819514D01*
X131588556Y-79816770D01*
X131751294Y-79688937D01*
X131886924Y-79532637D01*
X131990552Y-79353510D01*
X132058438Y-79158019D01*
X132064548Y-79115882D01*
X132087271Y-78959159D01*
X132087271Y-78959156D01*
X132088132Y-78953219D01*
X132078564Y-78746498D01*
X132041818Y-78594023D01*
X132031485Y-78551148D01*
X132031484Y-78551146D01*
X132030079Y-78545315D01*
X132005220Y-78490639D01*
X131946906Y-78362386D01*
X131944426Y-78356931D01*
X131824695Y-78188142D01*
X131820372Y-78184004D01*
X131820368Y-78183999D01*
X131679538Y-78049184D01*
X131675208Y-78045039D01*
X131575230Y-77980484D01*
X131506394Y-77936037D01*
X131506391Y-77936036D01*
X131501357Y-77932785D01*
X131309416Y-77855430D01*
X131303535Y-77854282D01*
X131303530Y-77854280D01*
X131110756Y-77816634D01*
X131110753Y-77816634D01*
X131106310Y-77815766D01*
X131100871Y-77815500D01*
X130948296Y-77815500D01*
X130793993Y-77830222D01*
X130788239Y-77831910D01*
X130601173Y-77886789D01*
X130601171Y-77886790D01*
X130595420Y-77888477D01*
X130590087Y-77891223D01*
X130590086Y-77891224D01*
X130416775Y-77980484D01*
X130416772Y-77980486D01*
X130411444Y-77983230D01*
X130248706Y-78111063D01*
X130113076Y-78267363D01*
X130009448Y-78446490D01*
X129941562Y-78641981D01*
X129940702Y-78647914D01*
X129940701Y-78647917D01*
X129917182Y-78810129D01*
X129911868Y-78846781D01*
X124719645Y-78846781D01*
X124683249Y-78810129D01*
X124683245Y-78810126D01*
X124678286Y-78805132D01*
X124672338Y-78801357D01*
X124668417Y-78798205D01*
X124627860Y-78739933D01*
X124625246Y-78668985D01*
X124661262Y-78608126D01*
X124661490Y-78607990D01*
X124784721Y-78490639D01*
X124878891Y-78348902D01*
X124939319Y-78189825D01*
X124963001Y-78021313D01*
X124963299Y-78000000D01*
X124944331Y-77830892D01*
X124888368Y-77670189D01*
X124883959Y-77663132D01*
X124860420Y-77625464D01*
X124798192Y-77525879D01*
X124678286Y-77405132D01*
X124662039Y-77394821D01*
X124606697Y-77359700D01*
X124534608Y-77313951D01*
X124374300Y-77256868D01*
X124205329Y-77236720D01*
X124198326Y-77237456D01*
X124198325Y-77237456D01*
X124043101Y-77253770D01*
X124043097Y-77253771D01*
X124036093Y-77254507D01*
X124029422Y-77256778D01*
X123881673Y-77307075D01*
X123881670Y-77307076D01*
X123875003Y-77309346D01*
X123869005Y-77313036D01*
X123869003Y-77313037D01*
X123736065Y-77394821D01*
X123736063Y-77394823D01*
X123730066Y-77398512D01*
X123725033Y-77403441D01*
X123627723Y-77498735D01*
X123608486Y-77517573D01*
X123604675Y-77523487D01*
X123604673Y-77523489D01*
X123569896Y-77577452D01*
X123516304Y-77660610D01*
X123458103Y-77820516D01*
X123436775Y-77989343D01*
X123453381Y-78158699D01*
X123507094Y-78320167D01*
X123510741Y-78326189D01*
X123510742Y-78326191D01*
X123587031Y-78452158D01*
X123595246Y-78465723D01*
X123713455Y-78588132D01*
X123722459Y-78594024D01*
X123724011Y-78595845D01*
X123724776Y-78596478D01*
X123724665Y-78596612D01*
X123768508Y-78648059D01*
X123778034Y-78718414D01*
X123748011Y-78782750D01*
X123733590Y-78796344D01*
X123730066Y-78798512D01*
X123608486Y-78917573D01*
X123516304Y-79060610D01*
X123458103Y-79220516D01*
X123436775Y-79389343D01*
X116120508Y-79389343D01*
X116119167Y-79380387D01*
X116144697Y-79320023D01*
X116301474Y-79119357D01*
X116301480Y-79119348D01*
X116304188Y-79115882D01*
X116306384Y-79112078D01*
X116306389Y-79112071D01*
X116442435Y-78876431D01*
X116444636Y-78872619D01*
X116549862Y-78612176D01*
X116555857Y-78588132D01*
X116616753Y-78343893D01*
X116616754Y-78343888D01*
X116617817Y-78339624D01*
X116620565Y-78313484D01*
X116646719Y-78064636D01*
X116646719Y-78064633D01*
X116647178Y-78060267D01*
X116646791Y-78049184D01*
X116637529Y-77783939D01*
X116637528Y-77783933D01*
X116637375Y-77779542D01*
X116635820Y-77770720D01*
X116593701Y-77531854D01*
X116588598Y-77502913D01*
X116501797Y-77235765D01*
X116497128Y-77226191D01*
X116444687Y-77118672D01*
X116378660Y-76983298D01*
X116376205Y-76979659D01*
X116376202Y-76979653D01*
X116303110Y-76871290D01*
X116221585Y-76750424D01*
X116218633Y-76747145D01*
X116102630Y-76618310D01*
X116071912Y-76554303D01*
X116080677Y-76483849D01*
X116126140Y-76429318D01*
X116196266Y-76408000D01*
X135991903Y-76408000D01*
X136060024Y-76428002D01*
G37*
G04 #@! TD.AperFunction*
M02*
