G04 #@! TF.GenerationSoftware,KiCad,Pcbnew,6.0.2+dfsg-1*
G04 #@! TF.CreationDate,2024-02-25T21:37:04-08:00*
G04 #@! TF.ProjectId,cchat,63636861-742e-46b6-9963-61645f706362,rev?*
G04 #@! TF.SameCoordinates,Original*
G04 #@! TF.FileFunction,Copper,L4,Bot*
G04 #@! TF.FilePolarity,Positive*
%FSLAX46Y46*%
G04 Gerber Fmt 4.6, Leading zero omitted, Abs format (unit mm)*
G04 Created by KiCad (PCBNEW 6.0.2+dfsg-1) date 2024-02-25 21:37:04*
%MOMM*%
%LPD*%
G01*
G04 APERTURE LIST*
G04 #@! TA.AperFunction,ComponentPad*
%ADD10R,2.000000X2.000000*%
G04 #@! TD*
G04 #@! TA.AperFunction,ComponentPad*
%ADD11C,2.000000*%
G04 #@! TD*
G04 #@! TA.AperFunction,SMDPad,CuDef*
%ADD12R,1.500000X3.500000*%
G04 #@! TD*
G04 #@! TA.AperFunction,ViaPad*
%ADD13C,0.500000*%
G04 #@! TD*
G04 #@! TA.AperFunction,Conductor*
%ADD14C,0.250000*%
G04 #@! TD*
G04 APERTURE END LIST*
D10*
X114215000Y-85950000D03*
D11*
X114215000Y-88490000D03*
X114215000Y-91030000D03*
X114215000Y-93570000D03*
X114215000Y-96110000D03*
X114215000Y-98650000D03*
X114215000Y-101190000D03*
X114215000Y-103730000D03*
X114215000Y-106270000D03*
X114215000Y-108810000D03*
X114215000Y-111350000D03*
X114215000Y-113890000D03*
X114215000Y-116430000D03*
X114215000Y-118970000D03*
X114215000Y-121510000D03*
X139615000Y-121510000D03*
X139615000Y-118970000D03*
X139615000Y-116430000D03*
X139615000Y-113890000D03*
X139615000Y-111350000D03*
X139615000Y-108810000D03*
X139615000Y-106270000D03*
X139615000Y-103730000D03*
X139615000Y-101190000D03*
X139615000Y-98650000D03*
X139615000Y-96110000D03*
X139615000Y-93570000D03*
X139615000Y-91030000D03*
X139615000Y-88490000D03*
X139615000Y-85950000D03*
D12*
X122600000Y-77972500D03*
X117200000Y-77972500D03*
D13*
X120600000Y-92300000D03*
X118790124Y-92387590D03*
X122600000Y-94900000D03*
X119974500Y-98900000D03*
X115100000Y-92400000D03*
X115200000Y-97300000D03*
X116300000Y-102600000D03*
X118700000Y-86400000D03*
X121000000Y-88300000D03*
X123200000Y-92400000D03*
X122000000Y-87000000D03*
X116100000Y-98000000D03*
X117300000Y-94300000D03*
X121000000Y-82700000D03*
X124200000Y-79400000D03*
X121100000Y-80600000D03*
X140100000Y-80400000D03*
X124200000Y-78000000D03*
X137400000Y-120300000D03*
X116100000Y-100300000D03*
X121000000Y-85800000D03*
X129300000Y-95600000D03*
X123100000Y-89800000D03*
X117200000Y-80400000D03*
X137500000Y-87000000D03*
X140000000Y-83900000D03*
X119700000Y-100800000D03*
X121000000Y-84900000D03*
X116800000Y-92800000D03*
X113500000Y-80100000D03*
X116100000Y-117500000D03*
X124700000Y-95600000D03*
X118700000Y-89400000D03*
X136800000Y-76900000D03*
X123100000Y-91100000D03*
X116100000Y-108400000D03*
X121000000Y-89400000D03*
X122600000Y-80400000D03*
X115700000Y-80100000D03*
X118500000Y-80400000D03*
X122100000Y-83800000D03*
X116100000Y-91500000D03*
X121600000Y-100800000D03*
X117300000Y-89400000D03*
X129300000Y-97200000D03*
X121500000Y-93800000D03*
X120600000Y-100800000D03*
X113500000Y-84000000D03*
X137900000Y-97300000D03*
X137500000Y-89900000D03*
X124000000Y-92900000D03*
X127100000Y-92900000D03*
X122541233Y-97554531D03*
X117500000Y-101800000D03*
X119474500Y-99700000D03*
D14*
X117300000Y-94300000D02*
X117400000Y-94300000D01*
X119619511Y-98325489D02*
X114215000Y-103730000D01*
X121770275Y-98325489D02*
X119619511Y-98325489D01*
X122541233Y-97554531D02*
X121770275Y-98325489D01*
X117500000Y-101800000D02*
X117500000Y-118225000D01*
X117500000Y-118225000D02*
X114215000Y-121510000D01*
X119474500Y-99700000D02*
X133485000Y-99700000D01*
X133485000Y-99700000D02*
X139615000Y-93570000D01*
G04 #@! TA.AperFunction,Conductor*
G36*
X138032147Y-96152923D02*
G01*
X138088983Y-96195470D01*
X138113727Y-96261093D01*
X138120465Y-96346711D01*
X138175895Y-96577594D01*
X138177788Y-96582165D01*
X138177789Y-96582167D01*
X138264699Y-96791987D01*
X138266760Y-96796963D01*
X138269346Y-96801183D01*
X138388241Y-96995202D01*
X138388245Y-96995208D01*
X138390824Y-96999416D01*
X138545031Y-97179969D01*
X138548787Y-97183177D01*
X138548792Y-97183182D01*
X138667056Y-97284189D01*
X138705866Y-97343639D01*
X138706372Y-97414634D01*
X138667056Y-97475811D01*
X138548792Y-97576818D01*
X138548787Y-97576823D01*
X138545031Y-97580031D01*
X138390824Y-97760584D01*
X138388245Y-97764792D01*
X138388241Y-97764798D01*
X138269346Y-97958817D01*
X138266760Y-97963037D01*
X138264867Y-97967607D01*
X138264865Y-97967611D01*
X138182639Y-98166125D01*
X138175895Y-98182406D01*
X138120465Y-98413289D01*
X138101835Y-98650000D01*
X138120465Y-98886711D01*
X138121619Y-98891518D01*
X138121620Y-98891524D01*
X138137517Y-98957738D01*
X138175895Y-99117594D01*
X138266760Y-99336963D01*
X138269346Y-99341183D01*
X138388241Y-99535202D01*
X138388245Y-99535208D01*
X138390824Y-99539416D01*
X138545031Y-99719969D01*
X138548787Y-99723177D01*
X138548792Y-99723182D01*
X138667056Y-99824189D01*
X138705866Y-99883639D01*
X138706372Y-99954634D01*
X138667056Y-100015811D01*
X138548792Y-100116818D01*
X138548787Y-100116823D01*
X138545031Y-100120031D01*
X138390824Y-100300584D01*
X138388245Y-100304792D01*
X138388241Y-100304798D01*
X138291785Y-100462200D01*
X138266760Y-100503037D01*
X138175895Y-100722406D01*
X138120465Y-100953289D01*
X138101835Y-101190000D01*
X138120465Y-101426711D01*
X138175895Y-101657594D01*
X138177788Y-101662165D01*
X138177789Y-101662167D01*
X138245329Y-101825223D01*
X138266760Y-101876963D01*
X138269346Y-101881183D01*
X138388241Y-102075202D01*
X138388245Y-102075208D01*
X138390824Y-102079416D01*
X138545031Y-102259969D01*
X138548787Y-102263177D01*
X138548792Y-102263182D01*
X138667056Y-102364189D01*
X138705866Y-102423639D01*
X138706372Y-102494634D01*
X138667056Y-102555811D01*
X138548792Y-102656818D01*
X138548787Y-102656823D01*
X138545031Y-102660031D01*
X138390824Y-102840584D01*
X138388245Y-102844792D01*
X138388241Y-102844798D01*
X138269346Y-103038817D01*
X138266760Y-103043037D01*
X138264867Y-103047607D01*
X138264865Y-103047611D01*
X138177789Y-103257833D01*
X138175895Y-103262406D01*
X138120465Y-103493289D01*
X138101835Y-103730000D01*
X138120465Y-103966711D01*
X138175895Y-104197594D01*
X138266760Y-104416963D01*
X138269346Y-104421183D01*
X138388241Y-104615202D01*
X138388245Y-104615208D01*
X138390824Y-104619416D01*
X138545031Y-104799969D01*
X138548787Y-104803177D01*
X138548792Y-104803182D01*
X138667056Y-104904189D01*
X138705866Y-104963639D01*
X138706372Y-105034634D01*
X138667056Y-105095811D01*
X138548792Y-105196818D01*
X138548787Y-105196823D01*
X138545031Y-105200031D01*
X138390824Y-105380584D01*
X138388245Y-105384792D01*
X138388241Y-105384798D01*
X138269346Y-105578817D01*
X138266760Y-105583037D01*
X138175895Y-105802406D01*
X138120465Y-106033289D01*
X138101835Y-106270000D01*
X138120465Y-106506711D01*
X138175895Y-106737594D01*
X138266760Y-106956963D01*
X138269346Y-106961183D01*
X138388241Y-107155202D01*
X138388245Y-107155208D01*
X138390824Y-107159416D01*
X138545031Y-107339969D01*
X138548787Y-107343177D01*
X138548792Y-107343182D01*
X138667056Y-107444189D01*
X138705866Y-107503639D01*
X138706372Y-107574634D01*
X138667056Y-107635811D01*
X138548792Y-107736818D01*
X138548787Y-107736823D01*
X138545031Y-107740031D01*
X138390824Y-107920584D01*
X138388245Y-107924792D01*
X138388241Y-107924798D01*
X138269346Y-108118817D01*
X138266760Y-108123037D01*
X138175895Y-108342406D01*
X138120465Y-108573289D01*
X138101835Y-108810000D01*
X138120465Y-109046711D01*
X138175895Y-109277594D01*
X138266760Y-109496963D01*
X138269346Y-109501183D01*
X138388241Y-109695202D01*
X138388245Y-109695208D01*
X138390824Y-109699416D01*
X138545031Y-109879969D01*
X138548787Y-109883177D01*
X138548792Y-109883182D01*
X138667056Y-109984189D01*
X138705866Y-110043639D01*
X138706372Y-110114634D01*
X138667056Y-110175811D01*
X138548792Y-110276818D01*
X138548787Y-110276823D01*
X138545031Y-110280031D01*
X138390824Y-110460584D01*
X138388245Y-110464792D01*
X138388241Y-110464798D01*
X138269346Y-110658817D01*
X138266760Y-110663037D01*
X138175895Y-110882406D01*
X138120465Y-111113289D01*
X138101835Y-111350000D01*
X138120465Y-111586711D01*
X138175895Y-111817594D01*
X138266760Y-112036963D01*
X138269346Y-112041183D01*
X138388241Y-112235202D01*
X138388245Y-112235208D01*
X138390824Y-112239416D01*
X138545031Y-112419969D01*
X138548787Y-112423177D01*
X138548792Y-112423182D01*
X138667056Y-112524189D01*
X138705866Y-112583639D01*
X138706372Y-112654634D01*
X138667056Y-112715811D01*
X138548792Y-112816818D01*
X138548787Y-112816823D01*
X138545031Y-112820031D01*
X138390824Y-113000584D01*
X138388245Y-113004792D01*
X138388241Y-113004798D01*
X138269346Y-113198817D01*
X138266760Y-113203037D01*
X138175895Y-113422406D01*
X138120465Y-113653289D01*
X138101835Y-113890000D01*
X138120465Y-114126711D01*
X138175895Y-114357594D01*
X138266760Y-114576963D01*
X138269346Y-114581183D01*
X138388241Y-114775202D01*
X138388245Y-114775208D01*
X138390824Y-114779416D01*
X138545031Y-114959969D01*
X138548787Y-114963177D01*
X138548792Y-114963182D01*
X138667056Y-115064189D01*
X138705866Y-115123639D01*
X138706372Y-115194634D01*
X138667056Y-115255811D01*
X138548792Y-115356818D01*
X138548787Y-115356823D01*
X138545031Y-115360031D01*
X138390824Y-115540584D01*
X138388245Y-115544792D01*
X138388241Y-115544798D01*
X138269346Y-115738817D01*
X138266760Y-115743037D01*
X138175895Y-115962406D01*
X138120465Y-116193289D01*
X138101835Y-116430000D01*
X138120465Y-116666711D01*
X138121619Y-116671518D01*
X138121620Y-116671524D01*
X138142125Y-116756931D01*
X138175895Y-116897594D01*
X138177788Y-116902165D01*
X138177789Y-116902167D01*
X138235702Y-117041981D01*
X138266760Y-117116963D01*
X138269346Y-117121183D01*
X138388241Y-117315202D01*
X138388245Y-117315208D01*
X138390824Y-117319416D01*
X138545031Y-117499969D01*
X138548787Y-117503177D01*
X138548792Y-117503182D01*
X138667056Y-117604189D01*
X138705866Y-117663639D01*
X138706372Y-117734634D01*
X138667056Y-117795811D01*
X138548792Y-117896818D01*
X138548787Y-117896823D01*
X138545031Y-117900031D01*
X138390824Y-118080584D01*
X138388245Y-118084792D01*
X138388241Y-118084798D01*
X138290034Y-118245057D01*
X138266760Y-118283037D01*
X138264867Y-118287607D01*
X138264865Y-118287611D01*
X138201563Y-118440438D01*
X138175895Y-118502406D01*
X138164459Y-118550040D01*
X138124376Y-118717000D01*
X138120465Y-118733289D01*
X138101835Y-118970000D01*
X138120465Y-119206711D01*
X138175895Y-119437594D01*
X138177788Y-119442165D01*
X138177789Y-119442167D01*
X138263368Y-119648773D01*
X138266760Y-119656963D01*
X138269346Y-119661183D01*
X138388241Y-119855202D01*
X138388245Y-119855208D01*
X138390824Y-119859416D01*
X138545031Y-120039969D01*
X138548787Y-120043177D01*
X138548792Y-120043182D01*
X138667056Y-120144189D01*
X138705866Y-120203639D01*
X138706372Y-120274634D01*
X138667056Y-120335811D01*
X138548792Y-120436818D01*
X138548787Y-120436823D01*
X138545031Y-120440031D01*
X138390824Y-120620584D01*
X138388245Y-120624792D01*
X138388241Y-120624798D01*
X138269346Y-120818817D01*
X138266760Y-120823037D01*
X138264867Y-120827607D01*
X138264865Y-120827611D01*
X138177789Y-121037833D01*
X138175895Y-121042406D01*
X138120465Y-121273289D01*
X138101835Y-121510000D01*
X138120465Y-121746711D01*
X138175895Y-121977594D01*
X138266760Y-122196963D01*
X138269346Y-122201183D01*
X138388241Y-122395202D01*
X138388245Y-122395208D01*
X138390824Y-122399416D01*
X138545031Y-122579969D01*
X138725584Y-122734176D01*
X138729799Y-122736759D01*
X138729802Y-122736761D01*
X138749026Y-122748542D01*
X138796657Y-122801190D01*
X138808263Y-122871232D01*
X138780159Y-122936429D01*
X138721268Y-122976082D01*
X138709392Y-122979220D01*
X138590030Y-123004591D01*
X138585901Y-123006094D01*
X138585897Y-123006095D01*
X138330219Y-123099154D01*
X138330215Y-123099156D01*
X138326074Y-123100663D01*
X138078058Y-123232536D01*
X138074499Y-123235122D01*
X138074497Y-123235123D01*
X137949933Y-123325624D01*
X137850808Y-123397642D01*
X137847644Y-123400698D01*
X137847641Y-123400700D01*
X137803949Y-123442893D01*
X137648748Y-123592769D01*
X137554070Y-123713952D01*
X137541979Y-123729428D01*
X137484278Y-123770794D01*
X137413372Y-123774397D01*
X137351775Y-123739094D01*
X137319565Y-123678621D01*
X136511332Y-119960747D01*
X136510020Y-119948170D01*
X136509640Y-119948222D01*
X136508421Y-119939324D01*
X136508476Y-119930348D01*
X136493915Y-119879398D01*
X136491942Y-119871551D01*
X136489608Y-119860815D01*
X136489608Y-119860814D01*
X136488657Y-119856441D01*
X136484746Y-119845934D01*
X136481696Y-119836650D01*
X136468488Y-119790435D01*
X136463697Y-119782842D01*
X136461591Y-119778134D01*
X136456338Y-119767520D01*
X136453883Y-119763010D01*
X136450753Y-119754601D01*
X136422031Y-119716087D01*
X136416476Y-119707999D01*
X136395630Y-119674961D01*
X136390840Y-119667369D01*
X136384113Y-119661428D01*
X136380794Y-119657528D01*
X136372734Y-119648773D01*
X136369126Y-119645148D01*
X136363760Y-119637953D01*
X136325363Y-119609034D01*
X136317780Y-119602845D01*
X136315045Y-119600429D01*
X136281772Y-119571044D01*
X136273648Y-119567229D01*
X136269360Y-119564413D01*
X136259180Y-119558280D01*
X136254696Y-119555811D01*
X136247524Y-119550410D01*
X136202586Y-119533443D01*
X136193547Y-119529621D01*
X136158180Y-119513016D01*
X136158173Y-119513014D01*
X136150052Y-119509201D01*
X136141182Y-119507820D01*
X136136265Y-119506317D01*
X136124797Y-119503294D01*
X136119784Y-119502179D01*
X136111390Y-119499010D01*
X136063484Y-119495336D01*
X136053739Y-119494205D01*
X136044384Y-119492748D01*
X136044379Y-119492748D01*
X136039577Y-119492000D01*
X136024807Y-119492000D01*
X136015172Y-119491631D01*
X136013543Y-119491506D01*
X136009674Y-119491209D01*
X135975249Y-119488569D01*
X135975247Y-119488569D01*
X135966301Y-119487883D01*
X135957523Y-119489735D01*
X135951613Y-119490124D01*
X135933639Y-119492000D01*
X117872772Y-119492000D01*
X117861626Y-119491506D01*
X117854134Y-119490841D01*
X117845400Y-119488788D01*
X117836442Y-119489269D01*
X117836440Y-119489269D01*
X117788979Y-119491819D01*
X117782220Y-119492000D01*
X117763523Y-119492000D01*
X117759083Y-119492636D01*
X117759082Y-119492636D01*
X117755798Y-119493106D01*
X117744695Y-119494198D01*
X117709058Y-119496112D01*
X117709055Y-119496113D01*
X117700094Y-119496594D01*
X117691627Y-119499571D01*
X117691624Y-119499572D01*
X117690232Y-119500062D01*
X117666302Y-119505923D01*
X117655955Y-119507405D01*
X117647789Y-119511118D01*
X117647785Y-119511119D01*
X117615297Y-119525891D01*
X117604964Y-119530048D01*
X117562821Y-119544868D01*
X117554720Y-119550683D01*
X117554335Y-119550960D01*
X117533002Y-119563308D01*
X117523490Y-119567633D01*
X117516696Y-119573487D01*
X117516693Y-119573489D01*
X117489653Y-119596788D01*
X117480891Y-119603686D01*
X117444614Y-119629730D01*
X117439080Y-119636807D01*
X117438176Y-119637962D01*
X117421174Y-119655794D01*
X117413253Y-119662619D01*
X117408373Y-119670147D01*
X117408372Y-119670149D01*
X117388959Y-119700101D01*
X117382495Y-119709168D01*
X117354976Y-119744359D01*
X117351109Y-119754064D01*
X117339790Y-119775959D01*
X117334107Y-119784727D01*
X117321305Y-119827534D01*
X117317643Y-119838053D01*
X117313591Y-119848223D01*
X117312507Y-119852964D01*
X117312506Y-119852968D01*
X117309561Y-119865849D01*
X117307450Y-119873860D01*
X117292413Y-119924141D01*
X117292358Y-119933118D01*
X117291031Y-119941998D01*
X117290719Y-119941951D01*
X117289226Y-119954818D01*
X116444156Y-123652001D01*
X116409478Y-123713952D01*
X116346812Y-123747320D01*
X116276053Y-123741511D01*
X116222582Y-123701903D01*
X116221585Y-123700424D01*
X116201954Y-123678621D01*
X116036566Y-123494940D01*
X116033629Y-123491678D01*
X115818450Y-123311121D01*
X115580236Y-123162269D01*
X115323625Y-123048018D01*
X115194977Y-123011129D01*
X115100667Y-122984086D01*
X115040698Y-122946082D01*
X115010796Y-122881690D01*
X115020453Y-122811353D01*
X115069563Y-122755534D01*
X115100197Y-122736762D01*
X115100202Y-122736758D01*
X115104416Y-122734176D01*
X115284969Y-122579969D01*
X115439176Y-122399416D01*
X115441755Y-122395208D01*
X115441759Y-122395202D01*
X115560654Y-122201183D01*
X115563240Y-122196963D01*
X115654105Y-121977594D01*
X115709535Y-121746711D01*
X115728165Y-121510000D01*
X115709535Y-121273289D01*
X115655940Y-121050049D01*
X115659487Y-120979141D01*
X115689364Y-120931540D01*
X117892247Y-118728657D01*
X117900537Y-118721113D01*
X117907018Y-118717000D01*
X117953659Y-118667332D01*
X117956413Y-118664491D01*
X117976135Y-118644769D01*
X117978612Y-118641576D01*
X117986317Y-118632555D01*
X118011159Y-118606100D01*
X118016586Y-118600321D01*
X118020407Y-118593371D01*
X118026346Y-118582568D01*
X118037202Y-118566041D01*
X118044757Y-118556302D01*
X118044758Y-118556300D01*
X118049614Y-118550040D01*
X118067174Y-118509460D01*
X118072391Y-118498812D01*
X118089875Y-118467009D01*
X118089876Y-118467007D01*
X118093695Y-118460060D01*
X118098733Y-118440437D01*
X118105137Y-118421734D01*
X118110033Y-118410420D01*
X118110033Y-118410419D01*
X118113181Y-118403145D01*
X118114420Y-118395322D01*
X118114423Y-118395312D01*
X118120099Y-118359476D01*
X118122505Y-118347856D01*
X118131528Y-118312711D01*
X118131528Y-118312710D01*
X118133500Y-118305030D01*
X118133500Y-118284776D01*
X118135051Y-118265065D01*
X118136980Y-118252886D01*
X118138220Y-118245057D01*
X118134059Y-118201038D01*
X118133500Y-118189181D01*
X118133500Y-117846781D01*
X118611868Y-117846781D01*
X118621436Y-118053502D01*
X118622840Y-118059327D01*
X118622840Y-118059328D01*
X118667601Y-118245057D01*
X118669921Y-118254685D01*
X118672403Y-118260143D01*
X118672404Y-118260147D01*
X118696304Y-118312711D01*
X118755574Y-118443069D01*
X118826297Y-118542770D01*
X118871221Y-118606100D01*
X118875305Y-118611858D01*
X118879628Y-118615996D01*
X118879632Y-118616001D01*
X119002153Y-118733289D01*
X119024792Y-118754961D01*
X119029827Y-118758212D01*
X119193606Y-118863963D01*
X119193609Y-118863964D01*
X119198643Y-118867215D01*
X119390584Y-118944570D01*
X119396465Y-118945718D01*
X119396470Y-118945720D01*
X119589244Y-118983366D01*
X119589247Y-118983366D01*
X119593690Y-118984234D01*
X119599129Y-118984500D01*
X119751704Y-118984500D01*
X119906007Y-118969778D01*
X119922055Y-118965070D01*
X120098827Y-118913211D01*
X120098829Y-118913210D01*
X120104580Y-118911523D01*
X120186257Y-118869457D01*
X120283225Y-118819516D01*
X120283228Y-118819514D01*
X120288556Y-118816770D01*
X120451294Y-118688937D01*
X120586924Y-118532637D01*
X120690552Y-118353510D01*
X120758438Y-118158019D01*
X120759483Y-118150816D01*
X120787271Y-117959159D01*
X120787271Y-117959156D01*
X120788132Y-117953219D01*
X120778564Y-117746498D01*
X120730079Y-117545315D01*
X120710923Y-117503182D01*
X120646906Y-117362386D01*
X120644426Y-117356931D01*
X120566291Y-117246781D01*
X134911868Y-117246781D01*
X134921436Y-117453502D01*
X134922840Y-117459327D01*
X134922840Y-117459328D01*
X134947990Y-117563683D01*
X134969921Y-117654685D01*
X134972403Y-117660143D01*
X134972404Y-117660147D01*
X135007057Y-117736361D01*
X135055574Y-117843069D01*
X135126736Y-117943389D01*
X135166540Y-117999501D01*
X135175305Y-118011858D01*
X135179628Y-118015996D01*
X135179632Y-118016001D01*
X135259694Y-118092643D01*
X135324792Y-118154961D01*
X135329827Y-118158212D01*
X135493606Y-118263963D01*
X135493609Y-118263964D01*
X135498643Y-118267215D01*
X135690584Y-118344570D01*
X135696465Y-118345718D01*
X135696470Y-118345720D01*
X135889244Y-118383366D01*
X135889247Y-118383366D01*
X135893690Y-118384234D01*
X135899129Y-118384500D01*
X136051704Y-118384500D01*
X136206007Y-118369778D01*
X136211761Y-118368090D01*
X136398827Y-118313211D01*
X136398829Y-118313210D01*
X136404580Y-118311523D01*
X136417187Y-118305030D01*
X136583225Y-118219516D01*
X136583228Y-118219514D01*
X136588556Y-118216770D01*
X136751294Y-118088937D01*
X136758543Y-118080584D01*
X136882992Y-117937168D01*
X136886924Y-117932637D01*
X136990552Y-117753510D01*
X137058438Y-117558019D01*
X137059435Y-117551148D01*
X137087271Y-117359159D01*
X137087271Y-117359156D01*
X137088132Y-117353219D01*
X137078564Y-117146498D01*
X137040109Y-116986934D01*
X137031485Y-116951148D01*
X137031484Y-116951146D01*
X137030079Y-116945315D01*
X137005486Y-116891224D01*
X136946906Y-116762386D01*
X136944426Y-116756931D01*
X136824695Y-116588142D01*
X136820372Y-116584004D01*
X136820368Y-116583999D01*
X136679538Y-116449184D01*
X136675208Y-116445039D01*
X136575230Y-116380484D01*
X136506394Y-116336037D01*
X136506391Y-116336036D01*
X136501357Y-116332785D01*
X136309416Y-116255430D01*
X136303535Y-116254282D01*
X136303530Y-116254280D01*
X136110756Y-116216634D01*
X136110753Y-116216634D01*
X136106310Y-116215766D01*
X136100871Y-116215500D01*
X135948296Y-116215500D01*
X135793993Y-116230222D01*
X135788239Y-116231910D01*
X135601173Y-116286789D01*
X135601171Y-116286790D01*
X135595420Y-116288477D01*
X135590087Y-116291223D01*
X135590086Y-116291224D01*
X135416775Y-116380484D01*
X135416772Y-116380486D01*
X135411444Y-116383230D01*
X135248706Y-116511063D01*
X135113076Y-116667363D01*
X135009448Y-116846490D01*
X134941562Y-117041981D01*
X134940702Y-117047914D01*
X134940701Y-117047917D01*
X134912729Y-117240841D01*
X134911868Y-117246781D01*
X120566291Y-117246781D01*
X120524695Y-117188142D01*
X120520372Y-117184004D01*
X120520368Y-117183999D01*
X120379538Y-117049184D01*
X120375208Y-117045039D01*
X120275230Y-116980484D01*
X120206394Y-116936037D01*
X120206391Y-116936036D01*
X120201357Y-116932785D01*
X120009416Y-116855430D01*
X120003535Y-116854282D01*
X120003530Y-116854280D01*
X119810756Y-116816634D01*
X119810753Y-116816634D01*
X119806310Y-116815766D01*
X119800871Y-116815500D01*
X119648296Y-116815500D01*
X119493993Y-116830222D01*
X119488239Y-116831910D01*
X119301173Y-116886789D01*
X119301171Y-116886790D01*
X119295420Y-116888477D01*
X119290087Y-116891223D01*
X119290086Y-116891224D01*
X119116775Y-116980484D01*
X119116772Y-116980486D01*
X119111444Y-116983230D01*
X118948706Y-117111063D01*
X118813076Y-117267363D01*
X118709448Y-117446490D01*
X118641562Y-117641981D01*
X118640702Y-117647914D01*
X118640701Y-117647917D01*
X118625391Y-117753510D01*
X118611868Y-117846781D01*
X118133500Y-117846781D01*
X118133500Y-102255262D01*
X118154551Y-102185536D01*
X118178891Y-102148902D01*
X118239319Y-101989825D01*
X118263001Y-101821313D01*
X118263299Y-101800000D01*
X118244331Y-101630892D01*
X118188368Y-101470189D01*
X118098192Y-101325879D01*
X117978286Y-101205132D01*
X117962211Y-101194930D01*
X117901539Y-101156427D01*
X117854740Y-101103038D01*
X117844235Y-101032823D01*
X117873359Y-100968075D01*
X117879958Y-100960947D01*
X118684243Y-100156662D01*
X118746555Y-100122636D01*
X118817370Y-100127701D01*
X118869377Y-100166080D01*
X118869746Y-100165723D01*
X118874636Y-100170787D01*
X118874637Y-100170788D01*
X118928967Y-100227048D01*
X118987955Y-100288132D01*
X119040102Y-100322256D01*
X119084442Y-100351271D01*
X119130346Y-100381310D01*
X119136950Y-100383766D01*
X119136952Y-100383767D01*
X119173344Y-100397301D01*
X119289841Y-100440626D01*
X119458515Y-100463132D01*
X119465526Y-100462494D01*
X119465530Y-100462494D01*
X119620962Y-100448348D01*
X119627983Y-100447709D01*
X119634685Y-100445531D01*
X119634687Y-100445531D01*
X119783123Y-100397301D01*
X119783126Y-100397300D01*
X119789822Y-100395124D01*
X119795873Y-100391517D01*
X119795875Y-100391516D01*
X119863387Y-100351271D01*
X119927904Y-100333500D01*
X133406233Y-100333500D01*
X133417416Y-100334027D01*
X133424909Y-100335702D01*
X133432835Y-100335453D01*
X133432836Y-100335453D01*
X133492986Y-100333562D01*
X133496945Y-100333500D01*
X133524856Y-100333500D01*
X133528791Y-100333003D01*
X133528856Y-100332995D01*
X133540693Y-100332062D01*
X133572951Y-100331048D01*
X133576970Y-100330922D01*
X133584889Y-100330673D01*
X133604343Y-100325021D01*
X133623700Y-100321013D01*
X133635930Y-100319468D01*
X133635931Y-100319468D01*
X133643797Y-100318474D01*
X133651168Y-100315555D01*
X133651170Y-100315555D01*
X133684912Y-100302196D01*
X133696142Y-100298351D01*
X133730983Y-100288229D01*
X133730984Y-100288229D01*
X133738593Y-100286018D01*
X133745412Y-100281985D01*
X133745417Y-100281983D01*
X133756028Y-100275707D01*
X133773776Y-100267012D01*
X133792617Y-100259552D01*
X133828387Y-100233564D01*
X133838307Y-100227048D01*
X133869535Y-100208580D01*
X133869538Y-100208578D01*
X133876362Y-100204542D01*
X133890683Y-100190221D01*
X133905717Y-100177380D01*
X133915694Y-100170131D01*
X133922107Y-100165472D01*
X133950298Y-100131395D01*
X133958288Y-100122616D01*
X137899020Y-96181884D01*
X137961332Y-96147858D01*
X138032147Y-96152923D01*
G37*
G04 #@! TD.AperFunction*
G04 #@! TA.AperFunction,Conductor*
G36*
X116784533Y-102160539D02*
G01*
X116841368Y-102203086D01*
X116866179Y-102269606D01*
X116866500Y-102278595D01*
X116866500Y-117910406D01*
X116846498Y-117978527D01*
X116829595Y-117999501D01*
X115930980Y-118898116D01*
X115868668Y-118932142D01*
X115797853Y-118927077D01*
X115741017Y-118884530D01*
X115716273Y-118818906D01*
X115716105Y-118816770D01*
X115709535Y-118733289D01*
X115705625Y-118717000D01*
X115665541Y-118550040D01*
X115654105Y-118502406D01*
X115628437Y-118440438D01*
X115565135Y-118287611D01*
X115565133Y-118287607D01*
X115563240Y-118283037D01*
X115539966Y-118245057D01*
X115441759Y-118084798D01*
X115441755Y-118084792D01*
X115439176Y-118080584D01*
X115284969Y-117900031D01*
X115281213Y-117896823D01*
X115281208Y-117896818D01*
X115162944Y-117795811D01*
X115124134Y-117736361D01*
X115123628Y-117665366D01*
X115162944Y-117604189D01*
X115281208Y-117503182D01*
X115281213Y-117503177D01*
X115284969Y-117499969D01*
X115439176Y-117319416D01*
X115441755Y-117315208D01*
X115441759Y-117315202D01*
X115560654Y-117121183D01*
X115563240Y-117116963D01*
X115594299Y-117041981D01*
X115652211Y-116902167D01*
X115652212Y-116902165D01*
X115654105Y-116897594D01*
X115687875Y-116756931D01*
X115708380Y-116671524D01*
X115708381Y-116671518D01*
X115709535Y-116666711D01*
X115728165Y-116430000D01*
X115709535Y-116193289D01*
X115654105Y-115962406D01*
X115563240Y-115743037D01*
X115560654Y-115738817D01*
X115441759Y-115544798D01*
X115441755Y-115544792D01*
X115439176Y-115540584D01*
X115284969Y-115360031D01*
X115281213Y-115356823D01*
X115281208Y-115356818D01*
X115162944Y-115255811D01*
X115124134Y-115196361D01*
X115123628Y-115125366D01*
X115162944Y-115064189D01*
X115281208Y-114963182D01*
X115281213Y-114963177D01*
X115284969Y-114959969D01*
X115439176Y-114779416D01*
X115441755Y-114775208D01*
X115441759Y-114775202D01*
X115560654Y-114581183D01*
X115563240Y-114576963D01*
X115654105Y-114357594D01*
X115709535Y-114126711D01*
X115728165Y-113890000D01*
X115709535Y-113653289D01*
X115654105Y-113422406D01*
X115563240Y-113203037D01*
X115560654Y-113198817D01*
X115441759Y-113004798D01*
X115441755Y-113004792D01*
X115439176Y-113000584D01*
X115284969Y-112820031D01*
X115281213Y-112816823D01*
X115281208Y-112816818D01*
X115162944Y-112715811D01*
X115124134Y-112656361D01*
X115123628Y-112585366D01*
X115162944Y-112524189D01*
X115281208Y-112423182D01*
X115281213Y-112423177D01*
X115284969Y-112419969D01*
X115439176Y-112239416D01*
X115441755Y-112235208D01*
X115441759Y-112235202D01*
X115560654Y-112041183D01*
X115563240Y-112036963D01*
X115654105Y-111817594D01*
X115709535Y-111586711D01*
X115728165Y-111350000D01*
X115709535Y-111113289D01*
X115654105Y-110882406D01*
X115563240Y-110663037D01*
X115560654Y-110658817D01*
X115441759Y-110464798D01*
X115441755Y-110464792D01*
X115439176Y-110460584D01*
X115284969Y-110280031D01*
X115281213Y-110276823D01*
X115281208Y-110276818D01*
X115162944Y-110175811D01*
X115124134Y-110116361D01*
X115123628Y-110045366D01*
X115162944Y-109984189D01*
X115281208Y-109883182D01*
X115281213Y-109883177D01*
X115284969Y-109879969D01*
X115439176Y-109699416D01*
X115441755Y-109695208D01*
X115441759Y-109695202D01*
X115560654Y-109501183D01*
X115563240Y-109496963D01*
X115654105Y-109277594D01*
X115709535Y-109046711D01*
X115728165Y-108810000D01*
X115709535Y-108573289D01*
X115654105Y-108342406D01*
X115563240Y-108123037D01*
X115560654Y-108118817D01*
X115441759Y-107924798D01*
X115441755Y-107924792D01*
X115439176Y-107920584D01*
X115284969Y-107740031D01*
X115281213Y-107736823D01*
X115281208Y-107736818D01*
X115162944Y-107635811D01*
X115124134Y-107576361D01*
X115123628Y-107505366D01*
X115162944Y-107444189D01*
X115281208Y-107343182D01*
X115281213Y-107343177D01*
X115284969Y-107339969D01*
X115439176Y-107159416D01*
X115441755Y-107155208D01*
X115441759Y-107155202D01*
X115560654Y-106961183D01*
X115563240Y-106956963D01*
X115654105Y-106737594D01*
X115709535Y-106506711D01*
X115728165Y-106270000D01*
X115709535Y-106033289D01*
X115654105Y-105802406D01*
X115563240Y-105583037D01*
X115560654Y-105578817D01*
X115441759Y-105384798D01*
X115441755Y-105384792D01*
X115439176Y-105380584D01*
X115284969Y-105200031D01*
X115281213Y-105196823D01*
X115281208Y-105196818D01*
X115162944Y-105095811D01*
X115124134Y-105036361D01*
X115123628Y-104965366D01*
X115162944Y-104904189D01*
X115281208Y-104803182D01*
X115281213Y-104803177D01*
X115284969Y-104799969D01*
X115439176Y-104619416D01*
X115441755Y-104615208D01*
X115441759Y-104615202D01*
X115560654Y-104421183D01*
X115563240Y-104416963D01*
X115654105Y-104197594D01*
X115709535Y-103966711D01*
X115728165Y-103730000D01*
X115709535Y-103493289D01*
X115655940Y-103270049D01*
X115659487Y-103199141D01*
X115689362Y-103151542D01*
X116651407Y-102189498D01*
X116713717Y-102155474D01*
X116784533Y-102160539D01*
G37*
G04 #@! TD.AperFunction*
G04 #@! TA.AperFunction,Conductor*
G36*
X121284121Y-76428002D02*
G01*
X121330614Y-76481658D01*
X121342000Y-76534000D01*
X121342000Y-77700385D01*
X121346475Y-77715624D01*
X121347865Y-77716829D01*
X121355548Y-77718500D01*
X123839884Y-77718500D01*
X123855123Y-77714025D01*
X123856328Y-77712635D01*
X123857999Y-77704952D01*
X123857999Y-76534000D01*
X123878001Y-76465879D01*
X123931657Y-76419386D01*
X123983999Y-76408000D01*
X137579997Y-76408000D01*
X137648118Y-76428002D01*
X137694611Y-76481658D01*
X137704715Y-76551932D01*
X137675221Y-76616512D01*
X137667525Y-76624636D01*
X137648748Y-76642769D01*
X137475812Y-76864118D01*
X137473616Y-76867922D01*
X137473611Y-76867929D01*
X137407003Y-76983298D01*
X137335364Y-77107381D01*
X137230138Y-77367824D01*
X137162183Y-77640376D01*
X137161724Y-77644744D01*
X137161723Y-77644749D01*
X137142230Y-77830222D01*
X137132822Y-77919733D01*
X137132975Y-77924121D01*
X137132975Y-77924127D01*
X137142366Y-78193028D01*
X137142625Y-78200458D01*
X137143387Y-78204781D01*
X137143388Y-78204788D01*
X137150411Y-78244615D01*
X137191402Y-78477087D01*
X137278203Y-78744235D01*
X137401340Y-78996702D01*
X137403795Y-79000341D01*
X137403798Y-79000347D01*
X137476890Y-79108710D01*
X137558415Y-79229576D01*
X137746371Y-79438322D01*
X137961550Y-79618879D01*
X138199764Y-79767731D01*
X138456375Y-79881982D01*
X138726390Y-79959407D01*
X138730740Y-79960018D01*
X138730743Y-79960019D01*
X138804239Y-79970348D01*
X139004552Y-79998500D01*
X139215146Y-79998500D01*
X139217332Y-79998347D01*
X139217336Y-79998347D01*
X139420827Y-79984118D01*
X139420832Y-79984117D01*
X139425212Y-79983811D01*
X139699970Y-79925409D01*
X139704099Y-79923906D01*
X139704103Y-79923905D01*
X139959781Y-79830846D01*
X139959785Y-79830844D01*
X139963926Y-79829337D01*
X140211942Y-79697464D01*
X140218578Y-79692643D01*
X140435629Y-79534947D01*
X140435632Y-79534944D01*
X140439192Y-79532358D01*
X140460973Y-79511325D01*
X140478473Y-79494425D01*
X140541370Y-79461493D01*
X140612086Y-79467793D01*
X140668171Y-79511325D01*
X140692000Y-79585062D01*
X140692000Y-84615786D01*
X140671998Y-84683907D01*
X140618342Y-84730400D01*
X140548068Y-84740504D01*
X140500165Y-84723219D01*
X140306183Y-84604346D01*
X140301963Y-84601760D01*
X140297393Y-84599867D01*
X140297389Y-84599865D01*
X140087167Y-84512789D01*
X140087165Y-84512788D01*
X140082594Y-84510895D01*
X140002391Y-84491640D01*
X139856524Y-84456620D01*
X139856518Y-84456619D01*
X139851711Y-84455465D01*
X139615000Y-84436835D01*
X139378289Y-84455465D01*
X139373482Y-84456619D01*
X139373476Y-84456620D01*
X139227609Y-84491640D01*
X139147406Y-84510895D01*
X139142835Y-84512788D01*
X139142833Y-84512789D01*
X138932611Y-84599865D01*
X138932607Y-84599867D01*
X138928037Y-84601760D01*
X138923817Y-84604346D01*
X138729798Y-84723241D01*
X138729792Y-84723245D01*
X138725584Y-84725824D01*
X138545031Y-84880031D01*
X138390824Y-85060584D01*
X138388245Y-85064792D01*
X138388241Y-85064798D01*
X138269346Y-85258817D01*
X138266760Y-85263037D01*
X138175895Y-85482406D01*
X138120465Y-85713289D01*
X138101835Y-85950000D01*
X138120465Y-86186711D01*
X138175895Y-86417594D01*
X138266760Y-86636963D01*
X138269346Y-86641183D01*
X138388241Y-86835202D01*
X138388245Y-86835208D01*
X138390824Y-86839416D01*
X138545031Y-87019969D01*
X138548787Y-87023177D01*
X138548792Y-87023182D01*
X138701616Y-87153706D01*
X138740426Y-87213156D01*
X138742640Y-87247558D01*
X138750877Y-87266667D01*
X139885115Y-88400905D01*
X139919141Y-88463217D01*
X139914076Y-88534032D01*
X139885115Y-88579095D01*
X138753920Y-89710290D01*
X138744740Y-89727102D01*
X138730980Y-89790350D01*
X138702224Y-89825775D01*
X138548793Y-89956818D01*
X138545031Y-89960031D01*
X138390824Y-90140584D01*
X138388245Y-90144792D01*
X138388241Y-90144798D01*
X138269346Y-90338817D01*
X138266760Y-90343037D01*
X138175895Y-90562406D01*
X138120465Y-90793289D01*
X138101835Y-91030000D01*
X138120465Y-91266711D01*
X138175895Y-91497594D01*
X138177788Y-91502165D01*
X138177789Y-91502167D01*
X138260296Y-91701357D01*
X138266760Y-91716963D01*
X138269346Y-91721183D01*
X138388241Y-91915202D01*
X138388245Y-91915208D01*
X138390824Y-91919416D01*
X138545031Y-92099969D01*
X138548787Y-92103177D01*
X138548792Y-92103182D01*
X138667056Y-92204189D01*
X138705866Y-92263639D01*
X138706372Y-92334634D01*
X138667056Y-92395811D01*
X138548792Y-92496818D01*
X138548787Y-92496823D01*
X138545031Y-92500031D01*
X138390824Y-92680584D01*
X138388245Y-92684792D01*
X138388241Y-92684798D01*
X138323382Y-92790639D01*
X138266760Y-92883037D01*
X138264867Y-92887607D01*
X138264865Y-92887611D01*
X138183150Y-93084891D01*
X138175895Y-93102406D01*
X138120465Y-93333289D01*
X138101835Y-93570000D01*
X138120465Y-93806711D01*
X138121619Y-93811518D01*
X138121620Y-93811524D01*
X138174060Y-94029951D01*
X138170513Y-94100859D01*
X138140636Y-94148460D01*
X135641920Y-96647175D01*
X133259500Y-99029595D01*
X133197188Y-99063621D01*
X133170405Y-99066500D01*
X122222368Y-99066500D01*
X122154247Y-99046498D01*
X122107754Y-98992842D01*
X122097650Y-98922568D01*
X122127144Y-98857988D01*
X122149113Y-98839654D01*
X122148548Y-98838926D01*
X122154809Y-98834069D01*
X122161637Y-98830031D01*
X122175958Y-98815710D01*
X122190992Y-98802869D01*
X122200969Y-98795620D01*
X122207382Y-98790961D01*
X122235573Y-98756884D01*
X122243563Y-98748105D01*
X122665492Y-98326176D01*
X122715650Y-98295438D01*
X122849858Y-98251831D01*
X122856555Y-98249655D01*
X123002723Y-98162521D01*
X123007817Y-98157670D01*
X123007821Y-98157667D01*
X123103533Y-98066521D01*
X123125954Y-98045170D01*
X123220124Y-97903433D01*
X123280552Y-97744356D01*
X123304234Y-97575844D01*
X123304532Y-97554531D01*
X123285564Y-97385423D01*
X123279647Y-97368430D01*
X123231919Y-97231377D01*
X123229601Y-97224720D01*
X123223616Y-97215141D01*
X123196493Y-97171737D01*
X123139425Y-97080410D01*
X123019519Y-96959663D01*
X123003272Y-96949352D01*
X122964639Y-96924835D01*
X122875841Y-96868482D01*
X122715533Y-96811399D01*
X122546562Y-96791251D01*
X122539559Y-96791987D01*
X122539558Y-96791987D01*
X122384334Y-96808301D01*
X122384330Y-96808302D01*
X122377326Y-96809038D01*
X122370655Y-96811309D01*
X122222906Y-96861606D01*
X122222903Y-96861607D01*
X122216236Y-96863877D01*
X122210238Y-96867567D01*
X122210236Y-96867568D01*
X122077298Y-96949352D01*
X122077296Y-96949354D01*
X122071299Y-96953043D01*
X121949719Y-97072104D01*
X121945908Y-97078018D01*
X121945906Y-97078020D01*
X121880204Y-97179969D01*
X121857537Y-97215141D01*
X121855127Y-97221763D01*
X121810768Y-97343639D01*
X121799336Y-97375047D01*
X121799276Y-97375524D01*
X121767227Y-97432632D01*
X121544775Y-97655084D01*
X121482463Y-97689110D01*
X121455680Y-97691989D01*
X119698279Y-97691989D01*
X119687096Y-97691462D01*
X119679603Y-97689787D01*
X119671677Y-97690036D01*
X119671676Y-97690036D01*
X119611513Y-97691927D01*
X119607555Y-97691989D01*
X119579655Y-97691989D01*
X119575665Y-97692493D01*
X119563831Y-97693425D01*
X119519622Y-97694815D01*
X119512008Y-97697027D01*
X119512003Y-97697028D01*
X119500170Y-97700466D01*
X119480807Y-97704477D01*
X119460714Y-97707015D01*
X119453347Y-97709932D01*
X119453342Y-97709933D01*
X119419603Y-97723291D01*
X119408376Y-97727135D01*
X119365918Y-97739471D01*
X119359092Y-97743508D01*
X119348483Y-97749782D01*
X119330735Y-97758477D01*
X119311894Y-97765937D01*
X119305478Y-97770599D01*
X119305477Y-97770599D01*
X119276124Y-97791925D01*
X119266204Y-97798441D01*
X119234976Y-97816909D01*
X119234973Y-97816911D01*
X119228149Y-97820947D01*
X119213828Y-97835268D01*
X119198795Y-97848108D01*
X119182404Y-97860017D01*
X119177353Y-97866123D01*
X119154213Y-97894094D01*
X119146223Y-97902873D01*
X115930980Y-101118115D01*
X115868668Y-101152141D01*
X115797852Y-101147076D01*
X115741017Y-101104529D01*
X115716273Y-101038906D01*
X115715795Y-101032823D01*
X115709535Y-100953289D01*
X115654105Y-100722406D01*
X115563240Y-100503037D01*
X115538215Y-100462200D01*
X115441759Y-100304798D01*
X115441755Y-100304792D01*
X115439176Y-100300584D01*
X115284969Y-100120031D01*
X115281213Y-100116823D01*
X115281208Y-100116818D01*
X115162944Y-100015811D01*
X115124134Y-99956361D01*
X115123628Y-99885366D01*
X115162944Y-99824189D01*
X115281208Y-99723182D01*
X115281213Y-99723177D01*
X115284969Y-99719969D01*
X115439176Y-99539416D01*
X115441755Y-99535208D01*
X115441759Y-99535202D01*
X115560654Y-99341183D01*
X115563240Y-99336963D01*
X115654105Y-99117594D01*
X115692483Y-98957738D01*
X115708380Y-98891524D01*
X115708381Y-98891518D01*
X115709535Y-98886711D01*
X115728165Y-98650000D01*
X115709535Y-98413289D01*
X115654105Y-98182406D01*
X115645869Y-98162521D01*
X115606104Y-98066521D01*
X115598515Y-97995931D01*
X115630294Y-97932444D01*
X115650210Y-97916360D01*
X115649828Y-97915857D01*
X115655445Y-97911593D01*
X115661490Y-97907990D01*
X115666584Y-97903139D01*
X115666588Y-97903136D01*
X115752894Y-97820947D01*
X115784721Y-97790639D01*
X115806086Y-97758483D01*
X115849309Y-97693426D01*
X115878891Y-97648902D01*
X115939319Y-97489825D01*
X115941289Y-97475811D01*
X115951351Y-97404207D01*
X115963001Y-97321313D01*
X115963299Y-97300000D01*
X115944331Y-97130892D01*
X115888368Y-96970189D01*
X115875348Y-96949352D01*
X115827175Y-96872261D01*
X115798192Y-96825879D01*
X115793229Y-96820881D01*
X115793224Y-96820875D01*
X115682729Y-96709605D01*
X115648922Y-96647175D01*
X115652299Y-96581954D01*
X115654105Y-96577594D01*
X115655260Y-96572782D01*
X115655262Y-96572777D01*
X115708380Y-96351524D01*
X115708381Y-96351518D01*
X115709535Y-96346711D01*
X115728165Y-96110000D01*
X115709535Y-95873289D01*
X115654105Y-95642406D01*
X115635422Y-95597301D01*
X115565135Y-95427611D01*
X115565133Y-95427607D01*
X115563240Y-95423037D01*
X115524427Y-95359700D01*
X115441759Y-95224798D01*
X115441755Y-95224792D01*
X115439176Y-95220584D01*
X115284969Y-95040031D01*
X115281213Y-95036823D01*
X115281208Y-95036818D01*
X115162944Y-94935811D01*
X115132609Y-94889343D01*
X121836775Y-94889343D01*
X121853381Y-95058699D01*
X121907094Y-95220167D01*
X121910741Y-95226189D01*
X121910742Y-95226191D01*
X121924497Y-95248902D01*
X121995246Y-95365723D01*
X122113455Y-95488132D01*
X122255846Y-95581310D01*
X122262450Y-95583766D01*
X122262452Y-95583767D01*
X122298844Y-95597301D01*
X122415341Y-95640626D01*
X122584015Y-95663132D01*
X122591026Y-95662494D01*
X122591030Y-95662494D01*
X122746462Y-95648348D01*
X122753483Y-95647709D01*
X122760185Y-95645531D01*
X122760187Y-95645531D01*
X122908623Y-95597301D01*
X122908626Y-95597300D01*
X122915322Y-95595124D01*
X123061490Y-95507990D01*
X123066584Y-95503139D01*
X123066588Y-95503136D01*
X123145896Y-95427611D01*
X123184721Y-95390639D01*
X123278891Y-95248902D01*
X123339319Y-95089825D01*
X123363001Y-94921313D01*
X123363299Y-94900000D01*
X123344331Y-94730892D01*
X123288368Y-94570189D01*
X123282383Y-94560610D01*
X123216515Y-94455202D01*
X123198192Y-94425879D01*
X123078286Y-94305132D01*
X123062039Y-94294821D01*
X123023406Y-94270304D01*
X122934608Y-94213951D01*
X122774300Y-94156868D01*
X122605329Y-94136720D01*
X122598326Y-94137456D01*
X122598325Y-94137456D01*
X122443101Y-94153770D01*
X122443097Y-94153771D01*
X122436093Y-94154507D01*
X122429422Y-94156778D01*
X122281673Y-94207075D01*
X122281670Y-94207076D01*
X122275003Y-94209346D01*
X122269005Y-94213036D01*
X122269003Y-94213037D01*
X122136065Y-94294821D01*
X122136063Y-94294823D01*
X122130066Y-94298512D01*
X122008486Y-94417573D01*
X122004675Y-94423487D01*
X122004673Y-94423489D01*
X121979097Y-94463175D01*
X121916304Y-94560610D01*
X121858103Y-94720516D01*
X121836775Y-94889343D01*
X115132609Y-94889343D01*
X115124134Y-94876361D01*
X115123628Y-94805366D01*
X115162944Y-94744189D01*
X115281208Y-94643182D01*
X115281213Y-94643177D01*
X115284969Y-94639969D01*
X115439176Y-94459416D01*
X115441755Y-94455208D01*
X115441759Y-94455202D01*
X115560654Y-94261183D01*
X115563240Y-94256963D01*
X115582964Y-94209346D01*
X115652211Y-94042167D01*
X115652212Y-94042165D01*
X115654105Y-94037594D01*
X115709535Y-93806711D01*
X115728165Y-93570000D01*
X115709535Y-93333289D01*
X115654105Y-93102406D01*
X115632938Y-93051304D01*
X115625349Y-92980716D01*
X115657128Y-92917229D01*
X115662433Y-92911864D01*
X115684721Y-92890639D01*
X115778891Y-92748902D01*
X115839319Y-92589825D01*
X115863001Y-92421313D01*
X115863299Y-92400000D01*
X115860712Y-92376933D01*
X118026899Y-92376933D01*
X118043505Y-92546289D01*
X118045729Y-92552974D01*
X118045729Y-92552975D01*
X118056051Y-92584004D01*
X118097218Y-92707757D01*
X118100865Y-92713779D01*
X118100866Y-92713781D01*
X118143858Y-92784768D01*
X118185370Y-92853313D01*
X118303579Y-92975722D01*
X118333925Y-92995580D01*
X118437156Y-93063132D01*
X118445970Y-93068900D01*
X118452574Y-93071356D01*
X118452576Y-93071357D01*
X118488968Y-93084891D01*
X118605465Y-93128216D01*
X118774139Y-93150722D01*
X118781150Y-93150084D01*
X118781154Y-93150084D01*
X118936586Y-93135938D01*
X118943607Y-93135299D01*
X118950309Y-93133121D01*
X118950311Y-93133121D01*
X119098747Y-93084891D01*
X119098750Y-93084890D01*
X119105446Y-93082714D01*
X119251614Y-92995580D01*
X119256708Y-92990729D01*
X119256712Y-92990726D01*
X119348690Y-92903136D01*
X119374845Y-92878229D01*
X119469015Y-92736492D01*
X119529443Y-92577415D01*
X119553125Y-92408903D01*
X119553242Y-92400554D01*
X119553368Y-92391551D01*
X119553368Y-92391545D01*
X119553423Y-92387590D01*
X119542403Y-92289343D01*
X119836775Y-92289343D01*
X119853381Y-92458699D01*
X119907094Y-92620167D01*
X119910741Y-92626189D01*
X119910742Y-92626191D01*
X119985059Y-92748902D01*
X119995246Y-92765723D01*
X120113455Y-92888132D01*
X120119351Y-92891990D01*
X120247307Y-92975722D01*
X120255846Y-92981310D01*
X120262450Y-92983766D01*
X120262452Y-92983767D01*
X120298844Y-92997301D01*
X120415341Y-93040626D01*
X120584015Y-93063132D01*
X120591026Y-93062494D01*
X120591030Y-93062494D01*
X120746462Y-93048348D01*
X120753483Y-93047709D01*
X120760185Y-93045531D01*
X120760187Y-93045531D01*
X120908623Y-92997301D01*
X120908626Y-92997300D01*
X120915322Y-92995124D01*
X121061490Y-92907990D01*
X121066584Y-92903139D01*
X121066588Y-92903136D01*
X121133833Y-92839099D01*
X121184721Y-92790639D01*
X121208551Y-92754773D01*
X121274990Y-92654773D01*
X121278891Y-92648902D01*
X121339319Y-92489825D01*
X121363001Y-92321313D01*
X121363299Y-92300000D01*
X121344331Y-92130892D01*
X121333563Y-92099969D01*
X121290686Y-91976846D01*
X121288368Y-91970189D01*
X121282383Y-91960610D01*
X121252925Y-91913469D01*
X121198192Y-91825879D01*
X121078286Y-91705132D01*
X121071188Y-91700627D01*
X120978959Y-91642097D01*
X120934608Y-91613951D01*
X120774300Y-91556868D01*
X120605329Y-91536720D01*
X120598326Y-91537456D01*
X120598325Y-91537456D01*
X120443101Y-91553770D01*
X120443097Y-91553771D01*
X120436093Y-91554507D01*
X120429422Y-91556778D01*
X120281673Y-91607075D01*
X120281670Y-91607076D01*
X120275003Y-91609346D01*
X120269005Y-91613036D01*
X120269003Y-91613037D01*
X120136065Y-91694821D01*
X120136063Y-91694823D01*
X120130066Y-91698512D01*
X120061588Y-91765571D01*
X120035590Y-91791031D01*
X120008486Y-91817573D01*
X120004675Y-91823487D01*
X120004673Y-91823489D01*
X119945568Y-91915202D01*
X119916304Y-91960610D01*
X119913894Y-91967232D01*
X119866949Y-92096213D01*
X119858103Y-92120516D01*
X119836775Y-92289343D01*
X119542403Y-92289343D01*
X119534455Y-92218482D01*
X119478492Y-92057779D01*
X119472507Y-92048200D01*
X119421911Y-91967232D01*
X119388316Y-91913469D01*
X119268410Y-91792722D01*
X119252163Y-91782411D01*
X119213530Y-91757894D01*
X119124732Y-91701541D01*
X118964424Y-91644458D01*
X118795453Y-91624310D01*
X118788450Y-91625046D01*
X118788449Y-91625046D01*
X118633225Y-91641360D01*
X118633221Y-91641361D01*
X118626217Y-91642097D01*
X118619546Y-91644368D01*
X118471797Y-91694665D01*
X118471794Y-91694666D01*
X118465127Y-91696936D01*
X118459129Y-91700626D01*
X118459127Y-91700627D01*
X118326189Y-91782411D01*
X118326187Y-91782413D01*
X118320190Y-91786102D01*
X118198610Y-91905163D01*
X118194799Y-91911077D01*
X118194797Y-91911079D01*
X118162876Y-91960610D01*
X118106428Y-92048200D01*
X118048227Y-92208106D01*
X118026899Y-92376933D01*
X115860712Y-92376933D01*
X115844331Y-92230892D01*
X115840010Y-92218482D01*
X115799857Y-92103182D01*
X115788368Y-92070189D01*
X115779884Y-92056611D01*
X115725880Y-91970189D01*
X115698192Y-91925879D01*
X115693229Y-91920881D01*
X115693224Y-91920875D01*
X115600997Y-91828001D01*
X115567190Y-91765571D01*
X115573994Y-91691000D01*
X115652211Y-91502167D01*
X115652212Y-91502165D01*
X115654105Y-91497594D01*
X115709535Y-91266711D01*
X115728165Y-91030000D01*
X115709535Y-90793289D01*
X115654105Y-90562406D01*
X115563240Y-90343037D01*
X115560654Y-90338817D01*
X115441759Y-90144798D01*
X115441755Y-90144792D01*
X115439176Y-90140584D01*
X115284969Y-89960031D01*
X115281213Y-89956823D01*
X115281208Y-89956818D01*
X115128384Y-89826294D01*
X115089574Y-89766844D01*
X115087360Y-89732442D01*
X115079123Y-89713333D01*
X113944885Y-88579095D01*
X113910859Y-88516783D01*
X113915924Y-88445968D01*
X113944885Y-88400905D01*
X114125905Y-88219885D01*
X114188217Y-88185859D01*
X114259032Y-88190924D01*
X114304095Y-88219885D01*
X115435290Y-89351080D01*
X115447670Y-89357840D01*
X115455320Y-89352113D01*
X115560205Y-89180958D01*
X115564687Y-89172163D01*
X115651734Y-88962012D01*
X115654783Y-88952627D01*
X115707885Y-88731446D01*
X115709428Y-88721699D01*
X115727275Y-88494930D01*
X138102725Y-88494930D01*
X138120572Y-88721699D01*
X138122115Y-88731446D01*
X138175217Y-88952627D01*
X138178266Y-88962012D01*
X138265313Y-89172163D01*
X138269795Y-89180958D01*
X138372432Y-89348445D01*
X138382890Y-89357907D01*
X138391666Y-89354124D01*
X139242978Y-88502812D01*
X139250592Y-88488868D01*
X139250461Y-88487035D01*
X139246210Y-88480420D01*
X138394710Y-87628920D01*
X138382330Y-87622160D01*
X138374680Y-87627887D01*
X138269795Y-87799042D01*
X138265313Y-87807837D01*
X138178266Y-88017988D01*
X138175217Y-88027373D01*
X138122115Y-88248554D01*
X138120572Y-88258301D01*
X138102725Y-88485070D01*
X138102725Y-88494930D01*
X115727275Y-88494930D01*
X115727275Y-88485070D01*
X115709428Y-88258301D01*
X115707885Y-88248554D01*
X115654783Y-88027373D01*
X115651734Y-88017988D01*
X115564687Y-87807837D01*
X115560205Y-87799042D01*
X115441357Y-87605101D01*
X115435557Y-87597117D01*
X115429381Y-87589886D01*
X115400349Y-87525096D01*
X115410953Y-87454896D01*
X115457177Y-87402312D01*
X115461705Y-87400615D01*
X115578261Y-87313261D01*
X115665615Y-87196705D01*
X115716745Y-87060316D01*
X115723500Y-86998134D01*
X115723500Y-84901866D01*
X115716745Y-84839684D01*
X115665615Y-84703295D01*
X115578261Y-84586739D01*
X115461705Y-84499385D01*
X115325316Y-84448255D01*
X115263134Y-84441500D01*
X113234000Y-84441500D01*
X113165879Y-84421498D01*
X113119386Y-84367842D01*
X113108000Y-84315500D01*
X113108000Y-79600814D01*
X113128002Y-79532693D01*
X113181658Y-79486200D01*
X113251932Y-79476096D01*
X113314991Y-79504293D01*
X113448120Y-79616001D01*
X113451550Y-79618879D01*
X113689764Y-79767731D01*
X113946375Y-79881982D01*
X114216390Y-79959407D01*
X114220740Y-79960018D01*
X114220743Y-79960019D01*
X114294239Y-79970348D01*
X114494552Y-79998500D01*
X114705146Y-79998500D01*
X114707332Y-79998347D01*
X114707336Y-79998347D01*
X114910827Y-79984118D01*
X114910832Y-79984117D01*
X114915212Y-79983811D01*
X115189970Y-79925409D01*
X115194099Y-79923906D01*
X115194103Y-79923905D01*
X115449781Y-79830846D01*
X115449785Y-79830844D01*
X115453926Y-79829337D01*
X115701942Y-79697464D01*
X115713679Y-79688937D01*
X115741940Y-79668404D01*
X115808808Y-79644545D01*
X115877960Y-79660626D01*
X115927440Y-79711540D01*
X115940394Y-79763849D01*
X115941817Y-79763772D01*
X115942371Y-79773990D01*
X115947895Y-79824852D01*
X115951521Y-79840104D01*
X115996676Y-79960554D01*
X116005214Y-79976149D01*
X116081715Y-80078224D01*
X116094276Y-80090785D01*
X116196351Y-80167286D01*
X116211946Y-80175824D01*
X116332394Y-80220978D01*
X116347649Y-80224605D01*
X116398514Y-80230131D01*
X116405328Y-80230500D01*
X116927885Y-80230500D01*
X116943124Y-80226025D01*
X116944329Y-80224635D01*
X116946000Y-80216952D01*
X116946000Y-80212384D01*
X117454000Y-80212384D01*
X117458475Y-80227623D01*
X117459865Y-80228828D01*
X117467548Y-80230499D01*
X117994669Y-80230499D01*
X118001490Y-80230129D01*
X118052352Y-80224605D01*
X118067604Y-80220979D01*
X118188054Y-80175824D01*
X118203649Y-80167286D01*
X118305724Y-80090785D01*
X118318285Y-80078224D01*
X118394786Y-79976149D01*
X118403324Y-79960554D01*
X118448478Y-79840106D01*
X118452105Y-79824851D01*
X118457631Y-79773986D01*
X118458000Y-79767172D01*
X118458000Y-79767169D01*
X121342001Y-79767169D01*
X121342371Y-79773990D01*
X121347895Y-79824852D01*
X121351521Y-79840104D01*
X121396676Y-79960554D01*
X121405214Y-79976149D01*
X121481715Y-80078224D01*
X121494276Y-80090785D01*
X121596351Y-80167286D01*
X121611946Y-80175824D01*
X121732394Y-80220978D01*
X121747649Y-80224605D01*
X121798514Y-80230131D01*
X121805328Y-80230500D01*
X122327885Y-80230500D01*
X122343124Y-80226025D01*
X122344329Y-80224635D01*
X122346000Y-80216952D01*
X122346000Y-80212384D01*
X122854000Y-80212384D01*
X122858475Y-80227623D01*
X122859865Y-80228828D01*
X122867548Y-80230499D01*
X123394669Y-80230499D01*
X123401490Y-80230129D01*
X123452352Y-80224605D01*
X123467604Y-80220979D01*
X123588054Y-80175824D01*
X123603649Y-80167286D01*
X123705724Y-80090785D01*
X123718285Y-80078224D01*
X123794786Y-79976149D01*
X123803324Y-79960554D01*
X123848478Y-79840106D01*
X123852105Y-79824851D01*
X123857631Y-79773986D01*
X123858000Y-79767172D01*
X123858000Y-78846781D01*
X129911868Y-78846781D01*
X129921436Y-79053502D01*
X129922840Y-79059327D01*
X129922840Y-79059328D01*
X129947990Y-79163683D01*
X129969921Y-79254685D01*
X130055574Y-79443069D01*
X130175305Y-79611858D01*
X130179628Y-79615996D01*
X130179632Y-79616001D01*
X130264730Y-79697464D01*
X130324792Y-79754961D01*
X130329827Y-79758212D01*
X130493606Y-79863963D01*
X130493609Y-79863964D01*
X130498643Y-79867215D01*
X130690584Y-79944570D01*
X130696465Y-79945718D01*
X130696470Y-79945720D01*
X130889244Y-79983366D01*
X130889247Y-79983366D01*
X130893690Y-79984234D01*
X130899129Y-79984500D01*
X131051704Y-79984500D01*
X131206007Y-79969778D01*
X131237449Y-79960554D01*
X131398827Y-79913211D01*
X131398829Y-79913210D01*
X131404580Y-79911523D01*
X131486257Y-79869457D01*
X131583225Y-79819516D01*
X131583228Y-79819514D01*
X131588556Y-79816770D01*
X131751294Y-79688937D01*
X131886924Y-79532637D01*
X131990552Y-79353510D01*
X132058438Y-79158019D01*
X132064548Y-79115882D01*
X132087271Y-78959159D01*
X132087271Y-78959156D01*
X132088132Y-78953219D01*
X132078564Y-78746498D01*
X132030079Y-78545315D01*
X131944426Y-78356931D01*
X131824695Y-78188142D01*
X131820372Y-78184004D01*
X131820368Y-78183999D01*
X131679538Y-78049184D01*
X131675208Y-78045039D01*
X131575230Y-77980484D01*
X131506394Y-77936037D01*
X131506391Y-77936036D01*
X131501357Y-77932785D01*
X131309416Y-77855430D01*
X131303535Y-77854282D01*
X131303530Y-77854280D01*
X131110756Y-77816634D01*
X131110753Y-77816634D01*
X131106310Y-77815766D01*
X131100871Y-77815500D01*
X130948296Y-77815500D01*
X130793993Y-77830222D01*
X130788239Y-77831910D01*
X130601173Y-77886789D01*
X130601171Y-77886790D01*
X130595420Y-77888477D01*
X130590087Y-77891223D01*
X130590086Y-77891224D01*
X130416775Y-77980484D01*
X130416772Y-77980486D01*
X130411444Y-77983230D01*
X130248706Y-78111063D01*
X130113076Y-78267363D01*
X130009448Y-78446490D01*
X129941562Y-78641981D01*
X129940702Y-78647914D01*
X129940701Y-78647917D01*
X129912729Y-78840841D01*
X129911868Y-78846781D01*
X123858000Y-78846781D01*
X123858000Y-78244615D01*
X123853525Y-78229376D01*
X123852135Y-78228171D01*
X123844452Y-78226500D01*
X122872115Y-78226500D01*
X122856876Y-78230975D01*
X122855671Y-78232365D01*
X122854000Y-78240048D01*
X122854000Y-80212384D01*
X122346000Y-80212384D01*
X122346000Y-78244615D01*
X122341525Y-78229376D01*
X122340135Y-78228171D01*
X122332452Y-78226500D01*
X121360116Y-78226500D01*
X121344877Y-78230975D01*
X121343672Y-78232365D01*
X121342001Y-78240048D01*
X121342001Y-79767169D01*
X118458000Y-79767169D01*
X118458000Y-78244615D01*
X118453525Y-78229376D01*
X118452135Y-78228171D01*
X118444452Y-78226500D01*
X117472115Y-78226500D01*
X117456876Y-78230975D01*
X117455671Y-78232365D01*
X117454000Y-78240048D01*
X117454000Y-80212384D01*
X116946000Y-80212384D01*
X116946000Y-77844500D01*
X116966002Y-77776379D01*
X117019658Y-77729886D01*
X117072000Y-77718500D01*
X118439884Y-77718500D01*
X118455123Y-77714025D01*
X118456328Y-77712635D01*
X118457999Y-77704952D01*
X118457999Y-76534000D01*
X118478001Y-76465879D01*
X118531657Y-76419386D01*
X118583999Y-76408000D01*
X121216000Y-76408000D01*
X121284121Y-76428002D01*
G37*
G04 #@! TD.AperFunction*
M02*
