G04 #@! TF.GenerationSoftware,KiCad,Pcbnew,6.0.2+dfsg-1*
G04 #@! TF.CreationDate,2024-02-25T21:37:04-08:00*
G04 #@! TF.ProjectId,cchat,63636861-742e-46b6-9963-61645f706362,rev?*
G04 #@! TF.SameCoordinates,Original*
G04 #@! TF.FileFunction,Legend,Top*
G04 #@! TF.FilePolarity,Positive*
%FSLAX46Y46*%
G04 Gerber Fmt 4.6, Leading zero omitted, Abs format (unit mm)*
G04 Created by KiCad (PCBNEW 6.0.2+dfsg-1) date 2024-02-25 21:37:04*
%MOMM*%
%LPD*%
G01*
G04 APERTURE LIST*
G04 Aperture macros list*
%AMRoundRect*
0 Rectangle with rounded corners*
0 $1 Rounding radius*
0 $2 $3 $4 $5 $6 $7 $8 $9 X,Y pos of 4 corners*
0 Add a 4 corners polygon primitive as box body*
4,1,4,$2,$3,$4,$5,$6,$7,$8,$9,$2,$3,0*
0 Add four circle primitives for the rounded corners*
1,1,$1+$1,$2,$3*
1,1,$1+$1,$4,$5*
1,1,$1+$1,$6,$7*
1,1,$1+$1,$8,$9*
0 Add four rect primitives between the rounded corners*
20,1,$1+$1,$2,$3,$4,$5,0*
20,1,$1+$1,$4,$5,$6,$7,0*
20,1,$1+$1,$6,$7,$8,$9,0*
20,1,$1+$1,$8,$9,$2,$3,0*%
G04 Aperture macros list end*
%ADD10C,0.150000*%
%ADD11C,0.120000*%
%ADD12C,0.127000*%
%ADD13C,0.200000*%
%ADD14C,1.448000*%
%ADD15RoundRect,0.140000X-0.140000X-0.170000X0.140000X-0.170000X0.140000X0.170000X-0.140000X0.170000X0*%
%ADD16RoundRect,0.147500X0.172500X-0.147500X0.172500X0.147500X-0.172500X0.147500X-0.172500X-0.147500X0*%
%ADD17RoundRect,0.140000X-0.170000X0.140000X-0.170000X-0.140000X0.170000X-0.140000X0.170000X0.140000X0*%
%ADD18C,3.000000*%
%ADD19RoundRect,0.102000X-1.000000X-1.000000X1.000000X-1.000000X1.000000X1.000000X-1.000000X1.000000X0*%
%ADD20C,2.204000*%
%ADD21RoundRect,0.135000X-0.185000X0.135000X-0.185000X-0.135000X0.185000X-0.135000X0.185000X0.135000X0*%
%ADD22RoundRect,0.140000X0.170000X-0.140000X0.170000X0.140000X-0.170000X0.140000X-0.170000X-0.140000X0*%
%ADD23RoundRect,0.102000X0.555000X0.605000X-0.555000X0.605000X-0.555000X-0.605000X0.555000X-0.605000X0*%
%ADD24RoundRect,0.147500X-0.147500X-0.172500X0.147500X-0.172500X0.147500X0.172500X-0.147500X0.172500X0*%
%ADD25RoundRect,0.109800X0.122200X-0.512200X0.122200X0.512200X-0.122200X0.512200X-0.122200X-0.512200X0*%
%ADD26RoundRect,0.109800X0.512200X0.122200X-0.512200X0.122200X-0.512200X-0.122200X0.512200X-0.122200X0*%
%ADD27RoundRect,0.102000X1.200000X-1.200000X1.200000X1.200000X-1.200000X1.200000X-1.200000X-1.200000X0*%
%ADD28RoundRect,0.102000X-0.750000X1.750000X-0.750000X-1.750000X0.750000X-1.750000X0.750000X1.750000X0*%
%ADD29RoundRect,0.140000X0.140000X0.170000X-0.140000X0.170000X-0.140000X-0.170000X0.140000X-0.170000X0*%
G04 APERTURE END LIST*
D10*
X124652380Y-108452380D02*
X124652380Y-107452380D01*
X124652380Y-107928571D02*
X125223809Y-107928571D01*
X125223809Y-108452380D02*
X125223809Y-107452380D01*
X125700000Y-108452380D02*
X125700000Y-107785714D01*
X125700000Y-107452380D02*
X125652380Y-107500000D01*
X125700000Y-107547619D01*
X125747619Y-107500000D01*
X125700000Y-107452380D01*
X125700000Y-107547619D01*
X126795238Y-107785714D02*
X127176190Y-107785714D01*
X126938095Y-107452380D02*
X126938095Y-108309523D01*
X126985714Y-108404761D01*
X127080952Y-108452380D01*
X127176190Y-108452380D01*
X127509523Y-108452380D02*
X127509523Y-107452380D01*
X127938095Y-108452380D02*
X127938095Y-107928571D01*
X127890476Y-107833333D01*
X127795238Y-107785714D01*
X127652380Y-107785714D01*
X127557142Y-107833333D01*
X127509523Y-107880952D01*
X128795238Y-108404761D02*
X128700000Y-108452380D01*
X128509523Y-108452380D01*
X128414285Y-108404761D01*
X128366666Y-108309523D01*
X128366666Y-107928571D01*
X128414285Y-107833333D01*
X128509523Y-107785714D01*
X128700000Y-107785714D01*
X128795238Y-107833333D01*
X128842857Y-107928571D01*
X128842857Y-108023809D01*
X128366666Y-108119047D01*
X129271428Y-108452380D02*
X129271428Y-107785714D01*
X129271428Y-107976190D02*
X129319047Y-107880952D01*
X129366666Y-107833333D01*
X129461904Y-107785714D01*
X129557142Y-107785714D01*
X130271428Y-108404761D02*
X130176190Y-108452380D01*
X129985714Y-108452380D01*
X129890476Y-108404761D01*
X129842857Y-108309523D01*
X129842857Y-107928571D01*
X129890476Y-107833333D01*
X129985714Y-107785714D01*
X130176190Y-107785714D01*
X130271428Y-107833333D01*
X130319047Y-107928571D01*
X130319047Y-108023809D01*
X129842857Y-108119047D01*
X130747619Y-108357142D02*
X130795238Y-108404761D01*
X130747619Y-108452380D01*
X130700000Y-108404761D01*
X130747619Y-108357142D01*
X130747619Y-108452380D01*
X130747619Y-108071428D02*
X130700000Y-107500000D01*
X130747619Y-107452380D01*
X130795238Y-107500000D01*
X130747619Y-108071428D01*
X130747619Y-107452380D01*
X134714285Y-114212380D02*
X135285714Y-114212380D01*
X135000000Y-115212380D02*
X135000000Y-114212380D01*
X135619047Y-115212380D02*
X135619047Y-114212380D01*
X135619047Y-114688571D02*
X136190476Y-114688571D01*
X136190476Y-115212380D02*
X136190476Y-114212380D01*
X136619047Y-114307619D02*
X136666666Y-114260000D01*
X136761904Y-114212380D01*
X137000000Y-114212380D01*
X137095238Y-114260000D01*
X137142857Y-114307619D01*
X137190476Y-114402857D01*
X137190476Y-114498095D01*
X137142857Y-114640952D01*
X136571428Y-115212380D01*
X137190476Y-115212380D01*
X118414285Y-114812380D02*
X118985714Y-114812380D01*
X118700000Y-115812380D02*
X118700000Y-114812380D01*
X119319047Y-115812380D02*
X119319047Y-114812380D01*
X119319047Y-115288571D02*
X119890476Y-115288571D01*
X119890476Y-115812380D02*
X119890476Y-114812380D01*
X120271428Y-114812380D02*
X120890476Y-114812380D01*
X120557142Y-115193333D01*
X120700000Y-115193333D01*
X120795238Y-115240952D01*
X120842857Y-115288571D01*
X120890476Y-115383809D01*
X120890476Y-115621904D01*
X120842857Y-115717142D01*
X120795238Y-115764761D01*
X120700000Y-115812380D01*
X120414285Y-115812380D01*
X120319047Y-115764761D01*
X120271428Y-115717142D01*
X123377142Y-98142857D02*
X123424761Y-98190476D01*
X123472380Y-98333333D01*
X123472380Y-98428571D01*
X123424761Y-98571428D01*
X123329523Y-98666666D01*
X123234285Y-98714285D01*
X123043809Y-98761904D01*
X122900952Y-98761904D01*
X122710476Y-98714285D01*
X122615238Y-98666666D01*
X122520000Y-98571428D01*
X122472380Y-98428571D01*
X122472380Y-98333333D01*
X122520000Y-98190476D01*
X122567619Y-98142857D01*
X123472380Y-97666666D02*
X123472380Y-97476190D01*
X123424761Y-97380952D01*
X123377142Y-97333333D01*
X123234285Y-97238095D01*
X123043809Y-97190476D01*
X122662857Y-97190476D01*
X122567619Y-97238095D01*
X122520000Y-97285714D01*
X122472380Y-97380952D01*
X122472380Y-97571428D01*
X122520000Y-97666666D01*
X122567619Y-97714285D01*
X122662857Y-97761904D01*
X122900952Y-97761904D01*
X122996190Y-97714285D01*
X123043809Y-97666666D01*
X123091428Y-97571428D01*
X123091428Y-97380952D01*
X123043809Y-97285714D01*
X122996190Y-97238095D01*
X122900952Y-97190476D01*
X123472380Y-96238095D02*
X123472380Y-96809523D01*
X123472380Y-96523809D02*
X122472380Y-96523809D01*
X122615238Y-96619047D01*
X122710476Y-96714285D01*
X122758095Y-96809523D01*
X120980952Y-88752380D02*
X120504761Y-88752380D01*
X120504761Y-87752380D01*
X121838095Y-88752380D02*
X121266666Y-88752380D01*
X121552380Y-88752380D02*
X121552380Y-87752380D01*
X121457142Y-87895238D01*
X121361904Y-87990476D01*
X121266666Y-88038095D01*
X122219047Y-87847619D02*
X122266666Y-87800000D01*
X122361904Y-87752380D01*
X122600000Y-87752380D01*
X122695238Y-87800000D01*
X122742857Y-87847619D01*
X122790476Y-87942857D01*
X122790476Y-88038095D01*
X122742857Y-88180952D01*
X122171428Y-88752380D01*
X122790476Y-88752380D01*
X123171428Y-87847619D02*
X123219047Y-87800000D01*
X123314285Y-87752380D01*
X123552380Y-87752380D01*
X123647619Y-87800000D01*
X123695238Y-87847619D01*
X123742857Y-87942857D01*
X123742857Y-88038095D01*
X123695238Y-88180952D01*
X123123809Y-88752380D01*
X123742857Y-88752380D01*
X122280952Y-84157142D02*
X122233333Y-84204761D01*
X122090476Y-84252380D01*
X121995238Y-84252380D01*
X121852380Y-84204761D01*
X121757142Y-84109523D01*
X121709523Y-84014285D01*
X121661904Y-83823809D01*
X121661904Y-83680952D01*
X121709523Y-83490476D01*
X121757142Y-83395238D01*
X121852380Y-83300000D01*
X121995238Y-83252380D01*
X122090476Y-83252380D01*
X122233333Y-83300000D01*
X122280952Y-83347619D01*
X123233333Y-84252380D02*
X122661904Y-84252380D01*
X122947619Y-84252380D02*
X122947619Y-83252380D01*
X122852380Y-83395238D01*
X122757142Y-83490476D01*
X122661904Y-83538095D01*
X123614285Y-83347619D02*
X123661904Y-83300000D01*
X123757142Y-83252380D01*
X123995238Y-83252380D01*
X124090476Y-83300000D01*
X124138095Y-83347619D01*
X124185714Y-83442857D01*
X124185714Y-83538095D01*
X124138095Y-83680952D01*
X123566666Y-84252380D01*
X124185714Y-84252380D01*
X124519047Y-83252380D02*
X125138095Y-83252380D01*
X124804761Y-83633333D01*
X124947619Y-83633333D01*
X125042857Y-83680952D01*
X125090476Y-83728571D01*
X125138095Y-83823809D01*
X125138095Y-84061904D01*
X125090476Y-84157142D01*
X125042857Y-84204761D01*
X124947619Y-84252380D01*
X124661904Y-84252380D01*
X124566666Y-84204761D01*
X124519047Y-84157142D01*
X117657142Y-89319047D02*
X117704761Y-89366666D01*
X117752380Y-89509523D01*
X117752380Y-89604761D01*
X117704761Y-89747619D01*
X117609523Y-89842857D01*
X117514285Y-89890476D01*
X117323809Y-89938095D01*
X117180952Y-89938095D01*
X116990476Y-89890476D01*
X116895238Y-89842857D01*
X116800000Y-89747619D01*
X116752380Y-89604761D01*
X116752380Y-89509523D01*
X116800000Y-89366666D01*
X116847619Y-89319047D01*
X117752380Y-88366666D02*
X117752380Y-88938095D01*
X117752380Y-88652380D02*
X116752380Y-88652380D01*
X116895238Y-88747619D01*
X116990476Y-88842857D01*
X117038095Y-88938095D01*
X116752380Y-88033333D02*
X116752380Y-87414285D01*
X117133333Y-87747619D01*
X117133333Y-87604761D01*
X117180952Y-87509523D01*
X117228571Y-87461904D01*
X117323809Y-87414285D01*
X117561904Y-87414285D01*
X117657142Y-87461904D01*
X117704761Y-87509523D01*
X117752380Y-87604761D01*
X117752380Y-87890476D01*
X117704761Y-87985714D01*
X117657142Y-88033333D01*
X117752380Y-86461904D02*
X117752380Y-87033333D01*
X117752380Y-86747619D02*
X116752380Y-86747619D01*
X116895238Y-86842857D01*
X116990476Y-86938095D01*
X117038095Y-87033333D01*
X114798095Y-73557380D02*
X114798095Y-74366904D01*
X114845714Y-74462142D01*
X114893333Y-74509761D01*
X114988571Y-74557380D01*
X115179047Y-74557380D01*
X115274285Y-74509761D01*
X115321904Y-74462142D01*
X115369523Y-74366904D01*
X115369523Y-73557380D01*
X115798095Y-73652619D02*
X115845714Y-73605000D01*
X115940952Y-73557380D01*
X116179047Y-73557380D01*
X116274285Y-73605000D01*
X116321904Y-73652619D01*
X116369523Y-73747857D01*
X116369523Y-73843095D01*
X116321904Y-73985952D01*
X115750476Y-74557380D01*
X116369523Y-74557380D01*
X123180952Y-90157142D02*
X123133333Y-90204761D01*
X122990476Y-90252380D01*
X122895238Y-90252380D01*
X122752380Y-90204761D01*
X122657142Y-90109523D01*
X122609523Y-90014285D01*
X122561904Y-89823809D01*
X122561904Y-89680952D01*
X122609523Y-89490476D01*
X122657142Y-89395238D01*
X122752380Y-89300000D01*
X122895238Y-89252380D01*
X122990476Y-89252380D01*
X123133333Y-89300000D01*
X123180952Y-89347619D01*
X124133333Y-90252380D02*
X123561904Y-90252380D01*
X123847619Y-90252380D02*
X123847619Y-89252380D01*
X123752380Y-89395238D01*
X123657142Y-89490476D01*
X123561904Y-89538095D01*
X124514285Y-89347619D02*
X124561904Y-89300000D01*
X124657142Y-89252380D01*
X124895238Y-89252380D01*
X124990476Y-89300000D01*
X125038095Y-89347619D01*
X125085714Y-89442857D01*
X125085714Y-89538095D01*
X125038095Y-89680952D01*
X124466666Y-90252380D01*
X125085714Y-90252380D01*
X125942857Y-89585714D02*
X125942857Y-90252380D01*
X125704761Y-89204761D02*
X125466666Y-89919047D01*
X126085714Y-89919047D01*
X123557142Y-94419047D02*
X123604761Y-94466666D01*
X123652380Y-94609523D01*
X123652380Y-94704761D01*
X123604761Y-94847619D01*
X123509523Y-94942857D01*
X123414285Y-94990476D01*
X123223809Y-95038095D01*
X123080952Y-95038095D01*
X122890476Y-94990476D01*
X122795238Y-94942857D01*
X122700000Y-94847619D01*
X122652380Y-94704761D01*
X122652380Y-94609523D01*
X122700000Y-94466666D01*
X122747619Y-94419047D01*
X123652380Y-93466666D02*
X123652380Y-94038095D01*
X123652380Y-93752380D02*
X122652380Y-93752380D01*
X122795238Y-93847619D01*
X122890476Y-93942857D01*
X122938095Y-94038095D01*
X123652380Y-92514285D02*
X123652380Y-93085714D01*
X123652380Y-92800000D02*
X122652380Y-92800000D01*
X122795238Y-92895238D01*
X122890476Y-92990476D01*
X122938095Y-93085714D01*
X123652380Y-91561904D02*
X123652380Y-92133333D01*
X123652380Y-91847619D02*
X122652380Y-91847619D01*
X122795238Y-91942857D01*
X122890476Y-92038095D01*
X122938095Y-92133333D01*
D11*
X126842428Y-97846942D02*
X127162428Y-98326942D01*
X127162428Y-97846942D02*
X126842428Y-98326942D01*
X127596714Y-98326942D02*
X127322428Y-98326942D01*
X127459571Y-98326942D02*
X127459571Y-97846942D01*
X127413857Y-97915514D01*
X127368142Y-97961228D01*
X127322428Y-97984085D01*
D10*
X116457142Y-91219047D02*
X116504761Y-91266666D01*
X116552380Y-91409523D01*
X116552380Y-91504761D01*
X116504761Y-91647619D01*
X116409523Y-91742857D01*
X116314285Y-91790476D01*
X116123809Y-91838095D01*
X115980952Y-91838095D01*
X115790476Y-91790476D01*
X115695238Y-91742857D01*
X115600000Y-91647619D01*
X115552380Y-91504761D01*
X115552380Y-91409523D01*
X115600000Y-91266666D01*
X115647619Y-91219047D01*
X116552380Y-90266666D02*
X116552380Y-90838095D01*
X116552380Y-90552380D02*
X115552380Y-90552380D01*
X115695238Y-90647619D01*
X115790476Y-90742857D01*
X115838095Y-90838095D01*
X115885714Y-89409523D02*
X116552380Y-89409523D01*
X115504761Y-89647619D02*
X116219047Y-89885714D01*
X116219047Y-89266666D01*
X116552380Y-88361904D02*
X116552380Y-88933333D01*
X116552380Y-88647619D02*
X115552380Y-88647619D01*
X115695238Y-88742857D01*
X115790476Y-88838095D01*
X115838095Y-88933333D01*
X122257142Y-101777142D02*
X122209523Y-101824761D01*
X122066666Y-101872380D01*
X121971428Y-101872380D01*
X121828571Y-101824761D01*
X121733333Y-101729523D01*
X121685714Y-101634285D01*
X121638095Y-101443809D01*
X121638095Y-101300952D01*
X121685714Y-101110476D01*
X121733333Y-101015238D01*
X121828571Y-100920000D01*
X121971428Y-100872380D01*
X122066666Y-100872380D01*
X122209523Y-100920000D01*
X122257142Y-100967619D01*
X123161904Y-100872380D02*
X122685714Y-100872380D01*
X122638095Y-101348571D01*
X122685714Y-101300952D01*
X122780952Y-101253333D01*
X123019047Y-101253333D01*
X123114285Y-101300952D01*
X123161904Y-101348571D01*
X123209523Y-101443809D01*
X123209523Y-101681904D01*
X123161904Y-101777142D01*
X123114285Y-101824761D01*
X123019047Y-101872380D01*
X122780952Y-101872380D01*
X122685714Y-101824761D01*
X122638095Y-101777142D01*
X124161904Y-101872380D02*
X123590476Y-101872380D01*
X123876190Y-101872380D02*
X123876190Y-100872380D01*
X123780952Y-101015238D01*
X123685714Y-101110476D01*
X123590476Y-101158095D01*
X123080952Y-91552380D02*
X122604761Y-91552380D01*
X122604761Y-90552380D01*
X123938095Y-91552380D02*
X123366666Y-91552380D01*
X123652380Y-91552380D02*
X123652380Y-90552380D01*
X123557142Y-90695238D01*
X123461904Y-90790476D01*
X123366666Y-90838095D01*
X124319047Y-90647619D02*
X124366666Y-90600000D01*
X124461904Y-90552380D01*
X124700000Y-90552380D01*
X124795238Y-90600000D01*
X124842857Y-90647619D01*
X124890476Y-90742857D01*
X124890476Y-90838095D01*
X124842857Y-90980952D01*
X124271428Y-91552380D01*
X124890476Y-91552380D01*
X125842857Y-91552380D02*
X125271428Y-91552380D01*
X125557142Y-91552380D02*
X125557142Y-90552380D01*
X125461904Y-90695238D01*
X125366666Y-90790476D01*
X125271428Y-90838095D01*
X125067142Y-100619047D02*
X125114761Y-100666666D01*
X125162380Y-100809523D01*
X125162380Y-100904761D01*
X125114761Y-101047619D01*
X125019523Y-101142857D01*
X124924285Y-101190476D01*
X124733809Y-101238095D01*
X124590952Y-101238095D01*
X124400476Y-101190476D01*
X124305238Y-101142857D01*
X124210000Y-101047619D01*
X124162380Y-100904761D01*
X124162380Y-100809523D01*
X124210000Y-100666666D01*
X124257619Y-100619047D01*
X125162380Y-99666666D02*
X125162380Y-100238095D01*
X125162380Y-99952380D02*
X124162380Y-99952380D01*
X124305238Y-100047619D01*
X124400476Y-100142857D01*
X124448095Y-100238095D01*
X124162380Y-99047619D02*
X124162380Y-98952380D01*
X124210000Y-98857142D01*
X124257619Y-98809523D01*
X124352857Y-98761904D01*
X124543333Y-98714285D01*
X124781428Y-98714285D01*
X124971904Y-98761904D01*
X125067142Y-98809523D01*
X125114761Y-98857142D01*
X125162380Y-98952380D01*
X125162380Y-99047619D01*
X125114761Y-99142857D01*
X125067142Y-99190476D01*
X124971904Y-99238095D01*
X124781428Y-99285714D01*
X124543333Y-99285714D01*
X124352857Y-99238095D01*
X124257619Y-99190476D01*
X124210000Y-99142857D01*
X124162380Y-99047619D01*
X125162380Y-97761904D02*
X125162380Y-98333333D01*
X125162380Y-98047619D02*
X124162380Y-98047619D01*
X124305238Y-98142857D01*
X124400476Y-98238095D01*
X124448095Y-98333333D01*
X116380952Y-81657142D02*
X116333333Y-81704761D01*
X116190476Y-81752380D01*
X116095238Y-81752380D01*
X115952380Y-81704761D01*
X115857142Y-81609523D01*
X115809523Y-81514285D01*
X115761904Y-81323809D01*
X115761904Y-81180952D01*
X115809523Y-80990476D01*
X115857142Y-80895238D01*
X115952380Y-80800000D01*
X116095238Y-80752380D01*
X116190476Y-80752380D01*
X116333333Y-80800000D01*
X116380952Y-80847619D01*
X117333333Y-81752380D02*
X116761904Y-81752380D01*
X117047619Y-81752380D02*
X117047619Y-80752380D01*
X116952380Y-80895238D01*
X116857142Y-80990476D01*
X116761904Y-81038095D01*
X117714285Y-80847619D02*
X117761904Y-80800000D01*
X117857142Y-80752380D01*
X118095238Y-80752380D01*
X118190476Y-80800000D01*
X118238095Y-80847619D01*
X118285714Y-80942857D01*
X118285714Y-81038095D01*
X118238095Y-81180952D01*
X117666666Y-81752380D01*
X118285714Y-81752380D01*
X119190476Y-80752380D02*
X118714285Y-80752380D01*
X118666666Y-81228571D01*
X118714285Y-81180952D01*
X118809523Y-81133333D01*
X119047619Y-81133333D01*
X119142857Y-81180952D01*
X119190476Y-81228571D01*
X119238095Y-81323809D01*
X119238095Y-81561904D01*
X119190476Y-81657142D01*
X119142857Y-81704761D01*
X119047619Y-81752380D01*
X118809523Y-81752380D01*
X118714285Y-81704761D01*
X118666666Y-81657142D01*
X116280952Y-85967380D02*
X115804761Y-85967380D01*
X115804761Y-84967380D01*
X117138095Y-85967380D02*
X116566666Y-85967380D01*
X116852380Y-85967380D02*
X116852380Y-84967380D01*
X116757142Y-85110238D01*
X116661904Y-85205476D01*
X116566666Y-85253095D01*
X117519047Y-85062619D02*
X117566666Y-85015000D01*
X117661904Y-84967380D01*
X117900000Y-84967380D01*
X117995238Y-85015000D01*
X118042857Y-85062619D01*
X118090476Y-85157857D01*
X118090476Y-85253095D01*
X118042857Y-85395952D01*
X117471428Y-85967380D01*
X118090476Y-85967380D01*
X118423809Y-84967380D02*
X119042857Y-84967380D01*
X118709523Y-85348333D01*
X118852380Y-85348333D01*
X118947619Y-85395952D01*
X118995238Y-85443571D01*
X119042857Y-85538809D01*
X119042857Y-85776904D01*
X118995238Y-85872142D01*
X118947619Y-85919761D01*
X118852380Y-85967380D01*
X118566666Y-85967380D01*
X118471428Y-85919761D01*
X118423809Y-85872142D01*
X116738095Y-98952380D02*
X116738095Y-99761904D01*
X116785714Y-99857142D01*
X116833333Y-99904761D01*
X116928571Y-99952380D01*
X117119047Y-99952380D01*
X117214285Y-99904761D01*
X117261904Y-99857142D01*
X117309523Y-99761904D01*
X117309523Y-98952380D01*
X118309523Y-99952380D02*
X117738095Y-99952380D01*
X118023809Y-99952380D02*
X118023809Y-98952380D01*
X117928571Y-99095238D01*
X117833333Y-99190476D01*
X117738095Y-99238095D01*
X119152380Y-89419047D02*
X119152380Y-89895238D01*
X118152380Y-89895238D01*
X119152380Y-88561904D02*
X119152380Y-89133333D01*
X119152380Y-88847619D02*
X118152380Y-88847619D01*
X118295238Y-88942857D01*
X118390476Y-89038095D01*
X118438095Y-89133333D01*
X118152380Y-88228571D02*
X118152380Y-87609523D01*
X118533333Y-87942857D01*
X118533333Y-87800000D01*
X118580952Y-87704761D01*
X118628571Y-87657142D01*
X118723809Y-87609523D01*
X118961904Y-87609523D01*
X119057142Y-87657142D01*
X119104761Y-87704761D01*
X119152380Y-87800000D01*
X119152380Y-88085714D01*
X119104761Y-88180952D01*
X119057142Y-88228571D01*
X119152380Y-86657142D02*
X119152380Y-87228571D01*
X119152380Y-86942857D02*
X118152380Y-86942857D01*
X118295238Y-87038095D01*
X118390476Y-87133333D01*
X118438095Y-87228571D01*
X118957142Y-101777142D02*
X118909523Y-101824761D01*
X118766666Y-101872380D01*
X118671428Y-101872380D01*
X118528571Y-101824761D01*
X118433333Y-101729523D01*
X118385714Y-101634285D01*
X118338095Y-101443809D01*
X118338095Y-101300952D01*
X118385714Y-101110476D01*
X118433333Y-101015238D01*
X118528571Y-100920000D01*
X118671428Y-100872380D01*
X118766666Y-100872380D01*
X118909523Y-100920000D01*
X118957142Y-100967619D01*
X119814285Y-101205714D02*
X119814285Y-101872380D01*
X119576190Y-100824761D02*
X119338095Y-101539047D01*
X119957142Y-101539047D01*
X120861904Y-101872380D02*
X120290476Y-101872380D01*
X120576190Y-101872380D02*
X120576190Y-100872380D01*
X120480952Y-101015238D01*
X120385714Y-101110476D01*
X120290476Y-101158095D01*
X123955923Y-78217833D02*
X124413066Y-78217833D01*
X124504495Y-78248309D01*
X124565447Y-78309261D01*
X124595923Y-78400690D01*
X124595923Y-78461642D01*
X124595923Y-77577833D02*
X124595923Y-77943547D01*
X124595923Y-77760690D02*
X123955923Y-77760690D01*
X124047352Y-77821642D01*
X124108304Y-77882595D01*
X124138780Y-77943547D01*
X122180952Y-87357142D02*
X122133333Y-87404761D01*
X121990476Y-87452380D01*
X121895238Y-87452380D01*
X121752380Y-87404761D01*
X121657142Y-87309523D01*
X121609523Y-87214285D01*
X121561904Y-87023809D01*
X121561904Y-86880952D01*
X121609523Y-86690476D01*
X121657142Y-86595238D01*
X121752380Y-86500000D01*
X121895238Y-86452380D01*
X121990476Y-86452380D01*
X122133333Y-86500000D01*
X122180952Y-86547619D01*
X123133333Y-87452380D02*
X122561904Y-87452380D01*
X122847619Y-87452380D02*
X122847619Y-86452380D01*
X122752380Y-86595238D01*
X122657142Y-86690476D01*
X122561904Y-86738095D01*
X123514285Y-86547619D02*
X123561904Y-86500000D01*
X123657142Y-86452380D01*
X123895238Y-86452380D01*
X123990476Y-86500000D01*
X124038095Y-86547619D01*
X124085714Y-86642857D01*
X124085714Y-86738095D01*
X124038095Y-86880952D01*
X123466666Y-87452380D01*
X124085714Y-87452380D01*
X124466666Y-86547619D02*
X124514285Y-86500000D01*
X124609523Y-86452380D01*
X124847619Y-86452380D01*
X124942857Y-86500000D01*
X124990476Y-86547619D01*
X125038095Y-86642857D01*
X125038095Y-86738095D01*
X124990476Y-86880952D01*
X124419047Y-87452380D01*
X125038095Y-87452380D01*
X132414285Y-78152380D02*
X132985714Y-78152380D01*
X132700000Y-79152380D02*
X132700000Y-78152380D01*
X133319047Y-79152380D02*
X133319047Y-78152380D01*
X133319047Y-78628571D02*
X133890476Y-78628571D01*
X133890476Y-79152380D02*
X133890476Y-78152380D01*
X134890476Y-79152380D02*
X134319047Y-79152380D01*
X134604761Y-79152380D02*
X134604761Y-78152380D01*
X134509523Y-78295238D01*
X134414285Y-78390476D01*
X134319047Y-78438095D01*
X124967142Y-93257142D02*
X124919523Y-93304761D01*
X124776666Y-93352380D01*
X124681428Y-93352380D01*
X124538571Y-93304761D01*
X124443333Y-93209523D01*
X124395714Y-93114285D01*
X124348095Y-92923809D01*
X124348095Y-92780952D01*
X124395714Y-92590476D01*
X124443333Y-92495238D01*
X124538571Y-92400000D01*
X124681428Y-92352380D01*
X124776666Y-92352380D01*
X124919523Y-92400000D01*
X124967142Y-92447619D01*
X125538571Y-92780952D02*
X125443333Y-92733333D01*
X125395714Y-92685714D01*
X125348095Y-92590476D01*
X125348095Y-92542857D01*
X125395714Y-92447619D01*
X125443333Y-92400000D01*
X125538571Y-92352380D01*
X125729047Y-92352380D01*
X125824285Y-92400000D01*
X125871904Y-92447619D01*
X125919523Y-92542857D01*
X125919523Y-92590476D01*
X125871904Y-92685714D01*
X125824285Y-92733333D01*
X125729047Y-92780952D01*
X125538571Y-92780952D01*
X125443333Y-92828571D01*
X125395714Y-92876190D01*
X125348095Y-92971428D01*
X125348095Y-93161904D01*
X125395714Y-93257142D01*
X125443333Y-93304761D01*
X125538571Y-93352380D01*
X125729047Y-93352380D01*
X125824285Y-93304761D01*
X125871904Y-93257142D01*
X125919523Y-93161904D01*
X125919523Y-92971428D01*
X125871904Y-92876190D01*
X125824285Y-92828571D01*
X125729047Y-92780952D01*
X126871904Y-93352380D02*
X126300476Y-93352380D01*
X126586190Y-93352380D02*
X126586190Y-92352380D01*
X126490952Y-92495238D01*
X126395714Y-92590476D01*
X126300476Y-92638095D01*
D11*
X122992164Y-95960000D02*
X123207836Y-95960000D01*
X122992164Y-95240000D02*
X123207836Y-95240000D01*
X120272164Y-83440000D02*
X120487836Y-83440000D01*
X120272164Y-84160000D02*
X120487836Y-84160000D01*
X117140000Y-90892164D02*
X117140000Y-91107836D01*
X117860000Y-90892164D02*
X117860000Y-91107836D01*
D12*
X130415000Y-75990000D02*
X141145000Y-75990000D01*
X112635000Y-75990000D02*
X123704000Y-75990000D01*
X112635000Y-126940000D02*
X118005000Y-126940000D01*
X141145000Y-75990000D02*
X141145000Y-126940000D01*
X141145000Y-75990000D02*
X141145000Y-126940000D01*
X141145000Y-126940000D02*
X112635000Y-126940000D01*
X112635000Y-75990000D02*
X141145000Y-75990000D01*
X135695000Y-126940000D02*
X141145000Y-126940000D01*
X112635000Y-126940000D02*
X112635000Y-75990000D01*
X123704000Y-75990000D02*
X130415000Y-75990000D01*
X112635000Y-126940000D02*
X112635000Y-75990000D01*
X118005000Y-126940000D02*
X135695000Y-126940000D01*
D13*
X112165000Y-85950000D02*
G75*
G03*
X112165000Y-85950000I-100000J0D01*
G01*
D11*
X116580000Y-94846359D02*
X116580000Y-95153641D01*
X115820000Y-94846359D02*
X115820000Y-95153641D01*
X121540000Y-90007836D02*
X121540000Y-89792164D01*
X122260000Y-90007836D02*
X122260000Y-89792164D01*
X121492164Y-92540000D02*
X121707836Y-92540000D01*
X121492164Y-93260000D02*
X121707836Y-93260000D01*
D12*
X125850000Y-95825000D02*
X125850000Y-95375000D01*
X128350000Y-95825000D02*
X128350000Y-95375000D01*
D13*
X129300000Y-96700000D02*
G75*
G03*
X129300000Y-96700000I-100000J0D01*
G01*
D11*
X115840000Y-93107836D02*
X115840000Y-92892164D01*
X116560000Y-93107836D02*
X116560000Y-92892164D01*
X121240000Y-99827836D02*
X121240000Y-99612164D01*
X121960000Y-99827836D02*
X121960000Y-99612164D01*
X124340000Y-96807836D02*
X124340000Y-96592164D01*
X125060000Y-96807836D02*
X125060000Y-96592164D01*
X120260000Y-82307836D02*
X120260000Y-82092164D01*
X119540000Y-82307836D02*
X119540000Y-82092164D01*
D12*
X121400000Y-98100000D02*
X121400000Y-97550000D01*
X117400000Y-98100000D02*
X117400000Y-97550000D01*
X121400000Y-94100000D02*
X120850000Y-94100000D01*
X121400000Y-98100000D02*
X120850000Y-98100000D01*
X117400000Y-94100000D02*
X117950000Y-94100000D01*
X117400000Y-94100000D02*
X117400000Y-94650000D01*
X117400000Y-98100000D02*
X117950000Y-98100000D01*
X121400000Y-94100000D02*
X121400000Y-94650000D01*
D13*
X118500000Y-99210000D02*
G75*
G03*
X118500000Y-99210000I-100000J0D01*
G01*
D11*
X115740000Y-96792164D02*
X115740000Y-97007836D01*
X116460000Y-96792164D02*
X116460000Y-97007836D01*
X119540000Y-91107836D02*
X119540000Y-90892164D01*
X120260000Y-91107836D02*
X120260000Y-90892164D01*
X120960000Y-99592164D02*
X120960000Y-99807836D01*
X120240000Y-99592164D02*
X120240000Y-99807836D01*
D13*
X120000000Y-80372500D02*
G75*
G03*
X120000000Y-80372500I-100000J0D01*
G01*
D11*
X120292164Y-86840000D02*
X120507836Y-86840000D01*
X120292164Y-87560000D02*
X120507836Y-87560000D01*
X118007836Y-92440000D02*
X117792164Y-92440000D01*
X118007836Y-93160000D02*
X117792164Y-93160000D01*
X124340000Y-94607836D02*
X124340000Y-94392164D01*
X125060000Y-94607836D02*
X125060000Y-94392164D01*
%LPC*%
D14*
X136000000Y-117300000D03*
X119700000Y-117900000D03*
D15*
X122620000Y-95600000D03*
X123580000Y-95600000D03*
D16*
X119900000Y-89385000D03*
X119900000Y-88415000D03*
D15*
X119900000Y-83800000D03*
X120860000Y-83800000D03*
D17*
X117500000Y-90520000D03*
X117500000Y-91480000D03*
D18*
X114635000Y-77990000D03*
X139145000Y-124940000D03*
X114635000Y-124940000D03*
X139145000Y-77990000D03*
D19*
X114215000Y-85950000D03*
D20*
X114215000Y-88490000D03*
X114215000Y-91030000D03*
X114215000Y-93570000D03*
X114215000Y-96110000D03*
X114215000Y-98650000D03*
X114215000Y-101190000D03*
X114215000Y-103730000D03*
X114215000Y-106270000D03*
X114215000Y-108810000D03*
X114215000Y-111350000D03*
X114215000Y-113890000D03*
X114215000Y-116430000D03*
X114215000Y-118970000D03*
X114215000Y-121510000D03*
X139615000Y-121510000D03*
X139615000Y-118970000D03*
X139615000Y-116430000D03*
X139615000Y-113890000D03*
X139615000Y-111350000D03*
X139615000Y-108810000D03*
X139615000Y-106270000D03*
X139615000Y-103730000D03*
X139615000Y-101190000D03*
X139615000Y-98650000D03*
X139615000Y-96110000D03*
X139615000Y-93570000D03*
X139615000Y-91030000D03*
X139615000Y-88490000D03*
X139615000Y-85950000D03*
D21*
X116200000Y-94490000D03*
X116200000Y-95510000D03*
D22*
X121900000Y-90380000D03*
X121900000Y-89420000D03*
D15*
X121120000Y-92900000D03*
X122080000Y-92900000D03*
D23*
X127950000Y-96750000D03*
X127950000Y-94450000D03*
X126250000Y-94450000D03*
X126250000Y-96750000D03*
D22*
X116200000Y-93480000D03*
X116200000Y-92520000D03*
X121600000Y-100200000D03*
X121600000Y-99240000D03*
D24*
X120915000Y-91400000D03*
X121885000Y-91400000D03*
D22*
X124700000Y-97180000D03*
X124700000Y-96220000D03*
X119900000Y-82680000D03*
X119900000Y-81720000D03*
D16*
X119900000Y-86000000D03*
X119900000Y-85030000D03*
D25*
X118400000Y-97970000D03*
X118900000Y-97970000D03*
X119400000Y-97970000D03*
X119900000Y-97970000D03*
X120400000Y-97970000D03*
D26*
X121270000Y-97100000D03*
X121270000Y-96600000D03*
X121270000Y-96100000D03*
X121270000Y-95600000D03*
X121270000Y-95100000D03*
D25*
X120400000Y-94230000D03*
X119900000Y-94230000D03*
X119400000Y-94230000D03*
X118900000Y-94230000D03*
X118400000Y-94230000D03*
D26*
X117530000Y-95100000D03*
X117530000Y-95600000D03*
X117530000Y-96100000D03*
X117530000Y-96600000D03*
X117530000Y-97100000D03*
D27*
X119400000Y-96100000D03*
D17*
X116100000Y-96420000D03*
X116100000Y-97380000D03*
D22*
X119900000Y-91480000D03*
X119900000Y-90520000D03*
D16*
X118700000Y-91485000D03*
X118700000Y-90515000D03*
D17*
X120600000Y-99220000D03*
X120600000Y-100180000D03*
D28*
X119900000Y-77972500D03*
X122600000Y-77972500D03*
X117200000Y-77972500D03*
D15*
X119920000Y-87200000D03*
X120880000Y-87200000D03*
D29*
X118380000Y-92800000D03*
X117420000Y-92800000D03*
D14*
X131000000Y-78900000D03*
D22*
X124700000Y-94980000D03*
X124700000Y-94020000D03*
M02*
